STARTFONT 2.3
FONT -FontForge-Lobster-Book-R-Normal--9-90-72-72-P-52-ISO10646-1
SIZE 9 72 72  2
FONTBOUNDINGBOX 18 15 -4 -4
COMMENT "Generated by fontforge, http://fontforge.sourceforge.net"
COMMENT "Copyright 2010 The Lobster Project Authors (https://github.com/impallari/The-Lobster-Font), with Reserved Font Name "Lobster"."
STARTPROPERTIES 41
FOUNDRY "FontForge"
FAMILY_NAME "Lobster"
WEIGHT_NAME "Book"
SLANT "R"
SETWIDTH_NAME "Normal"
ADD_STYLE_NAME ""
PIXEL_SIZE 9
POINT_SIZE 90
RESOLUTION_X 72
RESOLUTION_Y 72
SPACING "P"
AVERAGE_WIDTH 52
CHARSET_REGISTRY "ISO10646"
CHARSET_ENCODING "1"
FONTNAME_REGISTRY ""
CHARSET_COLLECTIONS "ISO8859-2 ISO8859-5 ISO8859-9 ISO8859-4 ISO10646-1"
BITS_PER_PIXEL 2
FONT_NAME "Lobster-Regular"
FACE_NAME "Lobster Regular"
COPYRIGHT "Copyright 2010 The Lobster Project Authors (https://github.com/impallari/The-Lobster-Font), with Reserved Font Name "Lobster"."
FONT_VERSION "2.100"
FONT_ASCENT 7
FONT_DESCENT 2
UNDERLINE_POSITION -1
UNDERLINE_THICKNESS 1
X_HEIGHT 5
CAP_HEIGHT 6
DEFAULT_CHAR 1
RAW_ASCENT 800
RAW_DESCENT 200
NORM_SPACE 2
RELATIVE_WEIGHT 40
RELATIVE_SETWIDTH 50
SUPERSCRIPT_X 0
SUPERSCRIPT_Y 3
SUPERSCRIPT_SIZE 5
SUBSCRIPT_X 0
SUBSCRIPT_Y 0
SUBSCRIPT_SIZE 5
AVG_LOWERCASE_WIDTH 42
AVG_UPPERCASE_WIDTH 54
ENDPROPERTIES
CHARS 1148
STARTCHAR NULL.dup1
ENCODING 0
SWIDTH 600 0
DWIDTH 5 0
BBX 1 1 0 0
BITMAP
00
ENDCHAR
STARTCHAR nonmarkingreturn
ENCODING 13
SWIDTH 600 0
DWIDTH 5 0
BBX 1 1 0 0
BITMAP
00
ENDCHAR
STARTCHAR space
ENCODING 32
SWIDTH 217 0
DWIDTH 2 0
BBX 1 1 0 0
BITMAP
00
ENDCHAR
STARTCHAR exclam
ENCODING 33
SWIDTH 257 0
DWIDTH 2 0
BBX 3 8 0 0
BITMAP
14
28
24
30
30
10
50
A0
ENDCHAR
STARTCHAR quotedbl
ENCODING 34
SWIDTH 353 0
DWIDTH 3 0
BBX 3 3 1 4
BITMAP
98
A0
10
ENDCHAR
STARTCHAR numbersign
ENCODING 35
SWIDTH 659 0
DWIDTH 6 0
BBX 6 7 0 0
BITMAP
0880
0880
2F90
1540
7B80
2200
1100
ENDCHAR
STARTCHAR dollar
ENCODING 36
SWIDTH 548 0
DWIDTH 5 0
BBX 5 9 0 -1
BITMAP
0100
1A40
2A80
1D00
0A00
AB40
9740
6D00
1000
ENDCHAR
STARTCHAR percent
ENCODING 37
SWIDTH 796 0
DWIDTH 7 0
BBX 7 7 0 0
BITMAP
2820
5980
9980
6668
0198
0888
14A4
ENDCHAR
STARTCHAR ampersand
ENCODING 38
SWIDTH 682 0
DWIDTH 6 0
BBX 6 7 0 0
BITMAP
0A40
2580
2800
29A0
B280
A140
7D00
ENDCHAR
STARTCHAR quotesingle
ENCODING 39
SWIDTH 196 0
DWIDTH 2 0
BBX 1 3 1 4
BITMAP
80
80
40
ENDCHAR
STARTCHAR parenleft
ENCODING 40
SWIDTH 437 0
DWIDTH 4 0
BBX 4 9 1 -2
BITMAP
01
08
20
60
A0
90
90
60
20
ENDCHAR
STARTCHAR parenright
ENCODING 41
SWIDTH 413 0
DWIDTH 4 0
BBX 4 9 -1 -2
BITMAP
04
05
06
06
06
0A
0C
14
50
ENDCHAR
STARTCHAR asterisk
ENCODING 42
SWIDTH 515 0
DWIDTH 5 0
BBX 3 4 1 3
BITMAP
A8
B4
A8
20
ENDCHAR
STARTCHAR plus
ENCODING 43
SWIDTH 442 0
DWIDTH 4 0
BBX 4 4 0 1
BITMAP
14
BD
20
10
ENDCHAR
STARTCHAR comma
ENCODING 44
SWIDTH 216 0
DWIDTH 2 0
BBX 2 2 0 0
BITMAP
90
50
ENDCHAR
STARTCHAR hyphen
ENCODING 45
SWIDTH 290 0
DWIDTH 3 0
BBX 2 1 0 2
BITMAP
A0
ENDCHAR
STARTCHAR period
ENCODING 46
SWIDTH 263 0
DWIDTH 2 0
BBX 2 2 0 0
BITMAP
50
A0
ENDCHAR
STARTCHAR slash
ENCODING 47
SWIDTH 311 0
DWIDTH 3 0
BBX 3 9 0 -2
BITMAP
08
14
20
20
20
50
50
80
80
ENDCHAR
STARTCHAR zero
ENCODING 48
SWIDTH 546 0
DWIDTH 5 0
BBX 5 7 0 0
BITMAP
1A40
35C0
71C0
A1C0
A280
A340
7900
ENDCHAR
STARTCHAR one
ENCODING 49
SWIDTH 317 0
DWIDTH 3 0
BBX 3 8 0 0
BITMAP
04
68
28
34
30
70
A0
A0
ENDCHAR
STARTCHAR two
ENCODING 50
SWIDTH 492 0
DWIDTH 4 0
BBX 5 7 0 0
BITMAP
2A00
6740
1700
0900
2000
A500
AE00
ENDCHAR
STARTCHAR three
ENCODING 51
SWIDTH 514 0
DWIDTH 5 0
BBX 5 7 0 0
BITMAP
2A00
3240
0700
0A00
5340
C740
6900
ENDCHAR
STARTCHAR four
ENCODING 52
SWIDTH 476 0
DWIDTH 4 0
BBX 4 7 0 0
BITMAP
0C
1D
26
66
AF
0D
0C
ENDCHAR
STARTCHAR five
ENCODING 53
SWIDTH 517 0
DWIDTH 5 0
BBX 5 7 0 0
BITMAP
2F40
2000
3E00
0740
6340
9700
6900
ENDCHAR
STARTCHAR six
ENCODING 54
SWIDTH 500 0
DWIDTH 5 0
BBX 5 7 0 0
BITMAP
1A40
3140
6A00
A340
D340
A300
7900
ENDCHAR
STARTCHAR seven
ENCODING 55
SWIDTH 464 0
DWIDTH 4 0
BBX 5 7 0 0
BITMAP
7F80
5600
0500
1800
3400
7000
3000
ENDCHAR
STARTCHAR eight
ENCODING 56
SWIDTH 499 0
DWIDTH 4 0
BBX 5 7 0 0
BITMAP
1A00
3640
2A00
2E00
9740
D340
6900
ENDCHAR
STARTCHAR nine
ENCODING 57
SWIDTH 489 0
DWIDTH 4 0
BBX 5 7 0 0
BITMAP
2A00
A340
9340
6B40
0700
8A00
A800
ENDCHAR
STARTCHAR colon
ENCODING 58
SWIDTH 267 0
DWIDTH 2 0
BBX 2 4 0 1
BITMAP
30
10
50
60
ENDCHAR
STARTCHAR semicolon
ENCODING 59
SWIDTH 276 0
DWIDTH 2 0
BBX 2 5 0 -1
BITMAP
10
30
00
60
50
ENDCHAR
STARTCHAR less
ENCODING 60
SWIDTH 358 0
DWIDTH 3 0
BBX 3 3 0 1
BITMAP
18
A0
24
ENDCHAR
STARTCHAR equal
ENCODING 61
SWIDTH 515 0
DWIDTH 5 0
BBX 4 3 0 1
BITMAP
7F
00
BE
ENDCHAR
STARTCHAR greater
ENCODING 62
SWIDTH 362 0
DWIDTH 3 0
BBX 3 3 0 1
BITMAP
60
1C
A0
ENDCHAR
STARTCHAR question
ENCODING 63
SWIDTH 441 0
DWIDTH 4 0
BBX 4 7 0 0
BITMAP
2A
56
19
24
10
50
60
ENDCHAR
STARTCHAR at
ENCODING 64
SWIDTH 688 0
DWIDTH 6 0
BBX 6 7 0 -1
BITMAP
0A80
2A60
9A20
9650
9A80
C100
6A00
ENDCHAR
STARTCHAR A
ENCODING 65
SWIDTH 668 0
DWIDTH 6 0
BBX 6 8 0 -1
BITMAP
0070
0270
6EA0
98E0
24D0
31C0
71C0
2000
ENDCHAR
STARTCHAR B
ENCODING 66
SWIDTH 641 0
DWIDTH 6 0
BBX 6 7 0 0
BITMAP
2A80
9D80
5E80
18D0
28D0
28C0
3B80
ENDCHAR
STARTCHAR C
ENCODING 67
SWIDTH 497 0
DWIDTH 4 0
BBX 5 7 0 0
BITMAP
1A40
3480
7000
A000
A000
B040
7E00
ENDCHAR
STARTCHAR D
ENCODING 68
SWIDTH 663 0
DWIDTH 6 0
BBX 6 7 0 0
BITMAP
1580
9DA0
9C60
1CA0
2890
35C0
3B40
ENDCHAR
STARTCHAR E
ENCODING 69
SWIDTH 459 0
DWIDTH 4 0
BBX 5 7 0 0
BITMAP
0A40
2540
2800
2800
A000
E100
7900
ENDCHAR
STARTCHAR F
ENCODING 70
SWIDTH 459 0
DWIDTH 4 0
BBX 6 7 0 0
BITMAP
6FD0
8D00
5E00
1800
2800
3400
3400
ENDCHAR
STARTCHAR G
ENCODING 71
SWIDTH 578 0
DWIDTH 5 0
BBX 5 9 0 -2
BITMAP
1A80
74C0
A000
A180
A280
2B40
2700
6600
2800
ENDCHAR
STARTCHAR H
ENCODING 72
SWIDTH 665 0
DWIDTH 6 0
BBX 6 7 0 0
BITMAP
1970
8D70
5EE0
18E0
28D0
25C0
35C0
ENDCHAR
STARTCHAR I
ENCODING 73
SWIDTH 375 0
DWIDTH 3 0
BBX 4 7 0 0
BITMAP
1D
9D
DC
1C
28
34
34
ENDCHAR
STARTCHAR J
ENCODING 74
SWIDTH 536 0
DWIDTH 5 0
BBX 5 9 0 -2
BITMAP
02C0
09C0
1A80
0340
0340
0700
6B00
8900
6400
ENDCHAR
STARTCHAR K
ENCODING 75
SWIDTH 601 0
DWIDTH 5 0
BBX 6 7 0 0
BITMAP
1D50
8E40
5E40
19C0
2980
3680
3680
ENDCHAR
STARTCHAR L
ENCODING 76
SWIDTH 379 0
DWIDTH 3 0
BBX 6 9 0 -2
BITMAP
1D00
9D00
9C00
1C00
2800
3400
3400
0B90
01E0
ENDCHAR
STARTCHAR M
ENCODING 77
SWIDTH 787 0
DWIDTH 7 0
BBX 7 7 0 0
BITMAP
0B1C
272C
5B3C
1B68
17A8
2764
6734
ENDCHAR
STARTCHAR N
ENCODING 78
SWIDTH 668 0
DWIDTH 6 0
BBX 7 7 0 0
BITMAP
2E24
9E20
DF30
5B60
26A0
22D0
21C0
ENDCHAR
STARTCHAR O
ENCODING 79
SWIDTH 665 0
DWIDTH 6 0
BBX 6 7 0 0
BITMAP
1690
5960
9C70
2860
3490
35C0
2E40
ENDCHAR
STARTCHAR P
ENCODING 80
SWIDTH 573 0
DWIDTH 5 0
BBX 6 7 0 0
BITMAP
1580
9D90
DCD0
1D80
2900
3400
3400
ENDCHAR
STARTCHAR Q
ENCODING 81
SWIDTH 665 0
DWIDTH 6 0
BBX 6 8 0 -1
BITMAP
1690
5960
9C70
28A0
3490
3AC0
2F40
01D0
ENDCHAR
STARTCHAR R
ENCODING 82
SWIDTH 601 0
DWIDTH 5 0
BBX 5 7 0 0
BITMAP
1A80
8D80
5E80
19C0
2980
3680
3680
ENDCHAR
STARTCHAR S
ENCODING 83
SWIDTH 570 0
DWIDTH 5 0
BBX 5 7 0 0
BITMAP
0A80
28C0
1D00
0B00
7380
9280
6A00
ENDCHAR
STARTCHAR T
ENCODING 84
SWIDTH 481 0
DWIDTH 4 0
BBX 7 7 0 0
BITMAP
2FF4
9600
8A00
0D00
0D00
1C00
1800
ENDCHAR
STARTCHAR U
ENCODING 85
SWIDTH 716 0
DWIDTH 6 0
BBX 7 7 0 0
BITMAP
1A28
8928
8D34
1C30
2870
28A0
1F80
ENDCHAR
STARTCHAR V
ENCODING 86
SWIDTH 615 0
DWIDTH 6 0
BBX 6 7 0 0
BITMAP
1A20
9A20
CA50
0A80
0A40
0B40
0B00
ENDCHAR
STARTCHAR W
ENCODING 87
SWIDTH 962 0
DWIDTH 9 0
BBX 9 7 0 0
BITMAP
1A2840
9A3880
CA7840
0AA900
0A6900
0B6D00
0B2C00
ENDCHAR
STARTCHAR X
ENCODING 88
SWIDTH 620 0
DWIDTH 6 0
BBX 6 7 0 0
BITMAP
1A50
9B80
C740
0740
0740
0A80
12C0
ENDCHAR
STARTCHAR Y
ENCODING 89
SWIDTH 620 0
DWIDTH 6 0
BBX 6 7 0 0
BITMAP
1A10
9B20
C750
0380
0340
0740
0700
ENDCHAR
STARTCHAR Z
ENCODING 90
SWIDTH 542 0
DWIDTH 5 0
BBX 5 7 0 0
BITMAP
2B80
1740
0A00
1D00
2800
7540
BA40
ENDCHAR
STARTCHAR bracketleft
ENCODING 91
SWIDTH 400 0
DWIDTH 4 0
BBX 4 9 0 -2
BITMAP
19
14
24
30
20
60
90
80
E0
ENDCHAR
STARTCHAR backslash
ENCODING 92
SWIDTH 362 0
DWIDTH 3 0
BBX 3 9 0 -2
BITMAP
80
50
20
20
20
14
14
08
08
ENDCHAR
STARTCHAR bracketright
ENCODING 93
SWIDTH 400 0
DWIDTH 4 0
BBX 5 9 -1 -2
BITMAP
0740
0300
0200
0600
0900
0800
0C00
1800
6400
ENDCHAR
STARTCHAR asciicircum
ENCODING 94
SWIDTH 421 0
DWIDTH 4 0
BBX 2 2 1 6
BITMAP
60
A0
ENDCHAR
STARTCHAR underscore
ENCODING 95
SWIDTH 444 0
DWIDTH 4 0
BBX 4 1 0 0
BITMAP
69
ENDCHAR
STARTCHAR grave
ENCODING 96
SWIDTH 201 0
DWIDTH 2 0
BBX 2 2 0 6
BITMAP
90
50
ENDCHAR
STARTCHAR a
ENCODING 97
SWIDTH 526 0
DWIDTH 5 0
BBX 5 5 0 0
BITMAP
2B40
A700
D700
DA40
AB40
ENDCHAR
STARTCHAR b
ENCODING 98
SWIDTH 444 0
DWIDTH 4 0
BBX 4 7 0 0
BITMAP
24
70
79
A6
D6
D9
B4
ENDCHAR
STARTCHAR c
ENCODING 99
SWIDTH 384 0
DWIDTH 3 0
BBX 4 5 0 0
BITMAP
28
A4
D0
D1
B8
ENDCHAR
STARTCHAR d
ENCODING 100
SWIDTH 525 0
DWIDTH 5 0
BBX 5 7 0 0
BITMAP
0280
0340
2B40
A700
D700
DA40
AB40
ENDCHAR
STARTCHAR e
ENCODING 101
SWIDTH 384 0
DWIDTH 3 0
BBX 4 5 0 0
BITMAP
28
A8
E4
D1
B4
ENDCHAR
STARTCHAR f
ENCODING 102
SWIDTH 267 0
DWIDTH 2 0
BBX 6 9 -2 -2
BITMAP
02D0
0700
0740
0A00
0D00
0D00
1C00
6800
B400
ENDCHAR
STARTCHAR g
ENCODING 103
SWIDTH 507 0
DWIDTH 5 0
BBX 5 7 0 -2
BITMAP
2B40
A700
D600
DA40
BE00
2D00
7800
ENDCHAR
STARTCHAR h
ENCODING 104
SWIDTH 505 0
DWIDTH 5 0
BBX 6 7 -1 0
BITMAP
0900
1C00
1F80
2980
3680
3650
72D0
ENDCHAR
STARTCHAR i
ENCODING 105
SWIDTH 267 0
DWIDTH 2 0
BBX 3 7 0 0
BITMAP
30
10
60
A0
D0
D4
E0
ENDCHAR
STARTCHAR j
ENCODING 106
SWIDTH 240 0
DWIDTH 2 0
BBX 5 9 -2 -2
BITMAP
0300
0100
0600
0A00
0D00
0D40
1D00
6800
B400
ENDCHAR
STARTCHAR k
ENCODING 107
SWIDTH 518 0
DWIDTH 5 0
BBX 6 7 -1 0
BITMAP
0D00
1C00
1980
2F40
3A80
3690
72D0
ENDCHAR
STARTCHAR l
ENCODING 108
SWIDTH 267 0
DWIDTH 2 0
BBX 3 7 0 0
BITMAP
34
70
60
A0
D0
D4
E0
ENDCHAR
STARTCHAR m
ENCODING 109
SWIDTH 752 0
DWIDTH 7 0
BBX 8 5 -1 0
BITMAP
1FAC
29DC
369C
3769
735D
ENDCHAR
STARTCHAR n
ENCODING 110
SWIDTH 505 0
DWIDTH 5 0
BBX 6 5 -1 0
BITMAP
1F80
2980
3680
3650
72D0
ENDCHAR
STARTCHAR o
ENCODING 111
SWIDTH 439 0
DWIDTH 4 0
BBX 5 5 0 0
BITMAP
2900
A640
D500
D800
B400
ENDCHAR
STARTCHAR p
ENCODING 112
SWIDTH 468 0
DWIDTH 4 0
BBX 5 9 -1 -3
BITMAP
1400
2E80
29C0
35C0
3680
7E00
7000
A000
4000
ENDCHAR
STARTCHAR q
ENCODING 113
SWIDTH 486 0
DWIDTH 4 0
BBX 5 8 0 -3
BITMAP
2B40
A700
D600
DA00
BD00
0D00
1C00
0400
ENDCHAR
STARTCHAR r
ENCODING 114
SWIDTH 376 0
DWIDTH 3 0
BBX 5 5 -1 0
BITMAP
1E40
2900
3400
3400
7000
ENDCHAR
STARTCHAR s
ENCODING 115
SWIDTH 382 0
DWIDTH 3 0
BBX 5 6 -1 0
BITMAP
0500
0E00
1A00
1A00
5B40
2D00
ENDCHAR
STARTCHAR t
ENCODING 116
SWIDTH 267 0
DWIDTH 2 0
BBX 3 7 0 0
BITMAP
10
70
B0
A0
D0
D4
E0
ENDCHAR
STARTCHAR u
ENCODING 117
SWIDTH 505 0
DWIDTH 5 0
BBX 5 5 0 0
BITMAP
6700
A700
DA00
DD40
EB40
ENDCHAR
STARTCHAR v
ENCODING 118
SWIDTH 414 0
DWIDTH 4 0
BBX 4 5 0 0
BITMAP
65
A2
D5
D8
B4
ENDCHAR
STARTCHAR w
ENCODING 119
SWIDTH 661 0
DWIDTH 6 0
BBX 6 5 0 0
BITMAP
6760
A720
DA20
DD90
EB40
ENDCHAR
STARTCHAR x
ENCODING 120
SWIDTH 522 0
DWIDTH 5 0
BBX 5 6 0 0
BITMAP
0140
2940
4E00
4D00
1D40
5740
ENDCHAR
STARTCHAR y
ENCODING 121
SWIDTH 486 0
DWIDTH 4 0
BBX 5 7 0 -2
BITMAP
6700
A700
DA00
DD40
ED00
6C00
7800
ENDCHAR
STARTCHAR z
ENCODING 122
SWIDTH 428 0
DWIDTH 4 0
BBX 4 5 0 0
BITMAP
6E
5C
28
75
B9
ENDCHAR
STARTCHAR braceleft
ENCODING 123
SWIDTH 352 0
DWIDTH 3 0
BBX 4 9 0 -2
BITMAP
09
18
24
24
60
30
60
A0
60
ENDCHAR
STARTCHAR bar
ENCODING 124
SWIDTH 532 0
DWIDTH 5 0
BBX 1 9 2 -2
BITMAP
80
80
80
80
80
80
80
80
80
ENDCHAR
STARTCHAR braceright
ENCODING 125
SWIDTH 352 0
DWIDTH 3 0
BBX 4 9 -1 -2
BITMAP
09
06
09
0C
09
18
18
24
60
ENDCHAR
STARTCHAR asciitilde
ENCODING 126
SWIDTH 431 0
DWIDTH 4 0
BBX 3 1 1 6
BITMAP
B8
ENDCHAR
STARTCHAR uni00A0
ENCODING 160
SWIDTH 217 0
DWIDTH 2 0
BBX 1 1 0 0
BITMAP
00
ENDCHAR
STARTCHAR exclamdown
ENCODING 161
SWIDTH 219 0
DWIDTH 2 0
BBX 3 8 -1 -3
BITMAP
1C
04
04
24
24
30
70
50
ENDCHAR
STARTCHAR cent
ENCODING 162
SWIDTH 384 0
DWIDTH 3 0
BBX 4 7 0 0
BITMAP
04
29
66
D4
E0
78
10
ENDCHAR
STARTCHAR sterling
ENCODING 163
SWIDTH 455 0
DWIDTH 4 0
BBX 5 7 0 0
BITMAP
0A40
1D40
2800
7900
3400
7140
BF40
ENDCHAR
STARTCHAR currency
ENCODING 164
SWIDTH 500 0
DWIDTH 5 0
BBX 3 3 1 2
BITMAP
A8
48
A8
ENDCHAR
STARTCHAR yen
ENCODING 165
SWIDTH 558 0
DWIDTH 5 0
BBX 4 7 1 0
BITMAP
E2
A1
74
78
B9
B8
B0
ENDCHAR
STARTCHAR brokenbar
ENCODING 166
SWIDTH 532 0
DWIDTH 5 0
BBX 1 9 2 -2
BITMAP
80
80
80
80
C0
80
80
80
80
ENDCHAR
STARTCHAR section
ENCODING 167
SWIDTH 542 0
DWIDTH 5 0
BBX 5 8 0 -1
BITMAP
0940
1C40
2D00
7740
2A80
5E40
C900
6800
ENDCHAR
STARTCHAR dieresis
ENCODING 168
SWIDTH 392 0
DWIDTH 4 0
BBX 3 1 0 6
BITMAP
58
ENDCHAR
STARTCHAR copyright
ENCODING 169
SWIDTH 587 0
DWIDTH 5 0
BBX 5 6 0 0
BITMAP
1500
1940
5140
6040
1940
1500
ENDCHAR
STARTCHAR ordfeminine
ENCODING 170
SWIDTH 345 0
DWIDTH 3 0
BBX 3 3 0 4
BITMAP
68
98
54
ENDCHAR
STARTCHAR guillemotleft
ENCODING 171
SWIDTH 589 0
DWIDTH 5 0
BBX 5 3 0 1
BITMAP
0540
5900
1640
ENDCHAR
STARTCHAR logicalnot
ENCODING 172
SWIDTH 444 0
DWIDTH 4 0
BBX 4 3 0 0
BITMAP
AD
09
04
ENDCHAR
STARTCHAR uni00AD
ENCODING 173
SWIDTH 290 0
DWIDTH 3 0
BBX 2 1 0 2
BITMAP
A0
ENDCHAR
STARTCHAR registered
ENCODING 174
SWIDTH 553 0
DWIDTH 5 0
BBX 5 6 0 0
BITMAP
1500
6540
5140
5940
6140
1500
ENDCHAR
STARTCHAR macron
ENCODING 175
SWIDTH 446 0
DWIDTH 4 0
BBX 4 1 0 6
BITMAP
69
ENDCHAR
STARTCHAR degree
ENCODING 176
SWIDTH 314 0
DWIDTH 3 0
BBX 3 4 0 3
BITMAP
14
54
94
50
ENDCHAR
STARTCHAR plusminus
ENCODING 177
SWIDTH 479 0
DWIDTH 4 0
BBX 4 5 0 1
BITMAP
08
6E
14
10
A9
ENDCHAR
STARTCHAR uni00B2
ENCODING 178
SWIDTH 328 0
DWIDTH 3 0
BBX 3 4 0 3
BITMAP
18
18
10
68
ENDCHAR
STARTCHAR uni00B3
ENCODING 179
SWIDTH 336 0
DWIDTH 3 0
BBX 3 4 0 3
BITMAP
28
14
58
54
ENDCHAR
STARTCHAR acute
ENCODING 180
SWIDTH 316 0
DWIDTH 3 0
BBX 2 2 1 6
BITMAP
60
80
ENDCHAR
STARTCHAR uni00B5
ENCODING 181
SWIDTH 505 0
DWIDTH 5 0
BBX 6 7 -1 -2
BITMAP
19C0
29C0
3680
3750
7AD0
7000
5000
ENDCHAR
STARTCHAR paragraph
ENCODING 182
SWIDTH 542 0
DWIDTH 5 0
BBX 5 8 0 -1
BITMAP
1F40
3E80
7E40
3E40
1F00
1A00
1A00
2900
ENDCHAR
STARTCHAR periodcentered
ENCODING 183
SWIDTH 434 0
DWIDTH 4 0
BBX 2 2 1 2
BITMAP
A0
A0
ENDCHAR
STARTCHAR cedilla
ENCODING 184
SWIDTH 227 0
DWIDTH 2 0
BBX 2 3 0 -2
BITMAP
50
20
50
ENDCHAR
STARTCHAR uni00B9
ENCODING 185
SWIDTH 229 0
DWIDTH 2 0
BBX 2 5 0 3
BITMAP
10
60
60
50
40
ENDCHAR
STARTCHAR ordmasculine
ENCODING 186
SWIDTH 329 0
DWIDTH 3 0
BBX 3 3 0 4
BITMAP
64
90
50
ENDCHAR
STARTCHAR guillemotright
ENCODING 187
SWIDTH 586 0
DWIDTH 5 0
BBX 5 3 0 1
BITMAP
1100
1980
5500
ENDCHAR
STARTCHAR onequarter
ENCODING 188
SWIDTH 749 0
DWIDTH 7 0
BBX 7 8 0 0
BITMAP
1000
6080
6080
5200
4564
0864
14A4
2020
ENDCHAR
STARTCHAR onehalf
ENCODING 189
SWIDTH 745 0
DWIDTH 7 0
BBX 7 8 0 0
BITMAP
1000
6080
6080
5200
4564
0814
1410
20A4
ENDCHAR
STARTCHAR threequarters
ENCODING 190
SWIDTH 836 0
DWIDTH 8 0
BBX 8 7 0 0
BITMAP
2820
1450
5880
5569
0228
052C
0808
ENDCHAR
STARTCHAR questiondown
ENCODING 191
SWIDTH 439 0
DWIDTH 4 0
BBX 4 7 0 -2
BITMAP
0D
04
04
14
64
D9
A8
ENDCHAR
STARTCHAR Agrave
ENCODING 192
SWIDTH 668 0
DWIDTH 6 0
BBX 6 11 0 -1
BITMAP
0050
0060
0000
0070
0270
6EA0
98E0
24D0
31C0
71C0
2000
ENDCHAR
STARTCHAR Aacute
ENCODING 193
SWIDTH 668 0
DWIDTH 6 0
BBX 7 11 0 -1
BITMAP
0018
0020
0000
0070
0270
6EA0
98E0
24D0
31C0
71C0
2000
ENDCHAR
STARTCHAR Acircumflex
ENCODING 194
SWIDTH 668 0
DWIDTH 6 0
BBX 7 11 0 -1
BITMAP
0014
0054
0000
0070
0270
6EA0
98E0
24D0
31C0
71C0
2000
ENDCHAR
STARTCHAR Atilde
ENCODING 195
SWIDTH 668 0
DWIDTH 6 0
BBX 7 10 0 -1
BITMAP
0078
0000
0070
0270
6EA0
98E0
24D0
31C0
71C0
2000
ENDCHAR
STARTCHAR Adieresis
ENCODING 196
SWIDTH 668 0
DWIDTH 6 0
BBX 7 10 0 -1
BITMAP
0098
0000
0070
0270
6EA0
98E0
24D0
31C0
71C0
2000
ENDCHAR
STARTCHAR Aring
ENCODING 197
SWIDTH 668 0
DWIDTH 6 0
BBX 6 11 0 -1
BITMAP
0010
0010
0000
0070
0270
6EA0
98E0
24D0
31C0
71C0
2000
ENDCHAR
STARTCHAR AE
ENCODING 198
SWIDTH 764 0
DWIDTH 7 0
BBX 8 8 0 -1
BITMAP
00BA
0270
6DA0
D8F8
64D0
31C0
71FC
2000
ENDCHAR
STARTCHAR Ccedilla
ENCODING 199
SWIDTH 497 0
DWIDTH 4 0
BBX 5 9 0 -2
BITMAP
1A40
3480
7000
A000
A000
A040
7E00
0800
1400
ENDCHAR
STARTCHAR Egrave
ENCODING 200
SWIDTH 459 0
DWIDTH 4 0
BBX 5 10 0 0
BITMAP
0900
0500
0000
0A40
2540
2800
2800
A000
E100
7900
ENDCHAR
STARTCHAR Eacute
ENCODING 201
SWIDTH 459 0
DWIDTH 4 0
BBX 5 10 0 0
BITMAP
0140
0200
0000
0A40
2540
2800
2800
A000
E100
7900
ENDCHAR
STARTCHAR Ecircumflex
ENCODING 202
SWIDTH 459 0
DWIDTH 4 0
BBX 5 10 0 0
BITMAP
0200
0940
0000
0A40
2540
2800
2800
A000
E100
7900
ENDCHAR
STARTCHAR Edieresis
ENCODING 203
SWIDTH 459 0
DWIDTH 4 0
BBX 5 9 0 0
BITMAP
0980
0000
0A40
2540
2800
2800
A000
E100
7900
ENDCHAR
STARTCHAR Igrave
ENCODING 204
SWIDTH 375 0
DWIDTH 3 0
BBX 4 10 0 0
BITMAP
08
08
00
1D
9D
DC
1C
28
34
34
ENDCHAR
STARTCHAR Iacute
ENCODING 205
SWIDTH 375 0
DWIDTH 3 0
BBX 4 10 0 0
BITMAP
02
02
00
1D
9D
DC
1C
28
34
34
ENDCHAR
STARTCHAR Icircumflex
ENCODING 206
SWIDTH 375 0
DWIDTH 3 0
BBX 4 10 0 0
BITMAP
02
0A
00
1D
9D
DC
1C
28
34
34
ENDCHAR
STARTCHAR Idieresis
ENCODING 207
SWIDTH 375 0
DWIDTH 3 0
BBX 5 9 0 0
BITMAP
1A40
0000
1D00
9D00
DC00
1C00
2800
3400
3400
ENDCHAR
STARTCHAR Eth
ENCODING 208
SWIDTH 663 0
DWIDTH 6 0
BBX 6 7 0 0
BITMAP
1580
9DA0
DC60
6DA0
2890
35C0
3B40
ENDCHAR
STARTCHAR Ntilde
ENCODING 209
SWIDTH 686 0
DWIDTH 6 0
BBX 7 9 0 0
BITMAP
02E0
0000
2E24
9E20
DF30
5B60
26A0
22D0
21C0
ENDCHAR
STARTCHAR Ograve
ENCODING 210
SWIDTH 665 0
DWIDTH 6 0
BBX 6 10 0 0
BITMAP
0200
0200
0000
1690
5960
9C70
2860
3490
35C0
2E40
ENDCHAR
STARTCHAR Oacute
ENCODING 211
SWIDTH 665 0
DWIDTH 6 0
BBX 6 10 0 0
BITMAP
0080
0180
0000
1690
5960
9C70
2860
3490
35C0
2E40
ENDCHAR
STARTCHAR Ocircumflex
ENCODING 212
SWIDTH 665 0
DWIDTH 6 0
BBX 6 10 0 0
BITMAP
0180
0280
0000
1690
5960
9C70
2860
3490
35C0
2E40
ENDCHAR
STARTCHAR Otilde
ENCODING 213
SWIDTH 665 0
DWIDTH 6 0
BBX 6 9 0 0
BITMAP
02E0
0000
1690
5960
9C70
2860
3490
35C0
2E40
ENDCHAR
STARTCHAR Odieresis
ENCODING 214
SWIDTH 665 0
DWIDTH 6 0
BBX 6 9 0 0
BITMAP
0690
0000
1690
5960
9C70
2860
3490
35C0
2E40
ENDCHAR
STARTCHAR multiply
ENCODING 215
SWIDTH 414 0
DWIDTH 4 0
BBX 3 3 0 2
BITMAP
04
68
68
ENDCHAR
STARTCHAR Oslash
ENCODING 216
SWIDTH 658 0
DWIDTH 6 0
BBX 6 8 0 -1
BITMAP
1680
5BA0
9DA0
69A0
35D0
36C0
2F00
0400
ENDCHAR
STARTCHAR Ugrave
ENCODING 217
SWIDTH 716 0
DWIDTH 6 0
BBX 7 10 0 0
BITMAP
0180
0080
0000
1A28
8D24
8C34
1C70
2860
28D0
1F80
ENDCHAR
STARTCHAR Uacute
ENCODING 218
SWIDTH 716 0
DWIDTH 6 0
BBX 7 10 0 0
BITMAP
0060
0080
0000
1A28
8D24
8C34
1C70
2860
28D0
1F80
ENDCHAR
STARTCHAR Ucircumflex
ENCODING 219
SWIDTH 716 0
DWIDTH 6 0
BBX 7 10 0 0
BITMAP
0050
0150
0000
1A28
8D24
8C34
1C70
2860
28D0
1F80
ENDCHAR
STARTCHAR Udieresis
ENCODING 220
SWIDTH 716 0
DWIDTH 6 0
BBX 7 9 0 0
BITMAP
0160
0000
1A28
8D24
8C34
1C70
2860
28D0
1F80
ENDCHAR
STARTCHAR Yacute
ENCODING 221
SWIDTH 620 0
DWIDTH 6 0
BBX 6 10 0 0
BITMAP
0020
0050
0000
1A10
9B20
C750
0380
0340
0740
0700
ENDCHAR
STARTCHAR Thorn
ENCODING 222
SWIDTH 583 0
DWIDTH 5 0
BBX 6 8 0 0
BITMAP
0900
0E40
3C80
AC90
DCD0
6980
3900
3400
ENDCHAR
STARTCHAR germandbls
ENCODING 223
SWIDTH 480 0
DWIDTH 4 0
BBX 5 10 -1 -3
BITMAP
0680
0C80
1D40
2A40
2580
35C0
7640
7000
A000
4000
ENDCHAR
STARTCHAR agrave
ENCODING 224
SWIDTH 526 0
DWIDTH 5 0
BBX 5 7 0 0
BITMAP
0C00
0800
2B40
A700
D700
DA40
AB40
ENDCHAR
STARTCHAR aacute
ENCODING 225
SWIDTH 526 0
DWIDTH 5 0
BBX 5 7 0 0
BITMAP
0600
0400
2B40
A700
D700
DA40
AB40
ENDCHAR
STARTCHAR acircumflex
ENCODING 226
SWIDTH 526 0
DWIDTH 5 0
BBX 5 7 0 0
BITMAP
0600
0500
2B40
A700
D700
DA40
AB40
ENDCHAR
STARTCHAR atilde
ENCODING 227
SWIDTH 526 0
DWIDTH 5 0
BBX 5 7 0 0
BITMAP
1E40
0100
2B40
A700
D700
DA40
AB40
ENDCHAR
STARTCHAR adieresis
ENCODING 228
SWIDTH 526 0
DWIDTH 5 0
BBX 5 7 0 0
BITMAP
1A40
0000
2B40
A700
D700
DA40
AB40
ENDCHAR
STARTCHAR aring
ENCODING 229
SWIDTH 526 0
DWIDTH 5 0
BBX 5 7 0 0
BITMAP
0500
0400
2B40
A700
D700
DA40
AB40
ENDCHAR
STARTCHAR ae
ENCODING 230
SWIDTH 650 0
DWIDTH 6 0
BBX 6 5 0 0
BITMAP
2AA0
0760
6E40
DE10
A780
ENDCHAR
STARTCHAR ccedilla
ENCODING 231
SWIDTH 384 0
DWIDTH 3 0
BBX 4 7 0 -2
BITMAP
28
A4
D0
D1
B8
24
14
ENDCHAR
STARTCHAR egrave
ENCODING 232
SWIDTH 384 0
DWIDTH 3 0
BBX 4 7 0 0
BITMAP
14
04
28
A8
E4
D1
B4
ENDCHAR
STARTCHAR eacute
ENCODING 233
SWIDTH 384 0
DWIDTH 3 0
BBX 4 7 0 0
BITMAP
05
04
28
A8
E4
D1
B4
ENDCHAR
STARTCHAR ecircumflex
ENCODING 234
SWIDTH 384 0
DWIDTH 3 0
BBX 4 7 0 0
BITMAP
09
11
28
A8
E4
D1
B4
ENDCHAR
STARTCHAR edieresis
ENCODING 235
SWIDTH 384 0
DWIDTH 3 0
BBX 4 7 0 0
BITMAP
26
00
28
A8
E4
D1
B4
ENDCHAR
STARTCHAR igrave
ENCODING 236
SWIDTH 267 0
DWIDTH 2 0
BBX 3 7 0 0
BITMAP
60
20
60
A0
D0
D4
E0
ENDCHAR
STARTCHAR iacute
ENCODING 237
SWIDTH 267 0
DWIDTH 2 0
BBX 3 7 0 0
BITMAP
14
10
60
A0
D0
D4
E0
ENDCHAR
STARTCHAR icircumflex
ENCODING 238
SWIDTH 267 0
DWIDTH 2 0
BBX 3 7 0 0
BITMAP
24
44
60
A0
D0
D4
E0
ENDCHAR
STARTCHAR idieresis
ENCODING 239
SWIDTH 267 0
DWIDTH 2 0
BBX 3 7 0 0
BITMAP
98
00
60
A0
D0
D4
E0
ENDCHAR
STARTCHAR eth
ENCODING 240
SWIDTH 526 0
DWIDTH 5 0
BBX 5 7 0 0
BITMAP
0B40
0700
2B40
A700
D700
DA40
AB40
ENDCHAR
STARTCHAR ntilde
ENCODING 241
SWIDTH 505 0
DWIDTH 5 0
BBX 6 7 -1 0
BITMAP
0B80
0000
1F80
2980
3680
3650
72D0
ENDCHAR
STARTCHAR ograve
ENCODING 242
SWIDTH 433 0
DWIDTH 4 0
BBX 5 7 0 0
BITMAP
1800
0800
2900
A640
D500
D800
B400
ENDCHAR
STARTCHAR oacute
ENCODING 243
SWIDTH 439 0
DWIDTH 4 0
BBX 5 7 0 0
BITMAP
0500
0400
2900
A640
D500
D800
B400
ENDCHAR
STARTCHAR ocircumflex
ENCODING 244
SWIDTH 433 0
DWIDTH 4 0
BBX 5 7 0 0
BITMAP
0800
1100
2900
A640
D500
D800
B400
ENDCHAR
STARTCHAR otilde
ENCODING 245
SWIDTH 433 0
DWIDTH 4 0
BBX 5 7 0 0
BITMAP
7D00
0400
2900
A640
D500
D800
B400
ENDCHAR
STARTCHAR odieresis
ENCODING 246
SWIDTH 433 0
DWIDTH 4 0
BBX 5 7 0 0
BITMAP
3600
0000
2900
A640
D500
D800
B400
ENDCHAR
STARTCHAR divide
ENCODING 247
SWIDTH 415 0
DWIDTH 4 0
BBX 4 5 0 1
BITMAP
18
04
69
10
24
ENDCHAR
STARTCHAR oslash
ENCODING 248
SWIDTH 428 0
DWIDTH 4 0
BBX 5 6 -1 -1
BITMAP
0A80
2940
3A40
3A00
3D00
4000
ENDCHAR
STARTCHAR ugrave
ENCODING 249
SWIDTH 505 0
DWIDTH 5 0
BBX 5 7 0 0
BITMAP
1800
0800
6700
A700
DA00
DD40
EB40
ENDCHAR
STARTCHAR uacute
ENCODING 250
SWIDTH 505 0
DWIDTH 5 0
BBX 5 7 0 0
BITMAP
0600
0400
6700
A700
DA00
DD40
EB40
ENDCHAR
STARTCHAR ucircumflex
ENCODING 251
SWIDTH 505 0
DWIDTH 5 0
BBX 5 7 0 0
BITMAP
0900
1100
6700
A700
DA00
DD40
EB40
ENDCHAR
STARTCHAR udieresis
ENCODING 252
SWIDTH 505 0
DWIDTH 5 0
BBX 5 7 0 0
BITMAP
2600
0000
6700
A700
DA00
DD40
EB40
ENDCHAR
STARTCHAR yacute
ENCODING 253
SWIDTH 505 0
DWIDTH 5 0
BBX 5 9 0 -2
BITMAP
0600
0400
6700
A700
DA00
DD40
ED00
6C00
7800
ENDCHAR
STARTCHAR thorn
ENCODING 254
SWIDTH 473 0
DWIDTH 4 0
BBX 5 11 -1 -3
BITMAP
0400
0D00
1C00
1E80
29C0
35C0
3680
7A00
7000
A000
4000
ENDCHAR
STARTCHAR ydieresis
ENCODING 255
SWIDTH 505 0
DWIDTH 5 0
BBX 5 9 0 -2
BITMAP
2600
0000
6700
A700
DA00
DD40
ED00
6C00
7800
ENDCHAR
STARTCHAR Amacron
ENCODING 256
SWIDTH 668 0
DWIDTH 6 0
BBX 7 10 0 -1
BITMAP
00A8
0000
0070
0270
6EA0
98E0
24D0
31C0
71C0
2000
ENDCHAR
STARTCHAR amacron
ENCODING 257
SWIDTH 526 0
DWIDTH 5 0
BBX 5 7 0 0
BITMAP
1A40
0000
2B40
A700
D700
DA40
AB40
ENDCHAR
STARTCHAR Abreve
ENCODING 258
SWIDTH 668 0
DWIDTH 6 0
BBX 8 11 0 -1
BITMAP
0045
0064
0000
0070
0270
6EA0
98E0
24D0
31C0
71C0
2000
ENDCHAR
STARTCHAR abreve
ENCODING 259
SWIDTH 526 0
DWIDTH 5 0
BBX 5 7 0 0
BITMAP
1A40
0000
2B40
A700
D700
DA40
AB40
ENDCHAR
STARTCHAR Aogonek
ENCODING 260
SWIDTH 668 0
DWIDTH 6 0
BBX 6 9 0 -2
BITMAP
0070
0270
6EA0
98E0
24D0
31C0
71C0
2100
0140
ENDCHAR
STARTCHAR aogonek
ENCODING 261
SWIDTH 526 0
DWIDTH 5 0
BBX 5 7 0 -2
BITMAP
2B40
A700
D700
DA40
AB40
0500
0600
ENDCHAR
STARTCHAR Cacute
ENCODING 262
SWIDTH 497 0
DWIDTH 4 0
BBX 5 10 0 0
BITMAP
0180
0200
0000
1A40
3480
7000
A000
A000
B040
7E00
ENDCHAR
STARTCHAR cacute
ENCODING 263
SWIDTH 384 0
DWIDTH 3 0
BBX 4 7 0 0
BITMAP
06
04
28
A4
D0
D1
B8
ENDCHAR
STARTCHAR Ccircumflex
ENCODING 264
SWIDTH 497 0
DWIDTH 4 0
BBX 5 10 0 0
BITMAP
0200
0940
0000
1A40
3480
7000
A000
A000
B040
7E00
ENDCHAR
STARTCHAR ccircumflex
ENCODING 265
SWIDTH 384 0
DWIDTH 3 0
BBX 4 7 0 0
BITMAP
09
11
28
A4
D0
D1
B8
ENDCHAR
STARTCHAR Cdotaccent
ENCODING 266
SWIDTH 497 0
DWIDTH 4 0
BBX 5 10 0 0
BITMAP
0140
0280
0000
1A40
3480
7000
A000
A000
B040
7E00
ENDCHAR
STARTCHAR cdotaccent
ENCODING 267
SWIDTH 384 0
DWIDTH 3 0
BBX 4 7 0 0
BITMAP
0D
04
28
A4
D0
D1
B8
ENDCHAR
STARTCHAR Ccaron
ENCODING 268
SWIDTH 497 0
DWIDTH 4 0
BBX 5 10 0 0
BITMAP
0580
0200
0000
1A40
3480
7000
A000
A000
B040
7E00
ENDCHAR
STARTCHAR ccaron
ENCODING 269
SWIDTH 384 0
DWIDTH 3 0
BBX 4 7 0 0
BITMAP
09
04
28
A4
D0
D1
B8
ENDCHAR
STARTCHAR Dcaron
ENCODING 270
SWIDTH 663 0
DWIDTH 6 0
BBX 6 10 0 0
BITMAP
0580
0200
0000
1580
9DA0
9C60
1CA0
2890
35C0
3B40
ENDCHAR
STARTCHAR dcaron
ENCODING 271
SWIDTH 525 0
DWIDTH 5 0
BBX 6 7 0 0
BITMAP
0160
0350
2B40
A700
D700
DA40
AB40
ENDCHAR
STARTCHAR Dcroat
ENCODING 272
SWIDTH 663 0
DWIDTH 6 0
BBX 6 7 0 0
BITMAP
1580
9DA0
DC60
6DA0
2890
35C0
3B40
ENDCHAR
STARTCHAR dcroat
ENCODING 273
SWIDTH 525 0
DWIDTH 5 0
BBX 5 7 0 0
BITMAP
0140
0780
2B40
A700
D700
DA40
AB40
ENDCHAR
STARTCHAR Emacron
ENCODING 274
SWIDTH 459 0
DWIDTH 4 0
BBX 5 9 0 0
BITMAP
0A80
0000
0A40
2540
2800
2800
A000
E100
7900
ENDCHAR
STARTCHAR emacron
ENCODING 275
SWIDTH 384 0
DWIDTH 3 0
BBX 4 7 0 0
BITMAP
2A
00
28
A8
E4
D1
B4
ENDCHAR
STARTCHAR Ebreve
ENCODING 276
SWIDTH 459 0
DWIDTH 4 0
BBX 5 10 0 0
BITMAP
0840
0640
0000
0A40
2540
2800
2800
A000
E100
7900
ENDCHAR
STARTCHAR ebreve
ENCODING 277
SWIDTH 384 0
DWIDTH 3 0
BBX 4 7 0 0
BITMAP
29
00
28
A8
E4
D1
B4
ENDCHAR
STARTCHAR Edotaccent
ENCODING 278
SWIDTH 459 0
DWIDTH 4 0
BBX 5 10 0 0
BITMAP
0100
0340
0000
0A40
2540
2800
2800
A000
E100
7900
ENDCHAR
STARTCHAR edotaccent
ENCODING 279
SWIDTH 384 0
DWIDTH 3 0
BBX 4 7 0 0
BITMAP
0D
04
28
A8
E4
D1
B4
ENDCHAR
STARTCHAR Eogonek
ENCODING 280
SWIDTH 459 0
DWIDTH 4 0
BBX 5 9 0 -2
BITMAP
1A40
3140
2400
2800
A000
A000
7D00
0800
0900
ENDCHAR
STARTCHAR eogonek
ENCODING 281
SWIDTH 384 0
DWIDTH 3 0
BBX 4 7 0 -2
BITMAP
28
A8
E4
D1
B8
20
24
ENDCHAR
STARTCHAR Ecaron
ENCODING 282
SWIDTH 459 0
DWIDTH 4 0
BBX 5 10 0 0
BITMAP
0580
0200
0000
0A40
2540
2800
2800
A000
E100
7900
ENDCHAR
STARTCHAR ecaron
ENCODING 283
SWIDTH 384 0
DWIDTH 3 0
BBX 4 7 0 0
BITMAP
09
04
28
A8
E4
D1
B4
ENDCHAR
STARTCHAR Gcircumflex
ENCODING 284
SWIDTH 578 0
DWIDTH 5 0
BBX 5 12 0 -2
BITMAP
0140
0280
0000
1A80
7480
A040
A180
A280
2B40
2700
6600
2800
ENDCHAR
STARTCHAR gcircumflex
ENCODING 285
SWIDTH 507 0
DWIDTH 5 0
BBX 5 9 0 -2
BITMAP
0600
0500
2B40
A700
D600
DA40
BE00
2D00
7800
ENDCHAR
STARTCHAR Gbreve
ENCODING 286
SWIDTH 578 0
DWIDTH 5 0
BBX 6 12 0 -2
BITMAP
0510
0280
0000
1A80
74C0
A000
A180
A280
2B40
2700
6600
2800
ENDCHAR
STARTCHAR gbreve
ENCODING 287
SWIDTH 507 0
DWIDTH 5 0
BBX 5 9 0 -2
BITMAP
1A40
0000
2B40
A700
D600
DA40
BE00
2D00
7800
ENDCHAR
STARTCHAR Gdotaccent
ENCODING 288
SWIDTH 578 0
DWIDTH 5 0
BBX 5 12 0 -2
BITMAP
0100
0240
0000
1A80
74C0
A000
A180
A280
2B40
2700
6600
2800
ENDCHAR
STARTCHAR gdotaccent
ENCODING 289
SWIDTH 507 0
DWIDTH 5 0
BBX 5 9 0 -2
BITMAP
0600
0500
2B40
A700
D600
DA40
BE00
2D00
7800
ENDCHAR
STARTCHAR Gcommaaccent
ENCODING 290
SWIDTH 578 0
DWIDTH 5 0
BBX 5 9 0 -2
BITMAP
1A40
3580
B000
E140
E280
A340
7B40
0400
0800
ENDCHAR
STARTCHAR gcommaaccent
ENCODING 291
SWIDTH 507 0
DWIDTH 5 0
BBX 5 10 0 -2
BITMAP
0400
0900
0000
2B40
A700
D600
DA40
BE00
2D00
7800
ENDCHAR
STARTCHAR Hcircumflex
ENCODING 292
SWIDTH 665 0
DWIDTH 6 0
BBX 6 10 0 0
BITMAP
0090
0150
0000
1970
8D70
5EE0
18E0
28D0
25C0
35C0
ENDCHAR
STARTCHAR hcircumflex
ENCODING 293
SWIDTH 505 0
DWIDTH 5 0
BBX 6 9 -1 0
BITMAP
0200
0A00
0800
1C00
1F80
2980
3680
3650
72D0
ENDCHAR
STARTCHAR Hbar
ENCODING 294
SWIDTH 665 0
DWIDTH 6 0
BBX 7 7 0 0
BITMAP
1D70
9EB4
5EE0
18D0
28D0
25C0
35C0
ENDCHAR
STARTCHAR hbar
ENCODING 295
SWIDTH 505 0
DWIDTH 5 0
BBX 6 7 -1 0
BITMAP
0800
2E00
1F80
2980
3680
3650
72D0
ENDCHAR
STARTCHAR Itilde
ENCODING 296
SWIDTH 375 0
DWIDTH 3 0
BBX 5 9 0 0
BITMAP
0B40
0000
1D00
9D00
DC00
1C00
2800
3400
3400
ENDCHAR
STARTCHAR itilde
ENCODING 297
SWIDTH 267 0
DWIDTH 2 0
BBX 3 7 0 0
BITMAP
74
00
60
A0
D0
D4
E0
ENDCHAR
STARTCHAR Imacron
ENCODING 298
SWIDTH 375 0
DWIDTH 3 0
BBX 5 9 0 0
BITMAP
1A40
0000
1D00
9D00
DC00
1C00
2800
3400
3400
ENDCHAR
STARTCHAR imacron
ENCODING 299
SWIDTH 267 0
DWIDTH 2 0
BBX 3 7 0 0
BITMAP
A4
00
60
A0
D0
D4
E0
ENDCHAR
STARTCHAR Ibreve
ENCODING 300
SWIDTH 375 0
DWIDTH 3 0
BBX 5 10 0 0
BITMAP
1440
0A00
0000
1D00
9D00
DC00
1C00
2800
3400
3400
ENDCHAR
STARTCHAR ibreve
ENCODING 301
SWIDTH 267 0
DWIDTH 2 0
BBX 3 7 0 0
BITMAP
64
00
60
A0
D0
D4
E0
ENDCHAR
STARTCHAR Iogonek
ENCODING 302
SWIDTH 375 0
DWIDTH 3 0
BBX 4 12 0 -2
BITMAP
14
08
00
1D
9D
DC
1C
28
34
34
50
64
ENDCHAR
STARTCHAR iogonek
ENCODING 303
SWIDTH 267 0
DWIDTH 2 0
BBX 4 9 -1 -2
BITMAP
0C
04
18
28
34
35
38
50
24
ENDCHAR
STARTCHAR Idotaccent
ENCODING 304
SWIDTH 375 0
DWIDTH 3 0
BBX 4 10 0 0
BITMAP
01
06
00
1D
9D
DC
1C
28
34
34
ENDCHAR
STARTCHAR dotlessi
ENCODING 305
SWIDTH 267 0
DWIDTH 2 0
BBX 3 5 0 0
BITMAP
60
A0
D0
D4
E0
ENDCHAR
STARTCHAR IJ
ENCODING 306
SWIDTH 663 0
DWIDTH 6 0
BBX 6 9 0 -2
BITMAP
1D60
9DA0
DCA0
1CD0
29C0
35C0
3680
2340
1900
ENDCHAR
STARTCHAR ij
ENCODING 307
SWIDTH 507 0
DWIDTH 5 0
BBX 5 9 0 -2
BITMAP
3240
1100
6340
A700
D600
DA40
EE00
6D00
7800
ENDCHAR
STARTCHAR Jcircumflex
ENCODING 308
SWIDTH 536 0
DWIDTH 5 0
BBX 6 12 0 -2
BITMAP
0050
0150
0000
02C0
09C0
1A80
0340
0340
0700
6B00
8900
6400
ENDCHAR
STARTCHAR jcircumflex
ENCODING 309
SWIDTH 240 0
DWIDTH 2 0
BBX 5 9 -2 -2
BITMAP
0240
0440
0600
0A00
0D00
0D40
1D00
6800
B400
ENDCHAR
STARTCHAR Kcommaaccent
ENCODING 310
SWIDTH 601 0
DWIDTH 5 0
BBX 6 9 0 -2
BITMAP
1D50
8E40
5E40
19C0
2980
3680
3680
0400
0800
ENDCHAR
STARTCHAR kcommaaccent
ENCODING 311
SWIDTH 518 0
DWIDTH 5 0
BBX 6 9 -1 -2
BITMAP
0D00
1C00
1980
2F40
3A80
3690
72D0
0400
0800
ENDCHAR
STARTCHAR kgreenlandic
ENCODING 312
SWIDTH 518 0
DWIDTH 5 0
BBX 6 5 -1 0
BITMAP
1980
2F40
3A80
3690
72D0
ENDCHAR
STARTCHAR Lacute
ENCODING 313
SWIDTH 379 0
DWIDTH 3 0
BBX 6 13 0 -2
BITMAP
0140
0200
0100
0000
1D00
9D00
9C00
1C00
2800
3400
3400
0B90
01E0
ENDCHAR
STARTCHAR lacute
ENCODING 314
SWIDTH 267 0
DWIDTH 2 0
BBX 3 9 0 0
BITMAP
08
10
34
70
60
A0
D0
D4
E0
ENDCHAR
STARTCHAR Lcommaaccent
ENCODING 315
SWIDTH 379 0
DWIDTH 3 0
BBX 6 9 0 -2
BITMAP
1D00
9D00
9C00
1C00
2800
3400
3400
2B90
11E0
ENDCHAR
STARTCHAR lcommaaccent
ENCODING 316
SWIDTH 267 0
DWIDTH 2 0
BBX 3 9 0 -2
BITMAP
34
70
60
A0
D0
D4
E0
40
80
ENDCHAR
STARTCHAR Lcaron
ENCODING 317
SWIDTH 379 0
DWIDTH 3 0
BBX 6 13 0 -2
BITMAP
0040
0240
0100
0000
1D00
9D00
9C00
1C00
2800
3400
3400
0B90
01E0
ENDCHAR
STARTCHAR lcaron
ENCODING 318
SWIDTH 267 0
DWIDTH 2 0
BBX 4 7 0 0
BITMAP
16
75
70
A0
90
D4
E0
ENDCHAR
STARTCHAR Ldot
ENCODING 319
SWIDTH 605 0
DWIDTH 5 0
BBX 6 9 0 -2
BITMAP
1D00
9D00
9C00
1C40
29C0
3400
3400
0B90
01E0
ENDCHAR
STARTCHAR ldot
ENCODING 320
SWIDTH 353 0
DWIDTH 3 0
BBX 3 7 0 0
BITMAP
34
70
60
AC
D0
D0
E0
ENDCHAR
STARTCHAR Lslash
ENCODING 321
SWIDTH 392 0
DWIDTH 4 0
BBX 6 9 0 -2
BITMAP
1D00
9D00
9E00
2C00
2800
3400
3400
0B90
01E0
ENDCHAR
STARTCHAR lslash
ENCODING 322
SWIDTH 286 0
DWIDTH 3 0
BBX 3 7 0 0
BITMAP
34
74
B4
E0
D0
D4
A0
ENDCHAR
STARTCHAR Nacute
ENCODING 323
SWIDTH 702 0
DWIDTH 6 0
BBX 7 10 0 0
BITMAP
0020
0050
0000
2E24
9E20
DF30
5B60
26A0
22D0
21C0
ENDCHAR
STARTCHAR nacute
ENCODING 324
SWIDTH 505 0
DWIDTH 5 0
BBX 6 7 -1 0
BITMAP
0080
0100
1F80
2980
3680
3650
72D0
ENDCHAR
STARTCHAR Ncommaaccent
ENCODING 325
SWIDTH 668 0
DWIDTH 6 0
BBX 7 9 0 -2
BITMAP
2E24
9E20
DF30
5B60
26A0
22D0
21C0
0400
0800
ENDCHAR
STARTCHAR ncommaaccent
ENCODING 326
SWIDTH 505 0
DWIDTH 5 0
BBX 6 7 -1 -2
BITMAP
1F80
2980
3680
3650
72D0
0400
0800
ENDCHAR
STARTCHAR Ncaron
ENCODING 327
SWIDTH 668 0
DWIDTH 6 0
BBX 7 10 0 0
BITMAP
0054
0090
0000
2E24
9E20
DF30
5B60
26A0
22D0
21C0
ENDCHAR
STARTCHAR ncaron
ENCODING 328
SWIDTH 505 0
DWIDTH 5 0
BBX 6 7 -1 0
BITMAP
0640
0100
1F80
2980
3680
3650
72D0
ENDCHAR
STARTCHAR napostrophe
ENCODING 329
SWIDTH 505 0
DWIDTH 5 0
BBX 6 7 -1 0
BITMAP
2400
1000
1F80
2980
3680
3650
72D0
ENDCHAR
STARTCHAR Eng
ENCODING 330
SWIDTH 723 0
DWIDTH 7 0
BBX 7 10 0 -3
BITMAP
1B08
6B58
9B54
1EA4
19F0
14F0
24A0
0890
08C0
0640
ENDCHAR
STARTCHAR eng
ENCODING 331
SWIDTH 505 0
DWIDTH 5 0
BBX 5 7 -1 -2
BITMAP
1F80
2980
3680
3640
7740
1B00
1900
ENDCHAR
STARTCHAR Omacron
ENCODING 332
SWIDTH 665 0
DWIDTH 6 0
BBX 6 9 0 0
BITMAP
0690
0000
1690
5960
9C70
2860
3490
35C0
2E40
ENDCHAR
STARTCHAR omacron
ENCODING 333
SWIDTH 433 0
DWIDTH 4 0
BBX 5 7 0 0
BITMAP
2A00
0000
2900
A640
D500
D800
B400
ENDCHAR
STARTCHAR Obreve
ENCODING 334
SWIDTH 665 0
DWIDTH 6 0
BBX 6 10 0 0
BITMAP
0110
0290
0000
1690
5960
9C70
2860
3490
35C0
2E40
ENDCHAR
STARTCHAR obreve
ENCODING 335
SWIDTH 433 0
DWIDTH 4 0
BBX 5 7 0 0
BITMAP
2A00
0000
2900
A640
D500
D800
B400
ENDCHAR
STARTCHAR Ohungarumlaut
ENCODING 336
SWIDTH 665 0
DWIDTH 6 0
BBX 7 10 0 0
BITMAP
0094
0160
0000
1690
5960
9C70
2860
3490
35C0
2E40
ENDCHAR
STARTCHAR ohungarumlaut
ENCODING 337
SWIDTH 433 0
DWIDTH 4 0
BBX 5 7 0 0
BITMAP
0A40
1500
2900
A640
D500
D800
B400
ENDCHAR
STARTCHAR OE
ENCODING 338
SWIDTH 846 0
DWIDTH 8 0
BBX 8 7 0 0
BITMAP
16BF
5960
9C70
6878
34A0
35C0
2FF8
ENDCHAR
STARTCHAR oe
ENCODING 339
SWIDTH 663 0
DWIDTH 6 0
BBX 7 5 0 0
BITMAP
29A0
AB60
D790
DB14
B790
ENDCHAR
STARTCHAR Racute
ENCODING 340
SWIDTH 601 0
DWIDTH 5 0
BBX 5 10 0 0
BITMAP
0080
0140
0000
1A80
8D80
5E80
19C0
2980
3680
3680
ENDCHAR
STARTCHAR racute
ENCODING 341
SWIDTH 376 0
DWIDTH 3 0
BBX 5 7 -1 0
BITMAP
0240
0100
1E40
2900
3400
3400
7000
ENDCHAR
STARTCHAR Rcommaaccent
ENCODING 342
SWIDTH 601 0
DWIDTH 5 0
BBX 5 9 0 -2
BITMAP
1A80
8D80
5E80
19C0
2980
3680
3680
0400
0800
ENDCHAR
STARTCHAR rcommaaccent
ENCODING 343
SWIDTH 376 0
DWIDTH 3 0
BBX 5 7 -1 -2
BITMAP
1E40
2900
3400
3400
7000
1000
1400
ENDCHAR
STARTCHAR Rcaron
ENCODING 344
SWIDTH 601 0
DWIDTH 5 0
BBX 6 10 0 0
BITMAP
0150
0140
0000
1A80
8D80
5E80
19C0
2980
3680
3680
ENDCHAR
STARTCHAR rcaron
ENCODING 345
SWIDTH 376 0
DWIDTH 3 0
BBX 5 7 -1 0
BITMAP
0640
0400
1E40
2900
3400
3400
7000
ENDCHAR
STARTCHAR Sacute
ENCODING 346
SWIDTH 570 0
DWIDTH 5 0
BBX 5 10 0 0
BITMAP
0080
0240
0000
0A80
28C0
1D00
0B00
7380
9280
6A00
ENDCHAR
STARTCHAR sacute
ENCODING 347
SWIDTH 382 0
DWIDTH 3 0
BBX 5 7 -1 0
BITMAP
0240
0200
0A00
0E00
1A00
6B40
2D00
ENDCHAR
STARTCHAR Scircumflex
ENCODING 348
SWIDTH 570 0
DWIDTH 5 0
BBX 5 10 0 0
BITMAP
0140
0540
0000
0A80
28C0
1D00
0B00
7380
9280
6A00
ENDCHAR
STARTCHAR scircumflex
ENCODING 349
SWIDTH 382 0
DWIDTH 3 0
BBX 5 7 -1 0
BITMAP
0200
0500
0A00
0E00
1A00
6B40
2D00
ENDCHAR
STARTCHAR Scedilla
ENCODING 350
SWIDTH 570 0
DWIDTH 5 0
BBX 5 9 0 -2
BITMAP
0A80
28C0
1D00
0B00
6380
9280
6A00
0800
1800
ENDCHAR
STARTCHAR scedilla
ENCODING 351
SWIDTH 382 0
DWIDTH 3 0
BBX 5 8 -1 -2
BITMAP
0500
0E00
1A00
1A00
6B40
3D00
1800
1800
ENDCHAR
STARTCHAR Scaron
ENCODING 352
SWIDTH 570 0
DWIDTH 5 0
BBX 6 10 0 0
BITMAP
0150
0140
0000
0A80
28C0
1D00
0B00
7380
9280
6A00
ENDCHAR
STARTCHAR scaron
ENCODING 353
SWIDTH 369 0
DWIDTH 3 0
BBX 5 7 -1 0
BITMAP
0540
0500
0A00
0E00
1A00
6B40
2D00
ENDCHAR
STARTCHAR uni0162
ENCODING 354
SWIDTH 481 0
DWIDTH 4 0
BBX 7 9 0 -2
BITMAP
2FF4
9600
8A00
0D00
0D00
1C00
1800
1800
1800
ENDCHAR
STARTCHAR uni0163
ENCODING 355
SWIDTH 267 0
DWIDTH 2 0
BBX 3 9 0 -2
BITMAP
10
70
B0
A0
D0
D4
E0
90
90
ENDCHAR
STARTCHAR Tcaron
ENCODING 356
SWIDTH 481 0
DWIDTH 4 0
BBX 7 10 0 0
BITMAP
0180
0200
0000
2FF4
9600
8A00
0D00
0D00
1C00
1800
ENDCHAR
STARTCHAR tcaron
ENCODING 357
SWIDTH 267 0
DWIDTH 2 0
BBX 4 7 0 0
BITMAP
06
70
B0
A0
D0
D4
E0
ENDCHAR
STARTCHAR Tbar
ENCODING 358
SWIDTH 481 0
DWIDTH 4 0
BBX 7 7 0 0
BITMAP
2FF4
9700
CA00
4900
1E40
1C00
1800
ENDCHAR
STARTCHAR tbar
ENCODING 359
SWIDTH 267 0
DWIDTH 2 0
BBX 3 7 0 0
BITMAP
10
70
B0
A0
D0
D4
E0
ENDCHAR
STARTCHAR Utilde
ENCODING 360
SWIDTH 716 0
DWIDTH 6 0
BBX 7 9 0 0
BITMAP
01B4
0000
1A28
8D24
8C34
1C70
2860
28D0
1F80
ENDCHAR
STARTCHAR utilde
ENCODING 361
SWIDTH 505 0
DWIDTH 5 0
BBX 5 7 0 0
BITMAP
2E00
0000
6700
A700
DA00
DD40
EB40
ENDCHAR
STARTCHAR Umacron
ENCODING 362
SWIDTH 716 0
DWIDTH 6 0
BBX 7 9 0 0
BITMAP
01A4
0000
1A28
8D24
8C34
1C70
2860
28D0
1F80
ENDCHAR
STARTCHAR umacron
ENCODING 363
SWIDTH 505 0
DWIDTH 5 0
BBX 5 7 0 0
BITMAP
2A00
0000
6700
A700
DA00
DD40
EB40
ENDCHAR
STARTCHAR Ubreve
ENCODING 364
SWIDTH 716 0
DWIDTH 6 0
BBX 7 10 0 0
BITMAP
0114
01A0
0000
1A28
8D24
8C34
1C70
2860
28D0
1F80
ENDCHAR
STARTCHAR ubreve
ENCODING 365
SWIDTH 505 0
DWIDTH 5 0
BBX 5 7 0 0
BITMAP
2A00
0000
6700
A700
DA00
DD40
EB40
ENDCHAR
STARTCHAR Uring
ENCODING 366
SWIDTH 716 0
DWIDTH 6 0
BBX 7 10 0 0
BITMAP
0050
0040
0000
1A28
8D24
8C34
1C70
2860
28D0
1F80
ENDCHAR
STARTCHAR uring
ENCODING 367
SWIDTH 505 0
DWIDTH 5 0
BBX 5 7 0 0
BITMAP
0800
0400
6700
A700
DA00
DD40
EB40
ENDCHAR
STARTCHAR Uhungarumlaut
ENCODING 368
SWIDTH 716 0
DWIDTH 6 0
BBX 7 10 0 0
BITMAP
0058
0090
0000
1A28
8D24
8C34
1C70
2860
28D0
1F80
ENDCHAR
STARTCHAR uhungarumlaut
ENCODING 369
SWIDTH 505 0
DWIDTH 5 0
BBX 5 7 0 0
BITMAP
0A40
1500
6700
A700
DA00
DD40
EB40
ENDCHAR
STARTCHAR Uogonek
ENCODING 370
SWIDTH 716 0
DWIDTH 6 0
BBX 7 12 0 -2
BITMAP
0180
0080
0000
1A28
8D24
8C34
1C70
2860
28D0
1F80
0800
0600
ENDCHAR
STARTCHAR uogonek
ENCODING 371
SWIDTH 505 0
DWIDTH 5 0
BBX 5 7 0 -2
BITMAP
6700
A700
DA00
DD40
EA40
0800
0600
ENDCHAR
STARTCHAR Wcircumflex
ENCODING 372
SWIDTH 962 0
DWIDTH 9 0
BBX 9 10 0 0
BITMAP
000800
002500
000000
1A2840
9A3880
CA7840
0AA900
0A6900
0B6D00
0B2C00
ENDCHAR
STARTCHAR wcircumflex
ENCODING 373
SWIDTH 661 0
DWIDTH 6 0
BBX 6 7 0 0
BITMAP
0240
0440
6760
A720
DA20
DD90
EB40
ENDCHAR
STARTCHAR Ycircumflex
ENCODING 374
SWIDTH 620 0
DWIDTH 6 0
BBX 6 10 0 0
BITMAP
0050
0150
0000
1A10
9B20
C750
0380
0340
0740
0700
ENDCHAR
STARTCHAR ycircumflex
ENCODING 375
SWIDTH 505 0
DWIDTH 5 0
BBX 5 9 0 -2
BITMAP
0900
1100
6700
A700
DA00
DD40
ED00
6C00
7800
ENDCHAR
STARTCHAR Ydieresis
ENCODING 376
SWIDTH 620 0
DWIDTH 6 0
BBX 6 9 0 0
BITMAP
0160
0000
1A10
9B20
C750
0380
0340
0740
0700
ENDCHAR
STARTCHAR Zacute
ENCODING 377
SWIDTH 542 0
DWIDTH 5 0
BBX 5 10 0 0
BITMAP
0080
0240
0000
2B80
1740
0A00
1D00
2800
7540
BA40
ENDCHAR
STARTCHAR zacute
ENCODING 378
SWIDTH 428 0
DWIDTH 4 0
BBX 4 7 0 0
BITMAP
05
04
6E
5C
28
75
B9
ENDCHAR
STARTCHAR Zdotaccent
ENCODING 379
SWIDTH 530 0
DWIDTH 5 0
BBX 5 9 0 0
BITMAP
0600
0000
2B80
1740
0A00
1D00
2800
7540
BA40
ENDCHAR
STARTCHAR zdotaccent
ENCODING 380
SWIDTH 428 0
DWIDTH 4 0
BBX 4 7 0 0
BITMAP
0C
00
6E
5C
28
75
B9
ENDCHAR
STARTCHAR Zcaron
ENCODING 381
SWIDTH 542 0
DWIDTH 5 0
BBX 5 10 0 0
BITMAP
0180
0200
0000
2B80
1740
0A00
1D00
2800
7540
BA40
ENDCHAR
STARTCHAR zcaron
ENCODING 382
SWIDTH 428 0
DWIDTH 4 0
BBX 4 7 0 0
BITMAP
09
04
6E
5C
28
75
B9
ENDCHAR
STARTCHAR longs
ENCODING 383
SWIDTH 267 0
DWIDTH 2 0
BBX 6 9 -2 -2
BITMAP
02D0
0700
0B00
0A00
0D00
0D00
1C00
6800
B400
ENDCHAR
STARTCHAR uni018F
ENCODING 399
SWIDTH 544 0
DWIDTH 5 0
BBX 5 7 0 0
BITMAP
2E40
2780
0280
1B80
6340
9700
6800
ENDCHAR
STARTCHAR florin
ENCODING 402
SWIDTH 267 0
DWIDTH 2 0
BBX 6 9 -2 -2
BITMAP
01A0
0350
0B40
0A00
0D00
0C00
1C00
6400
A000
ENDCHAR
STARTCHAR Ohorn
ENCODING 416
SWIDTH 665 0
DWIDTH 6 0
BBX 7 9 0 0
BITMAP
0004
0014
16A0
5960
9C70
2860
34A0
35C0
2E40
ENDCHAR
STARTCHAR ohorn
ENCODING 417
SWIDTH 439 0
DWIDTH 4 0
BBX 5 6 0 0
BITMAP
0140
2A00
A500
D500
D800
B400
ENDCHAR
STARTCHAR Uhorn
ENCODING 431
SWIDTH 716 0
DWIDTH 6 0
BBX 8 9 0 0
BITMAP
0002
0005
1A28
8D24
8C34
1C70
2860
28D0
1F80
ENDCHAR
STARTCHAR uhorn
ENCODING 432
SWIDTH 505 0
DWIDTH 5 0
BBX 5 7 0 0
BITMAP
0040
0080
6700
A700
DA00
DD40
EB40
ENDCHAR
STARTCHAR uni01B7
ENCODING 439
SWIDTH 555 0
DWIDTH 5 0
BBX 5 7 0 0
BITMAP
2780
1700
0D00
0B40
0340
9340
6900
ENDCHAR
STARTCHAR uni01CD
ENCODING 461
SWIDTH 668 0
DWIDTH 6 0
BBX 8 11 0 -1
BITMAP
0015
0024
0000
0070
0270
6EA0
98E0
24D0
31C0
71C0
2000
ENDCHAR
STARTCHAR uni01CE
ENCODING 462
SWIDTH 526 0
DWIDTH 5 0
BBX 5 7 0 0
BITMAP
0640
0400
2B40
A700
D700
DA40
AB40
ENDCHAR
STARTCHAR uni01CF
ENCODING 463
SWIDTH 375 0
DWIDTH 3 0
BBX 5 10 0 0
BITMAP
0540
0600
0000
1D00
9D00
DC00
1C00
2800
3400
3400
ENDCHAR
STARTCHAR uni01D0
ENCODING 464
SWIDTH 267 0
DWIDTH 2 0
BBX 3 7 0 0
BITMAP
24
10
60
A0
D0
D4
E0
ENDCHAR
STARTCHAR uni01D1
ENCODING 465
SWIDTH 665 0
DWIDTH 6 0
BBX 6 10 0 0
BITMAP
0160
0080
0000
1690
5960
9C70
2860
3490
35C0
2E40
ENDCHAR
STARTCHAR uni01D2
ENCODING 466
SWIDTH 433 0
DWIDTH 4 0
BBX 5 7 0 0
BITMAP
1900
0400
2900
A640
D500
D800
B400
ENDCHAR
STARTCHAR uni01D3
ENCODING 467
SWIDTH 716 0
DWIDTH 6 0
BBX 7 10 0 0
BITMAP
0054
0050
0000
1A28
8D24
8C34
1C70
2860
28D0
1F80
ENDCHAR
STARTCHAR uni01D4
ENCODING 468
SWIDTH 505 0
DWIDTH 5 0
BBX 5 7 0 0
BITMAP
0900
0400
6700
A700
DA00
DD40
EB40
ENDCHAR
STARTCHAR uni01D5
ENCODING 469
SWIDTH 716 0
DWIDTH 6 0
BBX 7 10 0 0
BITMAP
01A4
0164
0000
1A28
8D24
8C34
1C70
2860
28D0
1F80
ENDCHAR
STARTCHAR uni01D6
ENCODING 470
SWIDTH 505 0
DWIDTH 5 0
BBX 5 9 0 0
BITMAP
1A40
0000
2600
0000
6700
A700
DA00
DD40
EB40
ENDCHAR
STARTCHAR uni01D7
ENCODING 471
SWIDTH 716 0
DWIDTH 6 0
BBX 7 10 0 0
BITMAP
0060
0398
0040
1A28
8D24
8C34
1C70
2860
28D0
1F80
ENDCHAR
STARTCHAR uni01D8
ENCODING 472
SWIDTH 505 0
DWIDTH 5 0
BBX 5 9 0 0
BITMAP
0200
0400
2600
0000
6700
A700
DA00
DD40
EB40
ENDCHAR
STARTCHAR uni01D9
ENCODING 473
SWIDTH 716 0
DWIDTH 6 0
BBX 7 10 0 0
BITMAP
0050
0298
0000
1A28
8D24
8C34
1C70
2860
28D0
1F80
ENDCHAR
STARTCHAR uni01DA
ENCODING 474
SWIDTH 505 0
DWIDTH 5 0
BBX 5 9 0 0
BITMAP
0540
0900
2600
0000
6700
A700
DA00
DD40
EB40
ENDCHAR
STARTCHAR uni01DB
ENCODING 475
SWIDTH 716 0
DWIDTH 6 0
BBX 7 10 0 0
BITMAP
0040
0358
0000
1A28
8D24
8C34
1C70
2860
28D0
1F80
ENDCHAR
STARTCHAR uni01DC
ENCODING 476
SWIDTH 505 0
DWIDTH 5 0
BBX 5 9 0 0
BITMAP
0800
0800
2600
0000
6700
A700
DA00
DD40
EB40
ENDCHAR
STARTCHAR uni01E4
ENCODING 484
SWIDTH 601 0
DWIDTH 5 0
BBX 5 9 0 -2
BITMAP
1A80
7480
A040
A6C0
A280
2B40
2700
6600
2800
ENDCHAR
STARTCHAR uni01E5
ENCODING 485
SWIDTH 507 0
DWIDTH 5 0
BBX 5 7 0 -2
BITMAP
2B40
A700
D600
DA40
BD00
6D00
7800
ENDCHAR
STARTCHAR Gcaron
ENCODING 486
SWIDTH 578 0
DWIDTH 5 0
BBX 6 12 0 -2
BITMAP
0150
0140
0000
1A80
74C0
A000
A180
A280
2B40
2700
6600
2800
ENDCHAR
STARTCHAR gcaron
ENCODING 487
SWIDTH 507 0
DWIDTH 5 0
BBX 5 9 0 -2
BITMAP
0640
0400
2B40
A700
D600
DA40
BE00
2D00
7800
ENDCHAR
STARTCHAR uni01E8
ENCODING 488
SWIDTH 601 0
DWIDTH 5 0
BBX 6 10 0 0
BITMAP
0060
0080
0000
1D50
8E40
5E40
19C0
2980
3680
3680
ENDCHAR
STARTCHAR uni01E9
ENCODING 489
SWIDTH 518 0
DWIDTH 5 0
BBX 6 10 -1 0
BITMAP
0150
0180
0000
0D00
1C00
1980
2F40
3A80
3690
72D0
ENDCHAR
STARTCHAR uni01EA
ENCODING 490
SWIDTH 665 0
DWIDTH 6 0
BBX 6 12 0 -2
BITMAP
0600
0200
0000
1690
5960
9C70
2860
3490
35C0
2E40
1400
1900
ENDCHAR
STARTCHAR uni01EB
ENCODING 491
SWIDTH 433 0
DWIDTH 4 0
BBX 5 7 0 -2
BITMAP
2900
A640
D500
D800
B400
8000
A000
ENDCHAR
STARTCHAR uni01EE
ENCODING 494
SWIDTH 525 0
DWIDTH 5 0
BBX 5 10 0 0
BITMAP
0580
0200
0000
2780
1700
0D00
0B40
0340
9340
6900
ENDCHAR
STARTCHAR uni01EF
ENCODING 495
SWIDTH 600 0
DWIDTH 5 0
BBX 4 10 0 -2
BITMAP
16
08
00
6D
58
34
25
29
A8
B0
ENDCHAR
STARTCHAR uni01F4
ENCODING 500
SWIDTH 578 0
DWIDTH 5 0
BBX 5 12 0 -2
BITMAP
0080
0140
0100
1A80
7480
A040
A180
A280
2B40
2700
6600
2800
ENDCHAR
STARTCHAR uni01F5
ENCODING 501
SWIDTH 507 0
DWIDTH 5 0
BBX 5 9 0 -2
BITMAP
0600
0400
2B40
A700
D600
DA40
BE00
2D00
7800
ENDCHAR
STARTCHAR Aringacute
ENCODING 506
SWIDTH 668 0
DWIDTH 6 0
BBX 7 11 0 -1
BITMAP
0008
0024
0034
01B0
0270
6EA0
98D0
24D0
31C0
71C0
2000
ENDCHAR
STARTCHAR aringacute
ENCODING 507
SWIDTH 526 0
DWIDTH 5 0
BBX 5 8 0 0
BITMAP
0200
0500
0500
2B40
A700
D700
DA40
AB40
ENDCHAR
STARTCHAR AEacute
ENCODING 508
SWIDTH 764 0
DWIDTH 7 0
BBX 8 11 0 -1
BITMAP
0009
0008
0000
00BA
0270
6DA0
D8F8
64D0
31C0
71FC
2000
ENDCHAR
STARTCHAR aeacute
ENCODING 509
SWIDTH 650 0
DWIDTH 6 0
BBX 6 7 0 0
BITMAP
0080
0140
2AA0
0760
6E40
DE10
A780
ENDCHAR
STARTCHAR Oslashacute
ENCODING 510
SWIDTH 658 0
DWIDTH 6 0
BBX 6 11 0 -1
BITMAP
0050
0080
0000
1680
5BA0
9DA0
69A0
35D0
36C0
2F00
0400
ENDCHAR
STARTCHAR oslashacute
ENCODING 511
SWIDTH 428 0
DWIDTH 4 0
BBX 5 8 -1 -1
BITMAP
0180
0100
0A80
2940
3A40
3A00
3D00
4000
ENDCHAR
STARTCHAR uni0200
ENCODING 512
SWIDTH 668 0
DWIDTH 6 0
BBX 6 11 0 -1
BITMAP
0160
0090
0000
0070
0270
6EA0
98E0
24D0
31C0
71C0
2000
ENDCHAR
STARTCHAR uni0201
ENCODING 513
SWIDTH 526 0
DWIDTH 5 0
BBX 5 7 0 0
BITMAP
2900
1500
2B40
A700
D700
DA40
AB40
ENDCHAR
STARTCHAR uni0202
ENCODING 514
SWIDTH 668 0
DWIDTH 6 0
BBX 7 11 0 -1
BITMAP
0068
0044
0000
0070
0270
6EA0
98E0
24D0
31C0
71C0
2000
ENDCHAR
STARTCHAR uni0203
ENCODING 515
SWIDTH 526 0
DWIDTH 5 0
BBX 5 7 0 0
BITMAP
1A00
1100
2B40
A700
D700
DA40
AB40
ENDCHAR
STARTCHAR uni0204
ENCODING 516
SWIDTH 459 0
DWIDTH 4 0
BBX 5 10 0 0
BITMAP
2600
0500
0000
0A40
2540
2800
2800
A000
E100
7900
ENDCHAR
STARTCHAR uni0205
ENCODING 517
SWIDTH 384 0
DWIDTH 3 0
BBX 4 7 0 0
BITMAP
98
14
28
A8
E4
D1
B4
ENDCHAR
STARTCHAR uni0206
ENCODING 518
SWIDTH 459 0
DWIDTH 4 0
BBX 5 10 0 0
BITMAP
0640
0440
0000
0A40
2540
2800
2800
A000
E100
7900
ENDCHAR
STARTCHAR uni0207
ENCODING 519
SWIDTH 384 0
DWIDTH 3 0
BBX 4 7 0 0
BITMAP
29
41
28
A8
E4
D1
B4
ENDCHAR
STARTCHAR uni0208
ENCODING 520
SWIDTH 375 0
DWIDTH 3 0
BBX 4 10 0 0
BITMAP
29
15
00
1D
9D
9C
1C
28
34
34
ENDCHAR
STARTCHAR uni0209
ENCODING 521
SWIDTH 267 0
DWIDTH 2 0
BBX 4 7 -1 0
BITMAP
98
14
18
28
34
35
38
ENDCHAR
STARTCHAR uni020A
ENCODING 522
SWIDTH 375 0
DWIDTH 3 0
BBX 5 10 0 0
BITMAP
0A00
1140
0000
1D00
9D00
DC00
1C00
2800
3400
3400
ENDCHAR
STARTCHAR uni020B
ENCODING 523
SWIDTH 267 0
DWIDTH 2 0
BBX 3 7 0 0
BITMAP
64
44
60
A0
D0
D4
E0
ENDCHAR
STARTCHAR uni020C
ENCODING 524
SWIDTH 665 0
DWIDTH 6 0
BBX 6 10 0 0
BITMAP
0940
0580
0000
1690
5960
9C70
2860
3490
35C0
2E40
ENDCHAR
STARTCHAR uni020D
ENCODING 525
SWIDTH 433 0
DWIDTH 4 0
BBX 5 7 0 0
BITMAP
9800
1400
2900
A640
D500
D800
B400
ENDCHAR
STARTCHAR uni020E
ENCODING 526
SWIDTH 665 0
DWIDTH 6 0
BBX 6 10 0 0
BITMAP
0190
0110
0000
1690
5960
9C70
2860
3490
35C0
2E40
ENDCHAR
STARTCHAR uni020F
ENCODING 527
SWIDTH 433 0
DWIDTH 4 0
BBX 5 7 0 0
BITMAP
2A00
1100
2900
A640
D500
D800
B400
ENDCHAR
STARTCHAR uni0210
ENCODING 528
SWIDTH 601 0
DWIDTH 5 0
BBX 5 10 0 0
BITMAP
2600
0500
0000
1A80
8D80
5E80
19C0
2980
3680
3680
ENDCHAR
STARTCHAR uni0211
ENCODING 529
SWIDTH 376 0
DWIDTH 3 0
BBX 5 7 -1 0
BITMAP
2900
1500
1E40
2900
3400
3400
7000
ENDCHAR
STARTCHAR uni0212
ENCODING 530
SWIDTH 601 0
DWIDTH 5 0
BBX 5 10 0 0
BITMAP
0640
0440
0000
1A80
8D80
5E80
19C0
2980
3680
3680
ENDCHAR
STARTCHAR uni0213
ENCODING 531
SWIDTH 376 0
DWIDTH 3 0
BBX 5 7 -1 0
BITMAP
0A40
0040
1E40
2900
3400
3400
7000
ENDCHAR
STARTCHAR uni0214
ENCODING 532
SWIDTH 716 0
DWIDTH 6 0
BBX 7 10 0 0
BITMAP
0680
0250
0000
1A28
8D24
8C34
1C70
2860
28D0
1F80
ENDCHAR
STARTCHAR uni0215
ENCODING 533
SWIDTH 505 0
DWIDTH 5 0
BBX 5 7 0 0
BITMAP
5800
2500
6700
A700
DA00
DD40
EB40
ENDCHAR
STARTCHAR uni0216
ENCODING 534
SWIDTH 716 0
DWIDTH 6 0
BBX 7 10 0 0
BITMAP
00A0
0114
0000
1A28
8D24
8C34
1C70
2860
28D0
1F80
ENDCHAR
STARTCHAR uni0217
ENCODING 535
SWIDTH 505 0
DWIDTH 5 0
BBX 5 7 0 0
BITMAP
2A00
1100
6700
A700
DA00
DD40
EB40
ENDCHAR
STARTCHAR Scommaaccent
ENCODING 536
SWIDTH 570 0
DWIDTH 5 0
BBX 5 9 0 -2
BITMAP
0A80
28C0
1D00
0B00
7380
9280
6A00
1000
1400
ENDCHAR
STARTCHAR scommaaccent
ENCODING 537
SWIDTH 382 0
DWIDTH 3 0
BBX 5 8 -1 -2
BITMAP
0500
0E00
1A00
1A00
5B40
2D00
1000
1400
ENDCHAR
STARTCHAR uni021A
ENCODING 538
SWIDTH 481 0
DWIDTH 4 0
BBX 7 9 0 -2
BITMAP
2FF4
9600
8A00
0D00
0D00
1C00
1800
1000
1400
ENDCHAR
STARTCHAR uni021B
ENCODING 539
SWIDTH 267 0
DWIDTH 2 0
BBX 3 9 0 -2
BITMAP
10
70
B0
A0
D0
D4
E0
40
80
ENDCHAR
STARTCHAR uni021E
ENCODING 542
SWIDTH 665 0
DWIDTH 6 0
BBX 6 10 0 0
BITMAP
0060
0080
0000
1970
8D70
5EE0
18E0
28D0
25C0
35C0
ENDCHAR
STARTCHAR uni021F
ENCODING 543
SWIDTH 600 0
DWIDTH 5 0
BBX 6 10 -1 0
BITMAP
0150
0080
0000
0900
1C00
1F80
2980
3680
3650
72D0
ENDCHAR
STARTCHAR uni0237
ENCODING 567
SWIDTH 240 0
DWIDTH 2 0
BBX 5 7 -2 -2
BITMAP
0600
0A00
0D00
0D40
1D00
6800
B400
ENDCHAR
STARTCHAR uni0259
ENCODING 601
SWIDTH 404 0
DWIDTH 4 0
BBX 4 5 0 0
BITMAP
7C
0D
2D
9C
A4
ENDCHAR
STARTCHAR uni0292
ENCODING 658
SWIDTH 442 0
DWIDTH 4 0
BBX 4 7 0 -2
BITMAP
6D
58
34
25
29
A8
B0
ENDCHAR
STARTCHAR uni02BB
ENCODING 699
SWIDTH 241 0
DWIDTH 2 0
BBX 2 2 1 5
BITMAP
80
90
ENDCHAR
STARTCHAR uni02BC
ENCODING 700
SWIDTH 228 0
DWIDTH 2 0
BBX 2 2 1 5
BITMAP
90
40
ENDCHAR
STARTCHAR circumflex
ENCODING 710
SWIDTH 293 0
DWIDTH 3 0
BBX 3 2 0 6
BITMAP
24
54
ENDCHAR
STARTCHAR caron
ENCODING 711
SWIDTH 294 0
DWIDTH 3 0
BBX 2 2 1 6
BITMAP
A0
90
ENDCHAR
STARTCHAR uni02C9
ENCODING 713
SWIDTH 421 0
DWIDTH 4 0
BBX 3 1 1 6
BITMAP
A8
ENDCHAR
STARTCHAR uni02CA
ENCODING 714
SWIDTH 256 0
DWIDTH 2 0
BBX 2 2 1 6
BITMAP
50
80
ENDCHAR
STARTCHAR uni02CB
ENCODING 715
SWIDTH 274 0
DWIDTH 2 0
BBX 2 2 1 6
BITMAP
50
20
ENDCHAR
STARTCHAR breve
ENCODING 728
SWIDTH 431 0
DWIDTH 4 0
BBX 4 2 0 5
BITMAP
51
29
ENDCHAR
STARTCHAR dotaccent
ENCODING 729
SWIDTH 250 0
DWIDTH 2 0
BBX 2 2 0 6
BITMAP
60
60
ENDCHAR
STARTCHAR ring
ENCODING 730
SWIDTH 156 0
DWIDTH 1 0
BBX 2 2 0 5
BITMAP
50
40
ENDCHAR
STARTCHAR ogonek
ENCODING 731
SWIDTH 291 0
DWIDTH 3 0
BBX 2 2 0 -2
BITMAP
50
60
ENDCHAR
STARTCHAR tilde
ENCODING 732
SWIDTH 403 0
DWIDTH 4 0
BBX 3 1 1 6
BITMAP
B8
ENDCHAR
STARTCHAR hungarumlaut
ENCODING 733
SWIDTH 436 0
DWIDTH 4 0
BBX 3 2 1 6
BITMAP
58
90
ENDCHAR
STARTCHAR gravecomb
ENCODING 768
SWIDTH 0 0
DWIDTH 0 0
BBX 2 2 -2 6
BITMAP
50
20
ENDCHAR
STARTCHAR acutecomb
ENCODING 769
SWIDTH 0 0
DWIDTH 0 0
BBX 2 2 -2 6
BITMAP
20
80
ENDCHAR
STARTCHAR uni0302
ENCODING 770
SWIDTH 0 0
DWIDTH 0 0
BBX 2 2 -2 6
BITMAP
20
A0
ENDCHAR
STARTCHAR tildecomb
ENCODING 771
SWIDTH 0 0
DWIDTH 0 0
BBX 3 1 -3 6
BITMAP
78
ENDCHAR
STARTCHAR uni0304
ENCODING 772
SWIDTH 0 0
DWIDTH 0 0
BBX 4 1 -3 6
BITMAP
69
ENDCHAR
STARTCHAR uni0306
ENCODING 774
SWIDTH 0 0
DWIDTH 0 0
BBX 3 2 -3 5
BITMAP
44
64
ENDCHAR
STARTCHAR uni0307
ENCODING 775
SWIDTH 0 0
DWIDTH 0 0
BBX 2 2 -1 6
BITMAP
80
D0
ENDCHAR
STARTCHAR uni0308
ENCODING 776
SWIDTH 0 0
DWIDTH 0 0
BBX 3 1 -3 6
BITMAP
54
ENDCHAR
STARTCHAR hookabovecomb
ENCODING 777
SWIDTH 0 0
DWIDTH 0 0
BBX 2 2 -2 5
BITMAP
50
50
ENDCHAR
STARTCHAR uni030A
ENCODING 778
SWIDTH 0 0
DWIDTH 0 0
BBX 1 2 -1 5
BITMAP
80
80
ENDCHAR
STARTCHAR uni030B
ENCODING 779
SWIDTH 0 0
DWIDTH 0 0
BBX 4 2 -3 6
BITMAP
29
58
ENDCHAR
STARTCHAR uni030C
ENCODING 780
SWIDTH 0 0
DWIDTH 0 0
BBX 2 2 -2 6
BITMAP
A0
80
ENDCHAR
STARTCHAR uni030F
ENCODING 783
SWIDTH 0 0
DWIDTH 0 0
BBX 3 2 -3 6
BITMAP
94
58
ENDCHAR
STARTCHAR uni0311
ENCODING 785
SWIDTH 0 0
DWIDTH 0 0
BBX 3 2 -3 5
BITMAP
68
44
ENDCHAR
STARTCHAR uni031B
ENCODING 795
SWIDTH 0 0
DWIDTH 0 0
BBX 1 2 -1 5
BITMAP
80
80
ENDCHAR
STARTCHAR dotbelowcomb
ENCODING 803
SWIDTH 0 0
DWIDTH 0 0
BBX 2 2 -2 -2
BITMAP
50
60
ENDCHAR
STARTCHAR uni0324
ENCODING 804
SWIDTH 0 0
DWIDTH 0 0
BBX 3 1 -4 -2
BITMAP
94
ENDCHAR
STARTCHAR uni0326
ENCODING 806
SWIDTH 0 0
DWIDTH 0 0
BBX 1 2 -2 -3
BITMAP
80
40
ENDCHAR
STARTCHAR uni0327
ENCODING 807
SWIDTH 0 0
DWIDTH 0 0
BBX 2 3 -3 -2
BITMAP
40
60
50
ENDCHAR
STARTCHAR uni0328
ENCODING 808
SWIDTH 0 0
DWIDTH 0 0
BBX 2 2 -3 -2
BITMAP
80
90
ENDCHAR
STARTCHAR uni032E
ENCODING 814
SWIDTH 0 0
DWIDTH 0 0
BBX 3 2 -4 -2
BITMAP
44
54
ENDCHAR
STARTCHAR uni0331
ENCODING 817
SWIDTH 0 0
DWIDTH 0 0
BBX 3 1 -4 -2
BITMAP
A8
ENDCHAR
STARTCHAR uni0335
ENCODING 821
SWIDTH 0 0
DWIDTH 0 0
BBX 4 1 -4 2
BITMAP
55
ENDCHAR
STARTCHAR uni0394
ENCODING 916
SWIDTH 619 0
DWIDTH 6 0
BBX 6 7 0 0
BITMAP
0280
0680
08C0
14C0
2090
9090
AA90
ENDCHAR
STARTCHAR uni03A9
ENCODING 937
SWIDTH 745 0
DWIDTH 7 0
BBX 7 7 0 0
BITMAP
0690
1820
2024
2020
2020
2080
65A0
ENDCHAR
STARTCHAR uni03BC
ENCODING 956
SWIDTH 505 0
DWIDTH 5 0
BBX 6 7 -1 -2
BITMAP
1880
29C0
3680
3790
7A90
6000
4000
ENDCHAR
STARTCHAR pi
ENCODING 960
SWIDTH 530 0
DWIDTH 5 0
BBX 5 5 0 0
BITMAP
AA80
5200
8500
8900
8500
ENDCHAR
STARTCHAR uni0400
ENCODING 1024
SWIDTH 459 0
DWIDTH 4 0
BBX 5 10 0 0
BITMAP
0500
0100
0000
0A40
2540
2800
2800
A000
E100
7900
ENDCHAR
STARTCHAR uni0401
ENCODING 1025
SWIDTH 459 0
DWIDTH 4 0
BBX 5 9 0 0
BITMAP
0940
0000
0A40
2540
2800
2800
A000
E100
7900
ENDCHAR
STARTCHAR uni0402
ENCODING 1026
SWIDTH 725 0
DWIDTH 7 0
BBX 7 9 0 -2
BITMAP
2FF4
9700
4B90
0970
0D60
1CA0
1CD0
01C0
0740
ENDCHAR
STARTCHAR uni0403
ENCODING 1027
SWIDTH 400 0
DWIDTH 4 0
BBX 6 10 0 0
BITMAP
0090
0080
0000
2FE0
9D00
DC00
5C00
2800
2800
3400
ENDCHAR
STARTCHAR uni0404
ENCODING 1028
SWIDTH 497 0
DWIDTH 4 0
BBX 5 7 0 0
BITMAP
1980
3440
7900
A000
A000
B040
7E00
ENDCHAR
STARTCHAR uni0405
ENCODING 1029
SWIDTH 570 0
DWIDTH 5 0
BBX 5 7 0 0
BITMAP
0A80
28C0
1D00
0B00
7380
9280
6A00
ENDCHAR
STARTCHAR uni0406
ENCODING 1030
SWIDTH 374 0
DWIDTH 3 0
BBX 4 7 0 0
BITMAP
1E
9D
8C
5C
28
28
34
ENDCHAR
STARTCHAR uni0407
ENCODING 1031
SWIDTH 375 0
DWIDTH 3 0
BBX 5 9 0 0
BITMAP
0540
0000
1D00
9D00
DC00
1C00
2800
3400
3400
ENDCHAR
STARTCHAR uni0408
ENCODING 1032
SWIDTH 536 0
DWIDTH 5 0
BBX 5 9 0 -2
BITMAP
02C0
09C0
1A80
0340
0340
0700
6B00
8900
6400
ENDCHAR
STARTCHAR uni0409
ENCODING 1033
SWIDTH 817 0
DWIDTH 7 0
BBX 8 8 -1 -1
BITMAP
00B0
0260
05A9
0C97
28D7
31CA
71ED
2000
ENDCHAR
STARTCHAR uni040A
ENCODING 1034
SWIDTH 931 0
DWIDTH 8 0
BBX 8 7 0 0
BITMAP
1D70
8D70
5EE9
18D7
28D7
25C6
35ED
ENDCHAR
STARTCHAR uni040B
ENCODING 1035
SWIDTH 745 0
DWIDTH 7 0
BBX 7 7 0 0
BITMAP
2FF4
9700
4B90
0970
0D60
1CA0
1CA0
ENDCHAR
STARTCHAR uni040C
ENCODING 1036
SWIDTH 635 0
DWIDTH 6 0
BBX 6 10 0 0
BITMAP
0090
0080
0000
2EB0
9E50
5E40
19C0
2980
2680
3680
ENDCHAR
STARTCHAR uni040D
ENCODING 1037
SWIDTH 705 0
DWIDTH 6 0
BBX 7 10 0 0
BITMAP
0140
0080
0000
1E38
9D74
8DF0
5EB0
2EA0
2C90
34D0
ENDCHAR
STARTCHAR uni040E
ENCODING 1038
SWIDTH 644 0
DWIDTH 6 0
BBX 7 10 0 0
BITMAP
0150
0190
0000
1A14
9720
8750
03C0
0280
0600
0E00
ENDCHAR
STARTCHAR uni040F
ENCODING 1039
SWIDTH 665 0
DWIDTH 6 0
BBX 6 10 0 -3
BITMAP
1E30
9D70
9CA0
1CA0
28D0
25C0
3AC0
0800
0D00
0900
ENDCHAR
STARTCHAR uni0410
ENCODING 1040
SWIDTH 668 0
DWIDTH 6 0
BBX 6 8 0 -1
BITMAP
0070
0270
6EA0
98E0
24D0
31C0
71C0
2000
ENDCHAR
STARTCHAR uni0411
ENCODING 1041
SWIDTH 638 0
DWIDTH 6 0
BBX 6 7 0 0
BITMAP
6FE0
8D00
5E80
28D0
24D0
35C0
3B40
ENDCHAR
STARTCHAR uni0412
ENCODING 1042
SWIDTH 641 0
DWIDTH 6 0
BBX 6 7 0 0
BITMAP
2A80
9D80
5E80
18D0
28D0
28C0
3B80
ENDCHAR
STARTCHAR uni0413
ENCODING 1043
SWIDTH 400 0
DWIDTH 4 0
BBX 6 7 0 0
BITMAP
2FE0
9D00
DC00
5C00
2800
2800
3400
ENDCHAR
STARTCHAR uni0414
ENCODING 1044
SWIDTH 669 0
DWIDTH 6 0
BBX 6 7 0 0
BITMAP
2A80
9D60
9C60
2CA0
78A0
75C0
AB40
ENDCHAR
STARTCHAR uni0415
ENCODING 1045
SWIDTH 459 0
DWIDTH 4 0
BBX 5 7 0 0
BITMAP
0A40
2540
2800
2800
A000
E100
7900
ENDCHAR
STARTCHAR uni0416
ENCODING 1046
SWIDTH 777 0
DWIDTH 7 0
BBX 8 7 0 0
BITMAP
359D
1AA4
0B90
3BB0
6734
A670
DA70
ENDCHAR
STARTCHAR uni0417
ENCODING 1047
SWIDTH 525 0
DWIDTH 5 0
BBX 5 7 0 0
BITMAP
1B40
0340
1E00
0700
4740
C700
A900
ENDCHAR
STARTCHAR uni0418
ENCODING 1048
SWIDTH 705 0
DWIDTH 6 0
BBX 7 7 0 0
BITMAP
1E38
9D74
8DF0
5EB0
2EA0
2C90
34D0
ENDCHAR
STARTCHAR uni0419
ENCODING 1049
SWIDTH 705 0
DWIDTH 6 0
BBX 7 10 0 0
BITMAP
0210
0190
0000
1E38
9D74
8DF0
5EB0
2EA0
2C90
34D0
ENDCHAR
STARTCHAR uni041A
ENCODING 1050
SWIDTH 635 0
DWIDTH 6 0
BBX 6 7 0 0
BITMAP
2EB0
9E50
5E40
19C0
2980
2680
3680
ENDCHAR
STARTCHAR uni041B
ENCODING 1051
SWIDTH 549 0
DWIDTH 5 0
BBX 6 8 -1 -1
BITMAP
00B0
0270
05A0
0CA0
28D0
35C0
71C0
2000
ENDCHAR
STARTCHAR uni041C
ENCODING 1052
SWIDTH 787 0
DWIDTH 7 0
BBX 7 7 0 0
BITMAP
0B1C
272C
5B3C
1B68
17A8
2764
6734
ENDCHAR
STARTCHAR uni041D
ENCODING 1053
SWIDTH 665 0
DWIDTH 6 0
BBX 6 7 0 0
BITMAP
1970
8D70
5EE0
18E0
28D0
25C0
35C0
ENDCHAR
STARTCHAR uni041E
ENCODING 1054
SWIDTH 665 0
DWIDTH 6 0
BBX 6 7 0 0
BITMAP
1690
5960
9C70
2860
3490
35C0
2E40
ENDCHAR
STARTCHAR uni041F
ENCODING 1055
SWIDTH 688 0
DWIDTH 6 0
BBX 7 7 0 0
BITMAP
2FFC
9D70
8CA0
1CA0
28D0
29C0
35C0
ENDCHAR
STARTCHAR uni0420
ENCODING 1056
SWIDTH 573 0
DWIDTH 5 0
BBX 6 7 0 0
BITMAP
1580
9D90
DCD0
1D80
2900
3400
3400
ENDCHAR
STARTCHAR uni0421
ENCODING 1057
SWIDTH 497 0
DWIDTH 4 0
BBX 5 7 0 0
BITMAP
1A40
3480
7000
A000
A000
B040
7E00
ENDCHAR
STARTCHAR uni0422
ENCODING 1058
SWIDTH 481 0
DWIDTH 4 0
BBX 7 7 0 0
BITMAP
2FF4
9600
8A00
0D00
0D00
1C00
1800
ENDCHAR
STARTCHAR uni0423
ENCODING 1059
SWIDTH 644 0
DWIDTH 6 0
BBX 7 7 0 0
BITMAP
1A14
9720
8750
03C0
0280
0600
0E00
ENDCHAR
STARTCHAR uni0424
ENCODING 1060
SWIDTH 786 0
DWIDTH 7 0
BBX 7 8 0 0
BITMAP
1680
2280
1BA0
6358
9728
A734
2A90
0A00
ENDCHAR
STARTCHAR uni0425
ENCODING 1061
SWIDTH 620 0
DWIDTH 6 0
BBX 6 7 0 0
BITMAP
1A50
9B80
C740
0740
0740
0A80
12C0
ENDCHAR
STARTCHAR uni0426
ENCODING 1062
SWIDTH 692 0
DWIDTH 6 0
BBX 7 8 0 -1
BITMAP
1A30
9D70
9CA0
1CA0
28D0
29C0
3AC0
01F4
ENDCHAR
STARTCHAR uni0427
ENCODING 1063
SWIDTH 695 0
DWIDTH 6 0
BBX 7 7 0 0
BITMAP
1E34
9D34
8C70
0EE0
05A0
00D0
00D0
ENDCHAR
STARTCHAR uni0428
ENCODING 1064
SWIDTH 906 0
DWIDTH 8 0
BBX 9 7 0 0
BITMAP
1E7340
9DA700
9C9700
1CDA00
29C900
25CD00
3BEC00
ENDCHAR
STARTCHAR uni0429
ENCODING 1065
SWIDTH 934 0
DWIDTH 8 0
BBX 9 8 0 -1
BITMAP
1E7340
9DA700
9CD700
1CDA00
29C900
25CD00
3B9C00
01AF40
ENDCHAR
STARTCHAR uni042A
ENCODING 1066
SWIDTH 714 0
DWIDTH 6 0
BBX 6 7 0 0
BITMAP
2B00
8700
8B90
0970
0D70
0D60
1ED0
ENDCHAR
STARTCHAR uni042B
ENCODING 1067
SWIDTH 909 0
DWIDTH 8 0
BBX 9 7 0 0
BITMAP
1D0340
8D0300
5E8700
18DA00
28DA00
28CD00
3B9C00
ENDCHAR
STARTCHAR uni042C
ENCODING 1068
SWIDTH 640 0
DWIDTH 6 0
BBX 6 7 0 0
BITMAP
1D00
8D00
5E80
18D0
28D0
28C0
3B80
ENDCHAR
STARTCHAR uni042D
ENCODING 1069
SWIDTH 544 0
DWIDTH 5 0
BBX 5 7 0 0
BITMAP
2F40
0280
1B80
0380
4740
8B00
A800
ENDCHAR
STARTCHAR uni042E
ENCODING 1070
SWIDTH 946 0
DWIDTH 9 0
BBX 9 7 0 0
BITMAP
2D2A00
9D6340
5ED240
19C340
29C700
25CA00
34A800
ENDCHAR
STARTCHAR uni042F
ENCODING 1071
SWIDTH 630 0
DWIDTH 6 0
BBX 7 7 0 0
BITMAP
1AA0
32A4
3340
2B40
6700
A700
DA00
ENDCHAR
STARTCHAR uni0430
ENCODING 1072
SWIDTH 526 0
DWIDTH 5 0
BBX 5 5 0 0
BITMAP
2B40
A700
D700
DA40
AB40
ENDCHAR
STARTCHAR uni0431
ENCODING 1073
SWIDTH 430 0
DWIDTH 4 0
BBX 5 7 0 0
BITMAP
1FC0
1900
2900
A500
D500
D800
B400
ENDCHAR
STARTCHAR uni0432
ENCODING 1074
SWIDTH 449 0
DWIDTH 4 0
BBX 5 7 0 0
BITMAP
1900
3600
6500
AE40
D500
D900
B800
ENDCHAR
STARTCHAR uni0433
ENCODING 1075
SWIDTH 375 0
DWIDTH 3 0
BBX 4 5 0 0
BITMAP
78
5C
74
D1
F8
ENDCHAR
STARTCHAR uni0434
ENCODING 1076
SWIDTH 507 0
DWIDTH 5 0
BBX 5 7 0 -2
BITMAP
2B40
A700
D600
DA40
BE00
2D00
7800
ENDCHAR
STARTCHAR uni0435
ENCODING 1077
SWIDTH 384 0
DWIDTH 3 0
BBX 4 5 0 0
BITMAP
28
A8
E4
D1
B4
ENDCHAR
STARTCHAR uni0436
ENCODING 1078
SWIDTH 882 0
DWIDTH 8 0
BBX 8 5 0 0
BITMAP
659A
5AA5
1FB0
6771
A729
ENDCHAR
STARTCHAR uni0437
ENCODING 1079
SWIDTH 498 0
DWIDTH 4 0
BBX 5 7 0 -2
BITMAP
2D00
4A00
4900
2840
1D00
6C00
7800
ENDCHAR
STARTCHAR uni0438
ENCODING 1080
SWIDTH 505 0
DWIDTH 5 0
BBX 5 5 0 0
BITMAP
6700
A700
DA00
DD40
EB40
ENDCHAR
STARTCHAR uni0439
ENCODING 1081
SWIDTH 505 0
DWIDTH 5 0
BBX 5 7 0 0
BITMAP
2100
1900
6700
A700
DA00
DD40
EB40
ENDCHAR
STARTCHAR uni043A
ENCODING 1082
SWIDTH 501 0
DWIDTH 5 0
BBX 6 5 -1 0
BITMAP
1990
2A00
3B40
3650
72D0
ENDCHAR
STARTCHAR uni043B
ENCODING 1083
SWIDTH 558 0
DWIDTH 5 0
BBX 7 5 -1 0
BITMAP
02D0
05D0
05C0
55C4
25E0
ENDCHAR
STARTCHAR uni043C
ENCODING 1084
SWIDTH 827 0
DWIDTH 7 0
BBX 9 5 -1 0
BITMAP
028B00
068E00
05AA00
55ED40
25CB40
ENDCHAR
STARTCHAR uni043D
ENCODING 1085
SWIDTH 507 0
DWIDTH 5 0
BBX 6 5 -1 0
BITMAP
18C0
29C0
3A80
3690
72D0
ENDCHAR
STARTCHAR uni043E
ENCODING 1086
SWIDTH 439 0
DWIDTH 4 0
BBX 5 5 0 0
BITMAP
2900
A640
D500
D800
B400
ENDCHAR
STARTCHAR uni043F
ENCODING 1087
SWIDTH 505 0
DWIDTH 5 0
BBX 6 5 -1 0
BITMAP
1F80
2980
3680
3650
72D0
ENDCHAR
STARTCHAR uni0440
ENCODING 1088
SWIDTH 468 0
DWIDTH 4 0
BBX 5 9 -1 -3
BITMAP
1400
2E80
29C0
35C0
3680
7E00
7000
A000
4000
ENDCHAR
STARTCHAR uni0441
ENCODING 1089
SWIDTH 384 0
DWIDTH 3 0
BBX 4 5 0 0
BITMAP
28
A4
D0
D1
B8
ENDCHAR
STARTCHAR uni0442
ENCODING 1090
SWIDTH 752 0
DWIDTH 7 0
BBX 8 5 -1 0
BITMAP
1FAC
29DC
369C
3769
735D
ENDCHAR
STARTCHAR uni0443
ENCODING 1091
SWIDTH 486 0
DWIDTH 4 0
BBX 5 7 0 -2
BITMAP
6700
A700
DA00
DD40
ED00
6C00
7800
ENDCHAR
STARTCHAR uni0444
ENCODING 1092
SWIDTH 738 0
DWIDTH 7 0
BBX 7 9 0 -2
BITMAP
0240
0340
2BB0
A734
D630
DA70
BFD0
0C00
1C00
ENDCHAR
STARTCHAR uni0445
ENCODING 1093
SWIDTH 522 0
DWIDTH 5 0
BBX 5 6 0 0
BITMAP
0140
2940
4E00
4D00
1D40
5740
ENDCHAR
STARTCHAR uni0446
ENCODING 1094
SWIDTH 535 0
DWIDTH 5 0
BBX 5 7 0 -2
BITMAP
6700
A700
DA00
DD00
EB40
2E00
1400
ENDCHAR
STARTCHAR uni0447
ENCODING 1095
SWIDTH 505 0
DWIDTH 5 0
BBX 5 5 0 0
BITMAP
6700
A700
AE00
5940
0B40
ENDCHAR
STARTCHAR uni0448
ENCODING 1096
SWIDTH 752 0
DWIDTH 7 0
BBX 7 5 0 0
BITMAP
6734
A770
DA70
DDA4
EBB4
ENDCHAR
STARTCHAR uni0449
ENCODING 1097
SWIDTH 782 0
DWIDTH 7 0
BBX 7 7 0 -2
BITMAP
6734
A770
DA70
DDA0
EBB4
02F0
0240
ENDCHAR
STARTCHAR uni044A
ENCODING 1098
SWIDTH 448 0
DWIDTH 4 0
BBX 4 5 0 0
BITMAP
A4
79
9A
D9
B8
ENDCHAR
STARTCHAR uni044B
ENCODING 1099
SWIDTH 655 0
DWIDTH 6 0
BBX 6 5 0 0
BITMAP
6190
ADD0
D9C0
D9D0
B5D0
ENDCHAR
STARTCHAR uni044C
ENCODING 1100
SWIDTH 448 0
DWIDTH 4 0
BBX 4 5 0 0
BITMAP
60
A8
EA
D9
B8
ENDCHAR
STARTCHAR uni044D
ENCODING 1101
SWIDTH 413 0
DWIDTH 4 0
BBX 5 5 -1 0
BITMAP
1F00
1340
0B40
5700
6900
ENDCHAR
STARTCHAR uni044E
ENCODING 1102
SWIDTH 675 0
DWIDTH 6 0
BBX 8 5 -1 0
BITMAP
18A4
2999
3B54
3764
72E0
ENDCHAR
STARTCHAR uni044F
ENCODING 1103
SWIDTH 527 0
DWIDTH 5 0
BBX 6 5 -1 0
BITMAP
0AD0
19C0
0AC0
6A90
25D0
ENDCHAR
STARTCHAR uni0450
ENCODING 1104
SWIDTH 384 0
DWIDTH 3 0
BBX 4 8 0 0
BITMAP
14
04
00
28
A8
E4
D1
B4
ENDCHAR
STARTCHAR uni0451
ENCODING 1105
SWIDTH 384 0
DWIDTH 3 0
BBX 4 7 0 0
BITMAP
25
00
28
A8
E4
D1
B4
ENDCHAR
STARTCHAR uni0452
ENCODING 1106
SWIDTH 491 0
DWIDTH 4 0
BBX 6 9 -1 -2
BITMAP
0C00
2E00
2F40
2A80
3680
3750
7740
1B00
1D00
ENDCHAR
STARTCHAR uni0453
ENCODING 1107
SWIDTH 375 0
DWIDTH 3 0
BBX 4 8 0 0
BITMAP
05
08
00
78
5C
74
D1
F8
ENDCHAR
STARTCHAR uni0454
ENCODING 1108
SWIDTH 384 0
DWIDTH 3 0
BBX 4 5 0 0
BITMAP
28
A4
E4
D1
B8
ENDCHAR
STARTCHAR uni0455
ENCODING 1109
SWIDTH 382 0
DWIDTH 3 0
BBX 5 6 -1 0
BITMAP
0500
0E00
1A00
1A00
5B40
2D00
ENDCHAR
STARTCHAR uni0456
ENCODING 1110
SWIDTH 267 0
DWIDTH 2 0
BBX 3 7 0 0
BITMAP
30
10
60
A0
D0
D4
E0
ENDCHAR
STARTCHAR uni0457
ENCODING 1111
SWIDTH 267 0
DWIDTH 2 0
BBX 3 7 0 0
BITMAP
98
00
60
A0
D0
D4
E0
ENDCHAR
STARTCHAR uni0458
ENCODING 1112
SWIDTH 240 0
DWIDTH 2 0
BBX 5 9 -2 -2
BITMAP
0300
0100
0600
0A00
0D00
0D40
1D00
6800
B400
ENDCHAR
STARTCHAR uni0459
ENCODING 1113
SWIDTH 745 0
DWIDTH 7 0
BBX 8 5 -1 0
BITMAP
02D0
05E4
05DD
59CC
24F4
ENDCHAR
STARTCHAR uni045A
ENCODING 1114
SWIDTH 694 0
DWIDTH 6 0
BBX 7 5 -1 0
BITMAP
18C0
29D0
3AA8
3658
71E0
ENDCHAR
STARTCHAR uni045B
ENCODING 1115
SWIDTH 505 0
DWIDTH 5 0
BBX 6 7 -1 0
BITMAP
0C00
2E00
2800
2F40
3A80
3650
72D0
ENDCHAR
STARTCHAR uni045C
ENCODING 1116
SWIDTH 501 0
DWIDTH 5 0
BBX 6 8 -1 0
BITMAP
0080
0100
0000
1990
2A00
3B40
3650
72D0
ENDCHAR
STARTCHAR uni045D
ENCODING 1117
SWIDTH 505 0
DWIDTH 5 0
BBX 5 8 0 0
BITMAP
1400
0800
0000
6700
A700
DA00
DD40
EB40
ENDCHAR
STARTCHAR uni045E
ENCODING 1118
SWIDTH 486 0
DWIDTH 4 0
BBX 5 9 0 -2
BITMAP
2100
1900
6700
A700
DA00
DD40
ED00
6C00
7800
ENDCHAR
STARTCHAR uni045F
ENCODING 1119
SWIDTH 505 0
DWIDTH 5 0
BBX 5 7 0 -2
BITMAP
6700
A700
DA00
DD40
EB40
1400
1800
ENDCHAR
STARTCHAR uni0462
ENCODING 1122
SWIDTH 659 0
DWIDTH 6 0
BBX 6 7 0 0
BITMAP
0D00
6FD0
9E80
18D0
28D0
35C0
3B40
ENDCHAR
STARTCHAR uni0463
ENCODING 1123
SWIDTH 692 0
DWIDTH 6 0
BBX 7 5 -1 0
BITMAP
1F80
29E4
369C
3668
71E0
ENDCHAR
STARTCHAR uni046A
ENCODING 1130
SWIDTH 834 0
DWIDTH 8 0
BBX 7 7 0 0
BITMAP
0BA8
2354
52A0
1AE8
2A9C
3698
7368
ENDCHAR
STARTCHAR uni046B
ENCODING 1131
SWIDTH 750 0
DWIDTH 7 0
BBX 6 5 0 0
BITMAP
2B90
6780
2B90
3760
66A0
ENDCHAR
STARTCHAR uni0472
ENCODING 1138
SWIDTH 665 0
DWIDTH 6 0
BBX 6 7 0 0
BITMAP
1690
5960
9C70
2AA0
3490
35C0
2E40
ENDCHAR
STARTCHAR uni0473
ENCODING 1139
SWIDTH 439 0
DWIDTH 4 0
BBX 5 5 0 0
BITMAP
2900
A640
E900
D800
B400
ENDCHAR
STARTCHAR uni0474
ENCODING 1140
SWIDTH 668 0
DWIDTH 6 0
BBX 7 7 0 0
BITMAP
1A24
9A60
CA90
0A80
0A40
0B00
0A00
ENDCHAR
STARTCHAR uni0475
ENCODING 1141
SWIDTH 414 0
DWIDTH 4 0
BBX 4 5 0 0
BITMAP
65
A2
D5
D8
B4
ENDCHAR
STARTCHAR uni0490
ENCODING 1168
SWIDTH 431 0
DWIDTH 4 0
BBX 6 8 0 0
BITMAP
0020
2FE0
9D00
9C00
5C00
2800
3400
3400
ENDCHAR
STARTCHAR uni0491
ENCODING 1169
SWIDTH 342 0
DWIDTH 3 0
BBX 5 6 -1 0
BITMAP
0140
1E00
2800
3400
3400
7000
ENDCHAR
STARTCHAR uni0492
ENCODING 1170
SWIDTH 400 0
DWIDTH 4 0
BBX 6 7 0 0
BITMAP
2FE0
9D00
9C00
2D00
2800
2400
3400
ENDCHAR
STARTCHAR uni0493
ENCODING 1171
SWIDTH 375 0
DWIDTH 3 0
BBX 4 5 0 0
BITMAP
78
5C
B8
D1
F4
ENDCHAR
STARTCHAR uni0494
ENCODING 1172
SWIDTH 665 0
DWIDTH 6 0
BBX 6 7 0 0
BITMAP
2FE0
9D00
9E80
1C90
28A0
28D0
3B40
ENDCHAR
STARTCHAR uni0495
ENCODING 1173
SWIDTH 486 0
DWIDTH 4 0
BBX 6 7 -1 -2
BITMAP
1FC0
2F40
3640
3750
7740
1B00
1D00
ENDCHAR
STARTCHAR uni0496
ENCODING 1174
SWIDTH 777 0
DWIDTH 7 0
BBX 8 10 0 -3
BITMAP
359D
1AA4
0B90
3BB0
6734
A670
DA70
0050
0070
0020
ENDCHAR
STARTCHAR uni0497
ENCODING 1175
SWIDTH 882 0
DWIDTH 8 0
BBX 8 7 0 -2
BITMAP
659A
5AA5
1FB0
6771
A729
0014
0018
ENDCHAR
STARTCHAR uni0498
ENCODING 1176
SWIDTH 525 0
DWIDTH 5 0
BBX 5 10 0 -3
BITMAP
1B40
0340
1E00
0700
4740
C700
A800
2400
2800
1400
ENDCHAR
STARTCHAR uni0499
ENCODING 1177
SWIDTH 498 0
DWIDTH 4 0
BBX 5 9 0 -4
BITMAP
2D00
4A00
4900
2840
1D00
6C00
7800
2000
3000
ENDCHAR
STARTCHAR uni049A
ENCODING 1178
SWIDTH 635 0
DWIDTH 6 0
BBX 6 10 0 -3
BITMAP
1A70
5E50
9E00
5E40
29C0
2A80
3680
0240
0180
0040
ENDCHAR
STARTCHAR uni049B
ENCODING 1179
SWIDTH 501 0
DWIDTH 5 0
BBX 6 7 -1 -2
BITMAP
1990
2A00
3B40
3650
72D0
0140
0180
ENDCHAR
STARTCHAR uni049C
ENCODING 1180
SWIDTH 721 0
DWIDTH 6 0
BBX 7 7 0 0
BITMAP
2D28
9D94
9F80
19D0
28D0
25C0
35C0
ENDCHAR
STARTCHAR uni049D
ENCODING 1181
SWIDTH 551 0
DWIDTH 5 0
BBX 6 5 -1 0
BITMAP
18A0
2A00
3EC0
39D0
71E0
ENDCHAR
STARTCHAR uni04A0
ENCODING 1184
SWIDTH 691 0
DWIDTH 6 0
BBX 7 7 0 0
BITMAP
6F74
8780
4B80
0D90
0CD0
1CC0
18C0
ENDCHAR
STARTCHAR uni04A1
ENCODING 1185
SWIDTH 676 0
DWIDTH 6 0
BBX 7 5 0 0
BITMAP
6DA0
CE50
5EC0
19C4
28E0
ENDCHAR
STARTCHAR uni04A2
ENCODING 1186
SWIDTH 665 0
DWIDTH 6 0
BBX 7 9 0 -2
BITMAP
1D70
8D70
5EE0
18D0
28D0
25C0
35D0
0074
0010
ENDCHAR
STARTCHAR uni04A3
ENCODING 1187
SWIDTH 507 0
DWIDTH 5 0
BBX 6 7 -1 -2
BITMAP
18C0
29C0
3A80
3690
72D0
0140
0180
ENDCHAR
STARTCHAR uni04A4
ENCODING 1188
SWIDTH 689 0
DWIDTH 6 0
BBX 8 7 0 0
BITMAP
2D7F
8D70
5EE0
18E0
28D0
25C0
35C0
ENDCHAR
STARTCHAR uni04A5
ENCODING 1189
SWIDTH 681 0
DWIDTH 6 0
BBX 7 5 -1 0
BITMAP
18FC
29C0
3A80
3690
72D0
ENDCHAR
STARTCHAR uni04AA
ENCODING 1194
SWIDTH 497 0
DWIDTH 4 0
BBX 5 10 0 -3
BITMAP
1A40
3480
7000
A000
A000
A040
7A00
2800
1C00
0800
ENDCHAR
STARTCHAR uni04AB
ENCODING 1195
SWIDTH 384 0
DWIDTH 3 0
BBX 4 7 0 -2
BITMAP
28
A4
D0
D1
B8
20
20
ENDCHAR
STARTCHAR uni04AE
ENCODING 1198
SWIDTH 620 0
DWIDTH 6 0
BBX 6 7 0 0
BITMAP
1A10
9B20
C750
0380
0340
0740
0700
ENDCHAR
STARTCHAR uni04AF
ENCODING 1199
SWIDTH 480 0
DWIDTH 4 0
BBX 4 8 0 -3
BITMAP
63
71
71
75
34
70
70
50
ENDCHAR
STARTCHAR uni04B0
ENCODING 1200
SWIDTH 620 0
DWIDTH 6 0
BBX 6 7 0 0
BITMAP
1A10
9B20
C750
0380
07C0
0740
0700
ENDCHAR
STARTCHAR uni04B1
ENCODING 1201
SWIDTH 480 0
DWIDTH 4 0
BBX 4 8 0 -3
BITMAP
63
71
71
75
BC
70
70
50
ENDCHAR
STARTCHAR uni04B6
ENCODING 1206
SWIDTH 695 0
DWIDTH 6 0
BBX 7 8 0 -1
BITMAP
1E34
9D34
8C70
0EE0
05A0
00D0
00D0
0078
ENDCHAR
STARTCHAR uni04B7
ENCODING 1207
SWIDTH 505 0
DWIDTH 5 0
BBX 5 7 0 -2
BITMAP
6700
A700
AE00
5940
0B40
0500
0600
ENDCHAR
STARTCHAR uni04B8
ENCODING 1208
SWIDTH 715 0
DWIDTH 6 0
BBX 7 7 0 0
BITMAP
1A28
9D34
8D74
0EB0
06A0
00A0
00D0
ENDCHAR
STARTCHAR uni04B9
ENCODING 1209
SWIDTH 545 0
DWIDTH 5 0
BBX 5 5 0 0
BITMAP
6340
A740
BF00
2B40
0740
ENDCHAR
STARTCHAR uni04BA
ENCODING 1210
SWIDTH 679 0
DWIDTH 6 0
BBX 6 7 0 0
BITMAP
1A00
9D00
9D40
5EE0
28A0
28D0
34D0
ENDCHAR
STARTCHAR uni04BB
ENCODING 1211
SWIDTH 505 0
DWIDTH 5 0
BBX 6 7 -1 0
BITMAP
0900
1C00
1F80
2980
3680
3650
72D0
ENDCHAR
STARTCHAR uni04C0
ENCODING 1216
SWIDTH 375 0
DWIDTH 3 0
BBX 4 7 0 0
BITMAP
1D
9D
DC
1C
28
34
34
ENDCHAR
STARTCHAR uni04C1
ENCODING 1217
SWIDTH 777 0
DWIDTH 7 0
BBX 8 10 0 0
BITMAP
0210
0290
0000
359D
1AA4
0B90
3BB0
6734
A670
DA70
ENDCHAR
STARTCHAR uni04C2
ENCODING 1218
SWIDTH 882 0
DWIDTH 8 0
BBX 8 7 0 0
BITMAP
0210
0290
659A
5AA5
1FB0
6771
A729
ENDCHAR
STARTCHAR uni04CB
ENCODING 1227
SWIDTH 695 0
DWIDTH 6 0
BBX 7 8 0 -1
BITMAP
1A34
5D34
8C70
4DA0
05A0
00D0
01D0
1E00
ENDCHAR
STARTCHAR uni04CC
ENCODING 1228
SWIDTH 516 0
DWIDTH 5 0
BBX 5 7 0 -2
BITMAP
7300
A700
BE00
1A40
0600
7C00
5000
ENDCHAR
STARTCHAR uni04CF
ENCODING 1231
SWIDTH 267 0
DWIDTH 2 0
BBX 3 7 0 0
BITMAP
34
70
60
A0
D0
D4
E0
ENDCHAR
STARTCHAR uni04D0
ENCODING 1232
SWIDTH 668 0
DWIDTH 6 0
BBX 7 11 0 -1
BITMAP
0054
0064
0000
0070
0270
6EA0
98E0
24D0
31C0
71C0
2000
ENDCHAR
STARTCHAR uni04D1
ENCODING 1233
SWIDTH 526 0
DWIDTH 5 0
BBX 5 7 0 0
BITMAP
1440
1900
2B40
A700
D700
DA40
AB40
ENDCHAR
STARTCHAR uni04D2
ENCODING 1234
SWIDTH 668 0
DWIDTH 6 0
BBX 7 10 0 -1
BITMAP
0058
0000
0070
0270
6EA0
98E0
24D0
31C0
71C0
2000
ENDCHAR
STARTCHAR uni04D3
ENCODING 1235
SWIDTH 526 0
DWIDTH 5 0
BBX 5 7 0 0
BITMAP
0540
0000
2B40
A700
D700
DA40
AB40
ENDCHAR
STARTCHAR uni04D4
ENCODING 1236
SWIDTH 764 0
DWIDTH 7 0
BBX 8 8 0 -1
BITMAP
00BA
0270
6DA0
D8F8
64D0
31C0
71FC
2000
ENDCHAR
STARTCHAR uni04D5
ENCODING 1237
SWIDTH 650 0
DWIDTH 6 0
BBX 6 5 0 0
BITMAP
2AA0
0760
6E40
DE10
A780
ENDCHAR
STARTCHAR uni04D6
ENCODING 1238
SWIDTH 459 0
DWIDTH 4 0
BBX 5 10 0 0
BITMAP
0840
0A40
0000
0A40
2540
2800
2800
A000
E100
7900
ENDCHAR
STARTCHAR uni04D7
ENCODING 1239
SWIDTH 384 0
DWIDTH 3 0
BBX 4 7 0 0
BITMAP
21
29
28
A8
E4
D1
B4
ENDCHAR
STARTCHAR uni04D8
ENCODING 1240
SWIDTH 544 0
DWIDTH 5 0
BBX 5 7 0 0
BITMAP
2E40
2780
0280
1B80
6340
9700
6800
ENDCHAR
STARTCHAR uni04D9
ENCODING 1241
SWIDTH 404 0
DWIDTH 4 0
BBX 4 5 0 0
BITMAP
7C
0D
2D
9C
A4
ENDCHAR
STARTCHAR uni04DC
ENCODING 1244
SWIDTH 777 0
DWIDTH 7 0
BBX 8 9 0 0
BITMAP
0160
0000
359D
1AA4
0B90
3BB0
6734
A670
DA70
ENDCHAR
STARTCHAR uni04DD
ENCODING 1245
SWIDTH 882 0
DWIDTH 8 0
BBX 8 7 0 0
BITMAP
0160
0000
659A
5AA5
1FB0
6771
A729
ENDCHAR
STARTCHAR uni04DE
ENCODING 1246
SWIDTH 525 0
DWIDTH 5 0
BBX 5 9 0 0
BITMAP
0940
0000
1B40
0340
1E00
0700
4740
C700
A900
ENDCHAR
STARTCHAR uni04DF
ENCODING 1247
SWIDTH 498 0
DWIDTH 4 0
BBX 5 9 0 -2
BITMAP
1600
0000
2D00
4A00
4900
2840
1D00
6C00
7800
ENDCHAR
STARTCHAR uni04E2
ENCODING 1250
SWIDTH 705 0
DWIDTH 6 0
BBX 7 9 0 0
BITMAP
02A0
0000
1E38
9D74
8DF0
5EB0
2EA0
2C90
34D0
ENDCHAR
STARTCHAR uni04E3
ENCODING 1251
SWIDTH 505 0
DWIDTH 5 0
BBX 5 7 0 0
BITMAP
2A00
0000
6700
A700
DA00
DD40
EB40
ENDCHAR
STARTCHAR uni04E4
ENCODING 1252
SWIDTH 705 0
DWIDTH 6 0
BBX 7 9 0 0
BITMAP
0160
0000
1E38
9D74
8DF0
5EB0
2EA0
2C90
34D0
ENDCHAR
STARTCHAR uni04E5
ENCODING 1253
SWIDTH 505 0
DWIDTH 5 0
BBX 5 7 0 0
BITMAP
1600
0000
6700
A700
DA00
DD40
EB40
ENDCHAR
STARTCHAR uni04E6
ENCODING 1254
SWIDTH 665 0
DWIDTH 6 0
BBX 6 9 0 0
BITMAP
0250
0000
1690
5960
9C70
2860
3490
35C0
2E40
ENDCHAR
STARTCHAR uni04E7
ENCODING 1255
SWIDTH 439 0
DWIDTH 4 0
BBX 5 7 0 0
BITMAP
1600
0000
2900
A640
D500
D800
B400
ENDCHAR
STARTCHAR uni04E8
ENCODING 1256
SWIDTH 665 0
DWIDTH 6 0
BBX 6 7 0 0
BITMAP
1690
5960
9C70
2AA0
3490
35C0
2E40
ENDCHAR
STARTCHAR uni04E9
ENCODING 1257
SWIDTH 439 0
DWIDTH 4 0
BBX 5 5 0 0
BITMAP
2900
A640
FE00
D800
B400
ENDCHAR
STARTCHAR uni04EE
ENCODING 1262
SWIDTH 644 0
DWIDTH 6 0
BBX 7 9 0 0
BITMAP
01A0
0000
1A14
9720
8750
03C0
0280
0600
0E00
ENDCHAR
STARTCHAR uni04EF
ENCODING 1263
SWIDTH 486 0
DWIDTH 4 0
BBX 5 9 0 -2
BITMAP
2A00
0000
6700
A700
DA00
DD40
ED00
6C00
7800
ENDCHAR
STARTCHAR uni04F0
ENCODING 1264
SWIDTH 644 0
DWIDTH 6 0
BBX 7 9 0 0
BITMAP
0160
0000
1A14
9720
8750
03C0
0280
0600
0E00
ENDCHAR
STARTCHAR uni04F1
ENCODING 1265
SWIDTH 486 0
DWIDTH 4 0
BBX 5 9 0 -2
BITMAP
1600
0000
6700
A700
DA00
DD40
ED00
6C00
7800
ENDCHAR
STARTCHAR uni04F2
ENCODING 1266
SWIDTH 644 0
DWIDTH 6 0
BBX 7 10 0 0
BITMAP
0094
0160
0000
1A14
9720
8750
03C0
0280
0600
0E00
ENDCHAR
STARTCHAR uni04F3
ENCODING 1267
SWIDTH 486 0
DWIDTH 4 0
BBX 5 10 0 -2
BITMAP
0A40
1600
0000
6700
A700
DA00
DD40
ED00
6C00
7800
ENDCHAR
STARTCHAR uni04F4
ENCODING 1268
SWIDTH 695 0
DWIDTH 6 0
BBX 7 9 0 0
BITMAP
0160
0000
1E34
9D34
8C70
0EE0
05A0
00D0
00D0
ENDCHAR
STARTCHAR uni04F5
ENCODING 1269
SWIDTH 505 0
DWIDTH 5 0
BBX 5 7 0 0
BITMAP
1600
0000
6700
A700
AE00
5940
0B40
ENDCHAR
STARTCHAR uni04F6
ENCODING 1270
SWIDTH 442 0
DWIDTH 4 0
BBX 6 8 0 -1
BITMAP
2FE0
9D00
DC00
1C00
2800
2800
3400
0E00
ENDCHAR
STARTCHAR uni04F7
ENCODING 1271
SWIDTH 375 0
DWIDTH 3 0
BBX 4 7 0 -2
BITMAP
78
5C
74
D1
F8
50
60
ENDCHAR
STARTCHAR uni04F8
ENCODING 1272
SWIDTH 909 0
DWIDTH 8 0
BBX 9 9 0 0
BITMAP
005800
000000
1D0340
8D0300
5E8700
18DA00
28DA00
28CD00
3B9C00
ENDCHAR
STARTCHAR uni04F9
ENCODING 1273
SWIDTH 642 0
DWIDTH 6 0
BBX 6 7 0 0
BITMAP
0940
0000
6190
ADC0
D9C0
D990
B5D0
ENDCHAR
STARTCHAR uni051A
ENCODING 1306
SWIDTH 665 0
DWIDTH 6 0
BBX 6 8 0 -1
BITMAP
1690
5960
9C70
28A0
3490
3AC0
2F40
01D0
ENDCHAR
STARTCHAR uni051B
ENCODING 1307
SWIDTH 486 0
DWIDTH 4 0
BBX 5 8 0 -3
BITMAP
2B40
A700
D600
DA00
BD00
0D00
1C00
0400
ENDCHAR
STARTCHAR uni051C
ENCODING 1308
SWIDTH 962 0
DWIDTH 9 0
BBX 9 7 0 0
BITMAP
1A2840
9A3880
CA7840
0AA900
0A6900
0B6D00
0B2C00
ENDCHAR
STARTCHAR uni051D
ENCODING 1309
SWIDTH 661 0
DWIDTH 6 0
BBX 6 5 0 0
BITMAP
6760
A720
DA20
DD90
EB40
ENDCHAR
STARTCHAR uni0524
ENCODING 1316
SWIDTH 742 0
DWIDTH 7 0
BBX 7 9 0 -2
BITMAP
2FFC
9D70
9CA0
1CA0
28D0
29C0
35C0
00B4
0010
ENDCHAR
STARTCHAR uni0525
ENCODING 1317
SWIDTH 505 0
DWIDTH 5 0
BBX 6 7 -1 -2
BITMAP
1F80
2980
3680
3650
72D0
0140
0180
ENDCHAR
STARTCHAR uni1E0C
ENCODING 7692
SWIDTH 663 0
DWIDTH 6 0
BBX 6 9 0 -2
BITMAP
1580
9DA0
9C60
1CA0
2890
35C0
3B40
0400
1C00
ENDCHAR
STARTCHAR uni1E0D
ENCODING 7693
SWIDTH 525 0
DWIDTH 5 0
BBX 5 9 0 -2
BITMAP
0280
0340
2B40
A700
D700
DA40
AB40
1000
3000
ENDCHAR
STARTCHAR uni1E20
ENCODING 7712
SWIDTH 578 0
DWIDTH 5 0
BBX 5 11 0 -2
BITMAP
0A80
0000
1A80
74C0
A000
A180
A280
2B40
2700
6600
2800
ENDCHAR
STARTCHAR uni1E21
ENCODING 7713
SWIDTH 507 0
DWIDTH 5 0
BBX 5 9 0 -2
BITMAP
1A40
0000
2B40
A700
D600
DA40
BE00
2D00
7800
ENDCHAR
STARTCHAR uni1E24
ENCODING 7716
SWIDTH 665 0
DWIDTH 6 0
BBX 6 9 0 -2
BITMAP
1970
8D70
5EE0
18E0
28D0
25C0
35C0
0400
0D00
ENDCHAR
STARTCHAR uni1E25
ENCODING 7717
SWIDTH 505 0
DWIDTH 5 0
BBX 6 9 -1 -2
BITMAP
0900
1C00
1F80
2980
3680
3650
72D0
0400
0C00
ENDCHAR
STARTCHAR uni1E2A
ENCODING 7722
SWIDTH 665 0
DWIDTH 6 0
BBX 6 9 0 -2
BITMAP
1970
8D70
5EE0
18E0
28D0
25C0
35C0
1100
1900
ENDCHAR
STARTCHAR uni1E2B
ENCODING 7723
SWIDTH 505 0
DWIDTH 5 0
BBX 6 9 -1 -2
BITMAP
0900
1C00
1F80
2980
3680
3650
72D0
1100
1900
ENDCHAR
STARTCHAR uni1E36
ENCODING 7734
SWIDTH 379 0
DWIDTH 3 0
BBX 6 9 0 -2
BITMAP
1D00
9D00
9C00
1C00
2800
3400
3400
2B90
71E0
ENDCHAR
STARTCHAR uni1E37
ENCODING 7735
SWIDTH 293 0
DWIDTH 3 0
BBX 3 9 0 -2
BITMAP
34
34
70
70
A0
A4
B4
40
D0
ENDCHAR
STARTCHAR uni1E42
ENCODING 7746
SWIDTH 787 0
DWIDTH 7 0
BBX 7 9 0 -2
BITMAP
0B1C
272C
5B3C
1B68
17A8
2764
6734
0500
0A00
ENDCHAR
STARTCHAR uni1E43
ENCODING 7747
SWIDTH 752 0
DWIDTH 7 0
BBX 8 7 -1 -2
BITMAP
1FAC
29DC
369C
3769
735D
0100
0700
ENDCHAR
STARTCHAR uni1E44
ENCODING 7748
SWIDTH 668 0
DWIDTH 6 0
BBX 7 10 0 0
BITMAP
0040
0090
0000
2E24
9E20
DF30
5B60
26A0
22D0
21C0
ENDCHAR
STARTCHAR uni1E45
ENCODING 7749
SWIDTH 505 0
DWIDTH 5 0
BBX 6 7 -1 0
BITMAP
0240
0100
1F80
2980
3680
3650
72D0
ENDCHAR
STARTCHAR uni1E46
ENCODING 7750
SWIDTH 668 0
DWIDTH 6 0
BBX 7 9 0 -2
BITMAP
2E24
9E20
DF30
5B60
26A0
22D0
21C0
0400
0900
ENDCHAR
STARTCHAR uni1E47
ENCODING 7751
SWIDTH 505 0
DWIDTH 5 0
BBX 6 7 -1 -2
BITMAP
1F80
2980
3680
3650
72D0
0400
0C00
ENDCHAR
STARTCHAR uni1E5A
ENCODING 7770
SWIDTH 601 0
DWIDTH 5 0
BBX 5 9 0 -2
BITMAP
1A80
8D80
5E80
19C0
2980
3680
3680
0400
0C00
ENDCHAR
STARTCHAR uni1E5B
ENCODING 7771
SWIDTH 376 0
DWIDTH 3 0
BBX 5 7 -1 -2
BITMAP
1E40
2900
3400
3400
7000
1000
6000
ENDCHAR
STARTCHAR uni1E60
ENCODING 7776
SWIDTH 570 0
DWIDTH 5 0
BBX 5 10 0 0
BITMAP
0100
0240
0000
0A80
28C0
1D00
0B00
7380
9280
6A00
ENDCHAR
STARTCHAR uni1E61
ENCODING 7777
SWIDTH 382 0
DWIDTH 3 0
BBX 4 7 0 0
BITMAP
18
04
24
38
68
AD
B4
ENDCHAR
STARTCHAR uni1E62
ENCODING 7778
SWIDTH 570 0
DWIDTH 5 0
BBX 5 9 0 -2
BITMAP
0A80
28C0
1D00
0B00
7380
9280
6A00
1000
2400
ENDCHAR
STARTCHAR uni1E63
ENCODING 7779
SWIDTH 382 0
DWIDTH 3 0
BBX 5 8 -1 -2
BITMAP
0500
0E00
1A00
1A00
5B40
2D00
1000
3400
ENDCHAR
STARTCHAR uni1E6C
ENCODING 7788
SWIDTH 481 0
DWIDTH 4 0
BBX 7 9 0 -2
BITMAP
2FF4
9600
8A00
0D00
0D00
1C00
1800
1400
2400
ENDCHAR
STARTCHAR uni1E6D
ENCODING 7789
SWIDTH 267 0
DWIDTH 2 0
BBX 4 9 -1 -2
BITMAP
04
1C
2C
28
34
35
38
10
60
ENDCHAR
STARTCHAR Wgrave
ENCODING 7808
SWIDTH 962 0
DWIDTH 9 0
BBX 9 10 0 0
BITMAP
002400
001400
000000
1A2840
9A3880
CA7840
0AA900
0A6900
0B6D00
0B2C00
ENDCHAR
STARTCHAR wgrave
ENCODING 7809
SWIDTH 661 0
DWIDTH 6 0
BBX 6 7 0 0
BITMAP
0900
0500
6760
A720
DA20
DD90
EB40
ENDCHAR
STARTCHAR Wacute
ENCODING 7810
SWIDTH 962 0
DWIDTH 9 0
BBX 9 10 0 0
BITMAP
000900
000800
000000
1A2840
9A3880
CA7840
0AA900
0A6900
0B6D00
0B2C00
ENDCHAR
STARTCHAR wacute
ENCODING 7811
SWIDTH 661 0
DWIDTH 6 0
BBX 6 7 0 0
BITMAP
0140
0100
6760
A720
DA20
DD90
EB40
ENDCHAR
STARTCHAR Wdieresis
ENCODING 7812
SWIDTH 962 0
DWIDTH 9 0
BBX 9 9 0 0
BITMAP
002500
000000
1A2840
9A3880
CA7840
0AA900
0A6900
0B6D00
0B2C00
ENDCHAR
STARTCHAR wdieresis
ENCODING 7813
SWIDTH 661 0
DWIDTH 6 0
BBX 6 7 0 0
BITMAP
0980
0000
6760
A720
DA20
DD90
EB40
ENDCHAR
STARTCHAR uni1E8E
ENCODING 7822
SWIDTH 620 0
DWIDTH 6 0
BBX 6 10 0 0
BITMAP
0040
0090
0000
1A10
9B20
C750
0380
0340
0740
0700
ENDCHAR
STARTCHAR uni1E8F
ENCODING 7823
SWIDTH 505 0
DWIDTH 5 0
BBX 5 9 0 -2
BITMAP
0D00
0400
6700
A700
DA00
DD40
ED00
6C00
7800
ENDCHAR
STARTCHAR uni1E92
ENCODING 7826
SWIDTH 542 0
DWIDTH 5 0
BBX 5 12 0 -2
BITMAP
0080
0240
0000
2B80
1740
0A00
1D00
2800
7540
BA40
1400
2400
ENDCHAR
STARTCHAR uni1E93
ENCODING 7827
SWIDTH 428 0
DWIDTH 4 0
BBX 4 7 0 -2
BITMAP
6E
5C
28
75
B9
50
60
ENDCHAR
STARTCHAR uni1E97
ENCODING 7831
SWIDTH 267 0
DWIDTH 2 0
BBX 3 8 0 0
BITMAP
58
10
70
B0
A0
D0
D4
E0
ENDCHAR
STARTCHAR uni1E9E
ENCODING 7838
SWIDTH 559 0
DWIDTH 5 0
BBX 6 9 -1 -2
BITMAP
06B0
0DA0
0DD0
1DC0
28D0
28D0
3A80
3000
7000
ENDCHAR
STARTCHAR uni1EA0
ENCODING 7840
SWIDTH 668 0
DWIDTH 6 0
BBX 6 9 0 -2
BITMAP
0070
0270
6EA0
98E0
24D0
31C0
71C0
2100
0700
ENDCHAR
STARTCHAR uni1EA1
ENCODING 7841
SWIDTH 526 0
DWIDTH 5 0
BBX 5 7 0 -2
BITMAP
2B40
A700
D700
DA40
AB40
1000
3000
ENDCHAR
STARTCHAR uni1EA2
ENCODING 7842
SWIDTH 668 0
DWIDTH 6 0
BBX 7 11 0 -1
BITMAP
0014
0024
0000
0070
0270
6EA0
98E0
24D0
31C0
71C0
2000
ENDCHAR
STARTCHAR uni1EA3
ENCODING 7843
SWIDTH 526 0
DWIDTH 5 0
BBX 5 7 0 0
BITMAP
0600
0500
2B40
A700
D700
DA40
AB40
ENDCHAR
STARTCHAR uni1EA4
ENCODING 7844
SWIDTH 668 0
DWIDTH 6 0
BBX 8 11 0 -1
BITMAP
0005
0028
0000
0070
0270
6EA0
98E0
24D0
31C0
71C0
2000
ENDCHAR
STARTCHAR uni1EA5
ENCODING 7845
SWIDTH 526 0
DWIDTH 5 0
BBX 5 9 0 0
BITMAP
0040
0080
0600
0000
2B40
A700
D700
DA40
AB40
ENDCHAR
STARTCHAR uni1EA6
ENCODING 7846
SWIDTH 668 0
DWIDTH 6 0
BBX 8 11 0 -1
BITMAP
0015
0014
0000
0070
0270
6EA0
98E0
24D0
31C0
71C0
2000
ENDCHAR
STARTCHAR uni1EA7
ENCODING 7847
SWIDTH 526 0
DWIDTH 5 0
BBX 5 9 0 0
BITMAP
0040
0080
0500
0000
2B40
A700
D700
DA40
AB40
ENDCHAR
STARTCHAR uni1EA8
ENCODING 7848
SWIDTH 668 0
DWIDTH 6 0
BBX 8 11 0 -1
BITMAP
0005
0029
0000
0070
0270
6EA0
98E0
24D0
31C0
71C0
2000
ENDCHAR
STARTCHAR uni1EA9
ENCODING 7849
SWIDTH 526 0
DWIDTH 5 0
BBX 5 8 0 0
BITMAP
0040
0640
0400
2B40
A700
D700
DA40
AB40
ENDCHAR
STARTCHAR uni1EAA
ENCODING 7850
SWIDTH 668 0
DWIDTH 6 0
BBX 7 11 0 -1
BITMAP
0028
0024
0000
0070
0270
6EA0
98E0
24D0
31C0
71C0
2000
ENDCHAR
STARTCHAR uni1EAB
ENCODING 7851
SWIDTH 526 0
DWIDTH 5 0
BBX 5 9 0 0
BITMAP
0640
0000
0600
0000
2B40
A700
D700
DA40
AB40
ENDCHAR
STARTCHAR uni1EAC
ENCODING 7852
SWIDTH 668 0
DWIDTH 6 0
BBX 7 12 0 -2
BITMAP
0014
0054
0000
0070
0270
6EA0
98E0
24D0
31C0
71C0
2100
0700
ENDCHAR
STARTCHAR uni1EAD
ENCODING 7853
SWIDTH 526 0
DWIDTH 5 0
BBX 5 9 0 -2
BITMAP
0600
0500
2B40
A700
D700
DA40
AB40
1000
3000
ENDCHAR
STARTCHAR uni1EAE
ENCODING 7854
SWIDTH 668 0
DWIDTH 6 0
BBX 7 11 0 -1
BITMAP
0008
0054
0064
0070
0270
6EA0
98E0
24D0
31C0
71C0
2000
ENDCHAR
STARTCHAR uni1EAF
ENCODING 7855
SWIDTH 526 0
DWIDTH 5 0
BBX 5 9 0 0
BITMAP
0100
0100
1900
0000
2B40
A700
D700
DA40
AB40
ENDCHAR
STARTCHAR uni1EB0
ENCODING 7856
SWIDTH 668 0
DWIDTH 6 0
BBX 7 11 0 -1
BITMAP
0020
0054
0024
0070
0270
6EA0
98E0
24D0
31C0
71C0
2000
ENDCHAR
STARTCHAR uni1EB1
ENCODING 7857
SWIDTH 526 0
DWIDTH 5 0
BBX 5 9 0 0
BITMAP
0400
0500
1900
0000
2B40
A700
D700
DA40
AB40
ENDCHAR
STARTCHAR uni1EB2
ENCODING 7858
SWIDTH 668 0
DWIDTH 6 0
BBX 7 11 0 -1
BITMAP
0014
0054
0064
0070
0270
6EA0
98E0
24D0
31C0
71C0
2000
ENDCHAR
STARTCHAR uni1EB3
ENCODING 7859
SWIDTH 526 0
DWIDTH 5 0
BBX 5 9 0 0
BITMAP
0500
0100
1A00
0000
2B40
A700
D700
DA40
AB40
ENDCHAR
STARTCHAR uni1EB4
ENCODING 7860
SWIDTH 668 0
DWIDTH 6 0
BBX 7 11 0 -1
BITMAP
0028
0044
0064
0070
0270
6EA0
98E0
24D0
31C0
71C0
2000
ENDCHAR
STARTCHAR uni1EB5
ENCODING 7861
SWIDTH 526 0
DWIDTH 5 0
BBX 5 9 0 0
BITMAP
0600
0000
0900
0000
2B40
A700
D700
DA40
AB40
ENDCHAR
STARTCHAR uni1EB6
ENCODING 7862
SWIDTH 668 0
DWIDTH 6 0
BBX 8 12 0 -2
BITMAP
0045
0064
0000
0070
0270
6EA0
98E0
24D0
31C0
71C0
2100
0700
ENDCHAR
STARTCHAR uni1EB7
ENCODING 7863
SWIDTH 526 0
DWIDTH 5 0
BBX 5 9 0 -2
BITMAP
1A40
0000
2B40
A700
D700
DA40
AB40
1000
3000
ENDCHAR
STARTCHAR uni1EB8
ENCODING 7864
SWIDTH 459 0
DWIDTH 4 0
BBX 5 9 0 -2
BITMAP
0A40
2540
2800
2800
A000
E100
7900
1000
7000
ENDCHAR
STARTCHAR uni1EB9
ENCODING 7865
SWIDTH 384 0
DWIDTH 3 0
BBX 4 7 0 -2
BITMAP
28
A8
E4
D1
B4
50
90
ENDCHAR
STARTCHAR uni1EBA
ENCODING 7866
SWIDTH 459 0
DWIDTH 4 0
BBX 5 10 0 0
BITMAP
0240
0200
0000
0A40
2540
2800
2800
A000
E100
7900
ENDCHAR
STARTCHAR uni1EBB
ENCODING 7867
SWIDTH 384 0
DWIDTH 3 0
BBX 4 7 0 0
BITMAP
09
08
28
A8
E4
D1
B4
ENDCHAR
STARTCHAR uni1EBC
ENCODING 7868
SWIDTH 459 0
DWIDTH 4 0
BBX 5 10 0 0
BITMAP
0500
0B80
0000
0A40
2540
2800
2800
A000
E100
7900
ENDCHAR
STARTCHAR uni1EBD
ENCODING 7869
SWIDTH 384 0
DWIDTH 3 0
BBX 4 7 0 0
BITMAP
3D
04
28
A8
E4
D1
B4
ENDCHAR
STARTCHAR uni1EBE
ENCODING 7870
SWIDTH 459 0
DWIDTH 4 0
BBX 6 10 0 0
BITMAP
0150
0640
0000
0A40
2540
2800
2800
A000
E100
7900
ENDCHAR
STARTCHAR uni1EBF
ENCODING 7871
SWIDTH 384 0
DWIDTH 3 0
BBX 5 9 0 0
BITMAP
0040
0140
0900
1000
2800
A800
E400
D100
B400
ENDCHAR
STARTCHAR uni1EC0
ENCODING 7872
SWIDTH 459 0
DWIDTH 4 0
BBX 5 10 0 0
BITMAP
0180
0540
0000
0A40
2540
2800
2800
A000
E100
7900
ENDCHAR
STARTCHAR uni1EC1
ENCODING 7873
SWIDTH 384 0
DWIDTH 3 0
BBX 5 9 0 0
BITMAP
0100
0140
0500
0000
2800
A800
E400
D100
B400
ENDCHAR
STARTCHAR uni1EC2
ENCODING 7874
SWIDTH 459 0
DWIDTH 4 0
BBX 6 10 0 0
BITMAP
0050
0250
0400
0A40
2540
2800
2800
A000
E100
7900
ENDCHAR
STARTCHAR uni1EC3
ENCODING 7875
SWIDTH 384 0
DWIDTH 3 0
BBX 5 8 0 0
BITMAP
0140
0900
1000
2800
A800
E400
D100
B400
ENDCHAR
STARTCHAR uni1EC4
ENCODING 7876
SWIDTH 459 0
DWIDTH 4 0
BBX 5 10 0 0
BITMAP
0240
0640
0000
0A40
2540
2800
2800
A000
E100
7900
ENDCHAR
STARTCHAR uni1EC5
ENCODING 7877
SWIDTH 384 0
DWIDTH 3 0
BBX 4 9 0 0
BITMAP
06
00
09
10
28
A8
E4
D1
B4
ENDCHAR
STARTCHAR uni1EC6
ENCODING 7878
SWIDTH 459 0
DWIDTH 4 0
BBX 5 12 0 -2
BITMAP
0200
0940
0000
0A40
2540
2800
2800
A000
E100
7900
1000
7000
ENDCHAR
STARTCHAR uni1EC7
ENCODING 7879
SWIDTH 384 0
DWIDTH 3 0
BBX 4 9 0 -2
BITMAP
09
11
28
A8
E4
D1
B4
50
90
ENDCHAR
STARTCHAR uni1EC8
ENCODING 7880
SWIDTH 375 0
DWIDTH 3 0
BBX 4 10 0 0
BITMAP
06
05
00
1D
9D
DC
1C
28
34
34
ENDCHAR
STARTCHAR uni1EC9
ENCODING 7881
SWIDTH 267 0
DWIDTH 2 0
BBX 3 7 0 0
BITMAP
24
20
60
A0
D0
D4
E0
ENDCHAR
STARTCHAR uni1ECA
ENCODING 7882
SWIDTH 375 0
DWIDTH 3 0
BBX 4 9 0 -2
BITMAP
1D
9D
DC
1C
28
34
34
10
60
ENDCHAR
STARTCHAR uni1ECB
ENCODING 7883
SWIDTH 267 0
DWIDTH 2 0
BBX 4 9 -1 -2
BITMAP
0C
04
18
28
34
35
38
10
60
ENDCHAR
STARTCHAR uni1ECC
ENCODING 7884
SWIDTH 665 0
DWIDTH 6 0
BBX 6 9 0 -2
BITMAP
1690
5960
9C70
2860
3490
35C0
2E40
0400
1C00
ENDCHAR
STARTCHAR uni1ECD
ENCODING 7885
SWIDTH 433 0
DWIDTH 4 0
BBX 5 7 0 -2
BITMAP
2900
A640
D500
D800
B400
5000
9000
ENDCHAR
STARTCHAR uni1ECE
ENCODING 7886
SWIDTH 665 0
DWIDTH 6 0
BBX 6 10 0 0
BITMAP
0180
0080
0000
1690
5960
9C70
2860
3490
35C0
2E40
ENDCHAR
STARTCHAR uni1ECF
ENCODING 7887
SWIDTH 433 0
DWIDTH 4 0
BBX 5 7 0 0
BITMAP
0900
0900
2900
A640
D500
D800
B400
ENDCHAR
STARTCHAR uni1ED0
ENCODING 7888
SWIDTH 665 0
DWIDTH 6 0
BBX 6 10 0 0
BITMAP
0050
0190
0000
1690
5960
9C70
2860
3490
35C0
2E40
ENDCHAR
STARTCHAR uni1ED1
ENCODING 7889
SWIDTH 433 0
DWIDTH 4 0
BBX 5 9 0 0
BITMAP
0040
0140
0900
1000
2900
A640
D500
D800
B400
ENDCHAR
STARTCHAR uni1ED2
ENCODING 7890
SWIDTH 665 0
DWIDTH 6 0
BBX 6 10 0 0
BITMAP
0060
0140
0000
1690
5960
9C70
2860
3490
35C0
2E40
ENDCHAR
STARTCHAR uni1ED3
ENCODING 7891
SWIDTH 433 0
DWIDTH 4 0
BBX 5 8 0 0
BITMAP
0140
0940
1500
2900
A640
D500
D800
B400
ENDCHAR
STARTCHAR uni1ED4
ENCODING 7892
SWIDTH 665 0
DWIDTH 6 0
BBX 6 10 0 0
BITMAP
0010
0190
0100
1690
5960
9C70
2860
3490
35C0
2E40
ENDCHAR
STARTCHAR uni1ED5
ENCODING 7893
SWIDTH 433 0
DWIDTH 4 0
BBX 5 8 0 0
BITMAP
0140
0900
1000
2900
A640
D500
D800
B400
ENDCHAR
STARTCHAR uni1ED6
ENCODING 7894
SWIDTH 665 0
DWIDTH 6 0
BBX 6 10 0 0
BITMAP
0090
0180
0000
1690
5960
9C70
2860
3490
35C0
2E40
ENDCHAR
STARTCHAR uni1ED7
ENCODING 7895
SWIDTH 433 0
DWIDTH 4 0
BBX 5 9 0 0
BITMAP
0600
0100
0900
1000
2900
A640
D500
D800
B400
ENDCHAR
STARTCHAR uni1ED8
ENCODING 7896
SWIDTH 665 0
DWIDTH 6 0
BBX 6 12 0 -2
BITMAP
0180
0280
0000
1690
5960
9C70
2860
3490
35C0
2E40
0400
1C00
ENDCHAR
STARTCHAR uni1ED9
ENCODING 7897
SWIDTH 433 0
DWIDTH 4 0
BBX 5 9 0 -2
BITMAP
0800
1100
2900
A640
D500
D800
B400
5000
9000
ENDCHAR
STARTCHAR uni1EDA
ENCODING 7898
SWIDTH 665 0
DWIDTH 6 0
BBX 7 10 0 0
BITMAP
0080
0184
0014
16A0
5960
9C70
2860
34A0
35C0
2E40
ENDCHAR
STARTCHAR uni1EDB
ENCODING 7899
SWIDTH 439 0
DWIDTH 4 0
BBX 5 7 0 0
BITMAP
0500
0540
2A00
A500
D500
D800
B400
ENDCHAR
STARTCHAR uni1EDC
ENCODING 7900
SWIDTH 665 0
DWIDTH 6 0
BBX 7 10 0 0
BITMAP
0200
0214
0014
16A0
5960
9C70
2860
34A0
35C0
2E40
ENDCHAR
STARTCHAR uni1EDD
ENCODING 7901
SWIDTH 439 0
DWIDTH 4 0
BBX 5 7 0 0
BITMAP
1800
0940
2A00
A500
D500
D800
B400
ENDCHAR
STARTCHAR uni1EDE
ENCODING 7902
SWIDTH 665 0
DWIDTH 6 0
BBX 7 10 0 0
BITMAP
0180
0094
0014
16A0
5960
9C70
2860
34A0
35C0
2E40
ENDCHAR
STARTCHAR uni1EDF
ENCODING 7903
SWIDTH 439 0
DWIDTH 4 0
BBX 5 7 0 0
BITMAP
0900
0940
2A00
A500
D500
D800
B400
ENDCHAR
STARTCHAR uni1EE0
ENCODING 7904
SWIDTH 665 0
DWIDTH 6 0
BBX 7 9 0 0
BITMAP
06D4
0014
16A0
5960
9C70
2860
34A0
35C0
2E40
ENDCHAR
STARTCHAR uni1EE1
ENCODING 7905
SWIDTH 439 0
DWIDTH 4 0
BBX 5 7 0 0
BITMAP
2940
0540
2A00
A500
D500
D800
B400
ENDCHAR
STARTCHAR uni1EE2
ENCODING 7906
SWIDTH 665 0
DWIDTH 6 0
BBX 7 11 0 -2
BITMAP
0014
0014
16A0
5960
9C70
2860
34A0
35C0
2E40
0400
1C00
ENDCHAR
STARTCHAR uni1EE3
ENCODING 7907
SWIDTH 439 0
DWIDTH 4 0
BBX 5 8 0 -2
BITMAP
0140
2A00
A500
D500
D800
B400
5000
9000
ENDCHAR
STARTCHAR uni1EE4
ENCODING 7908
SWIDTH 716 0
DWIDTH 6 0
BBX 7 9 0 -2
BITMAP
1A28
8D24
8C34
1C70
2860
28D0
1F80
0400
0900
ENDCHAR
STARTCHAR uni1EE5
ENCODING 7909
SWIDTH 505 0
DWIDTH 5 0
BBX 5 7 0 -2
BITMAP
6700
A700
DA00
DD40
EB40
1000
3000
ENDCHAR
STARTCHAR uni1EE6
ENCODING 7910
SWIDTH 716 0
DWIDTH 6 0
BBX 7 10 0 0
BITMAP
0050
0050
0000
1A28
8D24
8C34
1C70
2860
28D0
1F80
ENDCHAR
STARTCHAR uni1EE7
ENCODING 7911
SWIDTH 505 0
DWIDTH 5 0
BBX 5 7 0 0
BITMAP
0900
0800
6700
A700
DA00
DD40
EB40
ENDCHAR
STARTCHAR uni1EE8
ENCODING 7912
SWIDTH 716 0
DWIDTH 6 0
BBX 8 10 0 0
BITMAP
0020
0052
0005
1A28
8D24
8C34
1C70
2860
28D0
1F80
ENDCHAR
STARTCHAR uni1EE9
ENCODING 7913
SWIDTH 505 0
DWIDTH 5 0
BBX 5 7 0 0
BITMAP
0640
0480
6740
A700
DA00
DD40
EB40
ENDCHAR
STARTCHAR uni1EEA
ENCODING 7914
SWIDTH 716 0
DWIDTH 6 0
BBX 8 10 0 0
BITMAP
0180
0082
0005
1A28
8D24
8C34
1C70
2860
28D0
1F80
ENDCHAR
STARTCHAR uni1EEB
ENCODING 7915
SWIDTH 505 0
DWIDTH 5 0
BBX 5 7 0 0
BITMAP
1800
0880
6740
A700
DA00
DE40
EB40
ENDCHAR
STARTCHAR uni1EEC
ENCODING 7916
SWIDTH 716 0
DWIDTH 6 0
BBX 8 10 0 0
BITMAP
0050
0052
0005
1A28
8D24
8C34
1C70
2860
28D0
1F80
ENDCHAR
STARTCHAR uni1EED
ENCODING 7917
SWIDTH 505 0
DWIDTH 5 0
BBX 5 7 0 0
BITMAP
0900
0880
6740
A700
DA00
DE40
EB40
ENDCHAR
STARTCHAR uni1EEE
ENCODING 7918
SWIDTH 716 0
DWIDTH 6 0
BBX 8 9 0 0
BITMAP
01B6
0005
1A28
8D24
8C34
1C70
2860
28D0
1F80
ENDCHAR
STARTCHAR uni1EEF
ENCODING 7919
SWIDTH 505 0
DWIDTH 5 0
BBX 5 7 0 0
BITMAP
1D80
0080
6700
A600
DA00
DD40
EB40
ENDCHAR
STARTCHAR uni1EF0
ENCODING 7920
SWIDTH 716 0
DWIDTH 6 0
BBX 8 12 0 -2
BITMAP
0001
0002
0001
1A28
8D24
8C34
1C70
2860
28D0
1F80
0400
0900
ENDCHAR
STARTCHAR uni1EF1
ENCODING 7921
SWIDTH 505 0
DWIDTH 5 0
BBX 5 9 0 -2
BITMAP
0080
0080
6700
A600
DA00
DD40
EB40
1000
3000
ENDCHAR
STARTCHAR Ygrave
ENCODING 7922
SWIDTH 620 0
DWIDTH 6 0
BBX 6 10 0 0
BITMAP
0080
0080
0000
1A10
9B20
C750
0380
0340
0740
0700
ENDCHAR
STARTCHAR ygrave
ENCODING 7923
SWIDTH 505 0
DWIDTH 5 0
BBX 5 9 0 -2
BITMAP
1800
0800
6700
A700
DA00
DD40
ED00
6C00
7800
ENDCHAR
STARTCHAR uni1EF4
ENCODING 7924
SWIDTH 620 0
DWIDTH 6 0
BBX 6 9 0 -2
BITMAP
1A10
9B20
C750
0380
0340
0740
0700
0500
0A00
ENDCHAR
STARTCHAR uni1EF5
ENCODING 7925
SWIDTH 505 0
DWIDTH 5 0
BBX 5 7 0 -2
BITMAP
6700
A700
DA00
DD40
ED00
6D00
7A40
ENDCHAR
STARTCHAR uni1EF6
ENCODING 7926
SWIDTH 620 0
DWIDTH 6 0
BBX 6 10 0 0
BITMAP
0050
0050
0000
1A10
9B20
C750
0380
0340
0740
0700
ENDCHAR
STARTCHAR uni1EF7
ENCODING 7927
SWIDTH 505 0
DWIDTH 5 0
BBX 5 9 0 -2
BITMAP
0D00
0000
6700
A700
DA00
DD40
ED00
6C00
7800
ENDCHAR
STARTCHAR uni1EF8
ENCODING 7928
SWIDTH 620 0
DWIDTH 6 0
BBX 6 9 0 0
BITMAP
01F0
0000
1A10
9B20
C750
0380
0340
0740
0700
ENDCHAR
STARTCHAR uni1EF9
ENCODING 7929
SWIDTH 505 0
DWIDTH 5 0
BBX 5 9 0 -2
BITMAP
2E00
0000
6700
A700
DA00
DD40
ED00
6C00
7800
ENDCHAR
STARTCHAR uni2010
ENCODING 8208
SWIDTH 290 0
DWIDTH 3 0
BBX 2 1 0 2
BITMAP
A0
ENDCHAR
STARTCHAR endash
ENCODING 8211
SWIDTH 352 0
DWIDTH 3 0
BBX 3 1 0 2
BITMAP
A4
ENDCHAR
STARTCHAR emdash
ENCODING 8212
SWIDTH 444 0
DWIDTH 4 0
BBX 4 1 0 2
BITMAP
A9
ENDCHAR
STARTCHAR quoteleft
ENCODING 8216
SWIDTH 209 0
DWIDTH 2 0
BBX 1 2 1 5
BITMAP
80
C0
ENDCHAR
STARTCHAR quoteright
ENCODING 8217
SWIDTH 238 0
DWIDTH 2 0
BBX 1 2 1 5
BITMAP
C0
80
ENDCHAR
STARTCHAR quotesinglbase
ENCODING 8218
SWIDTH 220 0
DWIDTH 2 0
BBX 1 2 0 -1
BITMAP
C0
80
ENDCHAR
STARTCHAR quotedblleft
ENCODING 8220
SWIDTH 429 0
DWIDTH 4 0
BBX 3 2 1 5
BITMAP
84
D8
ENDCHAR
STARTCHAR quotedblright
ENCODING 8221
SWIDTH 426 0
DWIDTH 4 0
BBX 3 2 1 5
BITMAP
D8
88
ENDCHAR
STARTCHAR quotedblbase
ENCODING 8222
SWIDTH 440 0
DWIDTH 4 0
BBX 3 2 0 -1
BITMAP
D8
88
ENDCHAR
STARTCHAR dagger
ENCODING 8224
SWIDTH 495 0
DWIDTH 4 0
BBX 4 9 0 -2
BITMAP
05
08
7F
18
14
20
20
20
20
ENDCHAR
STARTCHAR daggerdbl
ENCODING 8225
SWIDTH 495 0
DWIDTH 4 0
BBX 4 9 0 -2
BITMAP
05
08
7F
18
BE
24
20
20
20
ENDCHAR
STARTCHAR bullet
ENCODING 8226
SWIDTH 434 0
DWIDTH 4 0
BBX 2 2 1 2
BITMAP
A0
A0
ENDCHAR
STARTCHAR ellipsis
ENCODING 8230
SWIDTH 702 0
DWIDTH 6 0
BBX 6 2 0 0
BITMAP
5510
A670
ENDCHAR
STARTCHAR perthousand
ENCODING 8240
SWIDTH 1175 0
DWIDTH 11 0
BBX 11 7 0 0
BITMAP
282000
598000
998000
6668A4
019994
088964
14A5A0
ENDCHAR
STARTCHAR minute
ENCODING 8242
SWIDTH 196 0
DWIDTH 2 0
BBX 1 2 1 5
BITMAP
80
80
ENDCHAR
STARTCHAR second
ENCODING 8243
SWIDTH 341 0
DWIDTH 3 0
BBX 3 3 1 4
BITMAP
A4
A0
10
ENDCHAR
STARTCHAR guilsinglleft
ENCODING 8249
SWIDTH 359 0
DWIDTH 3 0
BBX 3 3 0 1
BITMAP
14
90
24
ENDCHAR
STARTCHAR guilsinglright
ENCODING 8250
SWIDTH 344 0
DWIDTH 3 0
BBX 3 3 0 1
BITMAP
10
08
50
ENDCHAR
STARTCHAR fraction
ENCODING 8260
SWIDTH 248 0
DWIDTH 2 0
BBX 5 7 -1 0
BITMAP
0140
0200
0400
0800
2000
2000
8000
ENDCHAR
STARTCHAR uni2052
ENCODING 8274
SWIDTH 796 0
DWIDTH 7 0
BBX 5 7 1 0
BITMAP
A080
5200
0200
0800
0400
2040
5180
ENDCHAR
STARTCHAR uni2070
ENCODING 8304
SWIDTH 379 0
DWIDTH 3 0
BBX 4 4 0 3
BITMAP
28
59
98
64
ENDCHAR
STARTCHAR uni2074
ENCODING 8308
SWIDTH 352 0
DWIDTH 3 0
BBX 3 4 0 3
BITMAP
28
28
68
14
ENDCHAR
STARTCHAR uni2075
ENCODING 8309
SWIDTH 335 0
DWIDTH 3 0
BBX 3 4 0 3
BITMAP
28
24
58
54
ENDCHAR
STARTCHAR uni2076
ENCODING 8310
SWIDTH 351 0
DWIDTH 3 0
BBX 3 4 0 3
BITMAP
28
64
98
64
ENDCHAR
STARTCHAR uni2077
ENCODING 8311
SWIDTH 329 0
DWIDTH 3 0
BBX 3 4 0 3
BITMAP
78
10
20
50
ENDCHAR
STARTCHAR uni2078
ENCODING 8312
SWIDTH 354 0
DWIDTH 3 0
BBX 3 4 0 3
BITMAP
28
28
5C
54
ENDCHAR
STARTCHAR uni2079
ENCODING 8313
SWIDTH 345 0
DWIDTH 3 0
BBX 3 4 0 3
BITMAP
18
58
68
50
ENDCHAR
STARTCHAR uni2080
ENCODING 8320
SWIDTH 379 0
DWIDTH 3 0
BBX 4 4 0 0
BITMAP
28
69
98
64
ENDCHAR
STARTCHAR uni2081
ENCODING 8321
SWIDTH 229 0
DWIDTH 2 0
BBX 2 4 0 0
BITMAP
60
20
50
90
ENDCHAR
STARTCHAR uni2082
ENCODING 8322
SWIDTH 328 0
DWIDTH 3 0
BBX 3 4 0 0
BITMAP
18
18
20
64
ENDCHAR
STARTCHAR uni2083
ENCODING 8323
SWIDTH 336 0
DWIDTH 3 0
BBX 3 4 0 0
BITMAP
28
18
58
54
ENDCHAR
STARTCHAR uni2084
ENCODING 8324
SWIDTH 352 0
DWIDTH 3 0
BBX 3 4 0 0
BITMAP
28
28
68
14
ENDCHAR
STARTCHAR uni2085
ENCODING 8325
SWIDTH 335 0
DWIDTH 3 0
BBX 3 4 0 0
BITMAP
28
24
58
54
ENDCHAR
STARTCHAR uni2086
ENCODING 8326
SWIDTH 351 0
DWIDTH 3 0
BBX 3 4 0 0
BITMAP
28
64
98
64
ENDCHAR
STARTCHAR uni2087
ENCODING 8327
SWIDTH 329 0
DWIDTH 3 0
BBX 3 4 0 0
BITMAP
78
10
60
50
ENDCHAR
STARTCHAR uni2088
ENCODING 8328
SWIDTH 354 0
DWIDTH 3 0
BBX 3 4 0 0
BITMAP
28
28
58
68
ENDCHAR
STARTCHAR uni2089
ENCODING 8329
SWIDTH 345 0
DWIDTH 3 0
BBX 3 4 0 0
BITMAP
18
58
68
54
ENDCHAR
STARTCHAR colonmonetary
ENCODING 8353
SWIDTH 384 0
DWIDTH 3 0
BBX 4 7 0 0
BITMAP
05
29
62
90
90
78
50
ENDCHAR
STARTCHAR franc
ENCODING 8355
SWIDTH 529 0
DWIDTH 5 0
BBX 5 7 0 0
BITMAP
0F80
0D00
1C00
1E00
2800
7900
3400
ENDCHAR
STARTCHAR lira
ENCODING 8356
SWIDTH 455 0
DWIDTH 4 0
BBX 5 7 0 0
BITMAP
0A40
1800
7900
7900
3000
6140
BF40
ENDCHAR
STARTCHAR uni20A6
ENCODING 8358
SWIDTH 723 0
DWIDTH 7 0
BBX 7 7 0 0
BITMAP
0A14
0E24
1F30
6BB4
6BA4
22D0
21C0
ENDCHAR
STARTCHAR uni20A9
ENCODING 8361
SWIDTH 841 0
DWIDTH 8 0
BBX 8 7 0 0
BITMAP
28A2
28E2
29E5
7ABA
7AB9
2CB4
2870
ENDCHAR
STARTCHAR Euro
ENCODING 8364
SWIDTH 507 0
DWIDTH 5 0
BBX 6 7 0 0
BITMAP
06D0
1C90
7900
7900
3400
3840
1E00
ENDCHAR
STARTCHAR uni20AE
ENCODING 8366
SWIDTH 481 0
DWIDTH 4 0
BBX 7 7 0 0
BITMAP
2FF4
9600
8A00
5E40
5E40
5C00
1800
ENDCHAR
STARTCHAR uni20B3
ENCODING 8371
SWIDTH 573 0
DWIDTH 5 0
BBX 6 7 0 0
BITMAP
1A80
9D90
9CC0
2E40
2800
7900
3400
ENDCHAR
STARTCHAR uni20B4
ENCODING 8372
SWIDTH 570 0
DWIDTH 5 0
BBX 5 7 0 0
BITMAP
1680
2280
5E40
6940
7240
A280
7A00
ENDCHAR
STARTCHAR uni20B8
ENCODING 8376
SWIDTH 522 0
DWIDTH 5 0
BBX 7 7 0 0
BITMAP
1554
2BF4
A700
C600
0A00
0D00
0C00
ENDCHAR
STARTCHAR uni20B9
ENCODING 8377
SWIDTH 544 0
DWIDTH 5 0
BBX 5 7 0 0
BITMAP
1A40
1B40
0600
6D00
0A00
0D00
0D00
ENDCHAR
STARTCHAR uni20BA
ENCODING 8378
SWIDTH 455 0
DWIDTH 4 0
BBX 5 7 0 0
BITMAP
0D00
1D00
6D00
6900
7480
3140
7900
ENDCHAR
STARTCHAR uni20BD
ENCODING 8381
SWIDTH 573 0
DWIDTH 5 0
BBX 6 7 0 0
BITMAP
1A80
9D90
9CC0
6E40
2800
7900
3400
ENDCHAR
STARTCHAR uni2116
ENCODING 8470
SWIDTH 996 0
DWIDTH 9 0
BBX 9 7 0 0
BITMAP
2E1540
9E2640
DB3540
576600
26AA40
22D000
21C000
ENDCHAR
STARTCHAR uni2120
ENCODING 8480
SWIDTH 585 0
DWIDTH 5 0
BBX 4 3 1 3
BITMAP
45
9A
55
ENDCHAR
STARTCHAR trademark
ENCODING 8482
SWIDTH 379 0
DWIDTH 3 0
BBX 4 2 0 4
BITMAP
55
58
ENDCHAR
STARTCHAR uni2126
ENCODING 8486
SWIDTH 745 0
DWIDTH 7 0
BBX 7 7 0 0
BITMAP
0690
1820
2024
2020
2020
2080
65A0
ENDCHAR
STARTCHAR uni212A
ENCODING 8490
SWIDTH 601 0
DWIDTH 5 0
BBX 6 7 0 0
BITMAP
1D50
8E40
5E40
19C0
2980
3680
3680
ENDCHAR
STARTCHAR uni212B
ENCODING 8491
SWIDTH 668 0
DWIDTH 6 0
BBX 7 9 0 -1
BITMAP
0014
0024
01B0
0270
6EA0
98D0
24D0
31C0
7040
ENDCHAR
STARTCHAR estimated
ENCODING 8494
SWIDTH 786 0
DWIDTH 7 0
BBX 7 7 0 0
BITMAP
0A80
3430
B038
B968
B000
3010
0A80
ENDCHAR
STARTCHAR uni2153
ENCODING 8531
SWIDTH 733 0
DWIDTH 7 0
BBX 7 8 0 0
BITMAP
1000
6080
6080
5200
4564
0824
1464
20A0
ENDCHAR
STARTCHAR uni2154
ENCODING 8532
SWIDTH 852 0
DWIDTH 8 0
BBX 8 7 0 0
BITMAP
1814
1820
1080
6899
0209
0115
0829
ENDCHAR
STARTCHAR oneeighth
ENCODING 8539
SWIDTH 741 0
DWIDTH 7 0
BBX 7 8 0 0
BITMAP
1000
6080
6080
5200
4564
0864
14A4
20A4
ENDCHAR
STARTCHAR threeeighths
ENCODING 8540
SWIDTH 828 0
DWIDTH 7 0
BBX 8 7 0 0
BITMAP
2820
1450
5880
5569
0228
0528
0828
ENDCHAR
STARTCHAR fiveeighths
ENCODING 8541
SWIDTH 827 0
DWIDTH 7 0
BBX 8 7 0 0
BITMAP
2820
2450
5880
5569
0228
0528
0828
ENDCHAR
STARTCHAR seveneighths
ENCODING 8542
SWIDTH 761 0
DWIDTH 7 0
BBX 7 7 0 0
BITMAP
7850
1080
2140
5264
0464
08A4
20A4
ENDCHAR
STARTCHAR partialdiff
ENCODING 8706
SWIDTH 597 0
DWIDTH 5 0
BBX 6 7 0 0
BITMAP
0680
0090
0050
1A80
5080
9240
6900
ENDCHAR
STARTCHAR uni2206
ENCODING 8710
SWIDTH 619 0
DWIDTH 6 0
BBX 6 7 0 0
BITMAP
0280
0680
08C0
14C0
2090
9090
AA90
ENDCHAR
STARTCHAR product
ENCODING 8719
SWIDTH 661 0
DWIDTH 6 0
BBX 6 7 0 0
BITMAP
6AA0
2140
2140
2200
5200
8200
8500
ENDCHAR
STARTCHAR summation
ENCODING 8721
SWIDTH 605 0
DWIDTH 5 0
BBX 6 7 0 0
BITMAP
1A90
1800
0900
0600
0800
2000
AA40
ENDCHAR
STARTCHAR minus
ENCODING 8722
SWIDTH 471 0
DWIDTH 4 0
BBX 4 1 0 3
BITMAP
69
ENDCHAR
STARTCHAR uni2215
ENCODING 8725
SWIDTH 488 0
DWIDTH 4 0
BBX 4 7 0 0
BITMAP
01
02
08
04
20
50
80
ENDCHAR
STARTCHAR uni2219
ENCODING 8729
SWIDTH 434 0
DWIDTH 4 0
BBX 2 2 1 2
BITMAP
50
A0
ENDCHAR
STARTCHAR radical
ENCODING 8730
SWIDTH 660 0
DWIDTH 6 0
BBX 6 7 0 0
BITMAP
0190
0200
0200
0500
9800
2400
2000
ENDCHAR
STARTCHAR infinity
ENCODING 8734
SWIDTH 833 0
DWIDTH 8 0
BBX 7 3 0 1
BITMAP
2864
9754
65A0
ENDCHAR
STARTCHAR integral
ENCODING 8747
SWIDTH 305 0
DWIDTH 3 0
BBX 5 9 -1 -2
BITMAP
0240
0500
0800
0800
0800
1400
2400
2000
5000
ENDCHAR
STARTCHAR approxequal
ENCODING 8776
SWIDTH 441 0
DWIDTH 4 0
BBX 4 3 0 1
BITMAP
6A
00
69
ENDCHAR
STARTCHAR notequal
ENCODING 8800
SWIDTH 500 0
DWIDTH 5 0
BBX 4 5 0 0
BITMAP
04
7F
14
BE
10
ENDCHAR
STARTCHAR lessequal
ENCODING 8804
SWIDTH 405 0
DWIDTH 4 0
BBX 4 5 0 1
BITMAP
01
28
64
04
A8
ENDCHAR
STARTCHAR greaterequal
ENCODING 8805
SWIDTH 405 0
DWIDTH 4 0
BBX 4 5 0 1
BITMAP
10
19
29
50
A9
ENDCHAR
STARTCHAR lozenge
ENCODING 9674
SWIDTH 619 0
DWIDTH 6 0
BBX 5 7 0 0
BITMAP
0700
0940
2080
5080
6140
2600
2800
ENDCHAR
STARTCHAR uni27E8
ENCODING 10216
SWIDTH 456 0
DWIDTH 4 0
BBX 4 9 0 -1
BITMAP
01
05
08
20
50
50
10
08
05
ENDCHAR
STARTCHAR uni27E9
ENCODING 10217
SWIDTH 456 0
DWIDTH 4 0
BBX 4 9 0 -1
BITMAP
50
10
08
05
01
08
10
50
40
ENDCHAR
STARTCHAR ff
ENCODING 64256
SWIDTH 508 0
DWIDTH 5 0
BBX 8 9 -2 -2
BITMAP
02ED
0734
07B4
0A60
0DA0
0DD0
1DD0
69C0
BB40
ENDCHAR
STARTCHAR fi
ENCODING 64257
SWIDTH 534 0
DWIDTH 5 0
BBX 7 9 -2 -2
BITMAP
02A4
0310
0774
0A70
0D60
0DA4
1C74
6800
B400
ENDCHAR
STARTCHAR fl
ENCODING 64258
SWIDTH 548 0
DWIDTH 5 0
BBX 7 9 -2 -2
BITMAP
02A4
0728
0774
0A34
0D70
0D64
1C78
6800
B400
ENDCHAR
STARTCHAR ffi
ENCODING 64259
SWIDTH 764 0
DWIDTH 7 0
BBX 9 9 -2 -2
BITMAP
02AA40
077100
07B740
0AA700
0D9700
0DDA40
1DC740
A9C000
BB4000
ENDCHAR
STARTCHAR ffl
ENCODING 64260
SWIDTH 780 0
DWIDTH 7 0
BBX 10 9 -2 -2
BITMAP
02AA40
077280
07B640
0AA340
0D9700
0DD710
1DC780
A9C000
BB4000
ENDCHAR
STARTCHAR .notdef
ENCODING -1
SWIDTH 810 0
DWIDTH 7 0
BBX 7 12 0 -3
BITMAP
0554
0404
0404
1144
1184
1154
1110
1110
4010
4010
4040
5540
ENDCHAR
STARTCHAR A.salt
ENCODING -1
SWIDTH 590 0
DWIDTH 5 0
BBX 6 8 0 -1
BITMAP
01D0
05D0
09C0
2AC0
7280
A340
D340
9000
ENDCHAR
STARTCHAR B.salt
ENCODING -1
SWIDTH 633 0
DWIDTH 6 0
BBX 6 7 0 0
BITMAP
2A80
9D80
5E80
18D0
28D0
35C0
3B40
ENDCHAR
STARTCHAR E.salt
ENCODING -1
SWIDTH 554 0
DWIDTH 5 0
BBX 6 7 0 0
BITMAP
2FD0
9D00
DC00
5E00
2800
3400
3F40
ENDCHAR
STARTCHAR N.salt
ENCODING -1
SWIDTH 669 0
DWIDTH 6 0
BBX 7 7 0 0
BITMAP
1ED0
9DA0
9CA0
2CD0
28C0
35C4
34E0
ENDCHAR
STARTCHAR i.loclTRK
ENCODING -1
SWIDTH 267 0
DWIDTH 2 0
BBX 3 7 0 0
BITMAP
30
10
60
A0
D0
D4
E0
ENDCHAR
STARTCHAR a.end
ENCODING -1
SWIDTH 467 0
DWIDTH 4 0
BBX 5 5 0 0
BITMAP
2B40
A700
D700
DA00
BB00
ENDCHAR
STARTCHAR aacute.end
ENCODING -1
SWIDTH 461 0
DWIDTH 4 0
BBX 5 7 0 0
BITMAP
0600
0400
2B40
A700
DA00
DA00
AA00
ENDCHAR
STARTCHAR c.end
ENCODING -1
SWIDTH 341 0
DWIDTH 3 0
BBX 3 5 0 0
BITMAP
28
A4
D0
D0
B4
ENDCHAR
STARTCHAR d.end
ENCODING -1
SWIDTH 476 0
DWIDTH 4 0
BBX 5 7 0 0
BITMAP
0280
0340
2B40
A700
D700
DA00
BB00
ENDCHAR
STARTCHAR e.end
ENCODING -1
SWIDTH 366 0
DWIDTH 3 0
BBX 3 5 0 0
BITMAP
28
A8
E4
D0
B4
ENDCHAR
STARTCHAR eacute.end
ENCODING -1
SWIDTH 367 0
DWIDTH 3 0
BBX 4 7 0 0
BITMAP
09
04
28
A8
E4
D0
B4
ENDCHAR
STARTCHAR uni0292.end
ENCODING -1
SWIDTH 391 0
DWIDTH 4 0
BBX 4 7 0 -2
BITMAP
AD
68
70
34
28
A8
B4
ENDCHAR
STARTCHAR g.end
ENCODING -1
SWIDTH 480 0
DWIDTH 4 0
BBX 5 7 0 -2
BITMAP
2B40
A700
D600
DA00
BD00
5D00
7800
ENDCHAR
STARTCHAR uni01E5.end
ENCODING -1
SWIDTH 507 0
DWIDTH 5 0
BBX 5 7 0 -2
BITMAP
2B40
A700
D600
DA00
BD00
AD00
7800
ENDCHAR
STARTCHAR h.end
ENCODING -1
SWIDTH 453 0
DWIDTH 4 0
BBX 5 7 -1 0
BITMAP
0900
1C00
1F80
2980
3680
3640
7280
ENDCHAR
STARTCHAR i.end
ENCODING -1
SWIDTH 209 0
DWIDTH 2 0
BBX 2 7 0 0
BITMAP
30
10
60
A0
D0
D0
E0
ENDCHAR
STARTCHAR iacute.end
ENCODING -1
SWIDTH 209 0
DWIDTH 2 0
BBX 3 7 0 0
BITMAP
14
10
60
A0
D0
D0
E0
ENDCHAR
STARTCHAR ij.end
ENCODING -1
SWIDTH 480 0
DWIDTH 4 0
BBX 5 10 0 -2
BITMAP
1140
3240
0000
6340
A700
D600
DA00
ED00
6D00
7800
ENDCHAR
STARTCHAR j.end
ENCODING -1
SWIDTH 213 0
DWIDTH 2 0
BBX 4 10 -2 -2
BITMAP
01
03
00
06
0A
0D
0D
1C
68
B4
ENDCHAR
STARTCHAR k.end
ENCODING -1
SWIDTH 472 0
DWIDTH 4 0
BBX 5 7 -1 0
BITMAP
0D00
1C00
1980
2F40
3A80
3680
72C0
ENDCHAR
STARTCHAR l.end
ENCODING -1
SWIDTH 207 0
DWIDTH 2 0
BBX 3 7 0 0
BITMAP
24
70
60
A0
D0
D0
E0
ENDCHAR
STARTCHAR m.end
ENCODING -1
SWIDTH 701 0
DWIDTH 6 0
BBX 7 5 -1 0
BITMAP
1FAC
29DC
369C
3768
735C
ENDCHAR
STARTCHAR n.end
ENCODING -1
SWIDTH 454 0
DWIDTH 4 0
BBX 5 5 -1 0
BITMAP
1F80
2980
3680
3640
7280
ENDCHAR
STARTCHAR o.end
ENCODING -1
SWIDTH 487 0
DWIDTH 4 0
BBX 4 5 0 0
BITMAP
29
A6
D5
D8
B4
ENDCHAR
STARTCHAR oacute.end
ENCODING -1
SWIDTH 487 0
DWIDTH 4 0
BBX 4 7 0 0
BITMAP
05
04
29
A6
D5
D8
B4
ENDCHAR
STARTCHAR s.end
ENCODING -1
SWIDTH 316 0
DWIDTH 3 0
BBX 4 6 -1 0
BITMAP
05
0E
1A
1A
5A
2D
ENDCHAR
STARTCHAR t.end
ENCODING -1
SWIDTH 276 0
DWIDTH 2 0
BBX 3 7 0 0
BITMAP
10
70
B4
A0
D0
D0
A0
ENDCHAR
STARTCHAR u.end
ENCODING -1
SWIDTH 459 0
DWIDTH 4 0
BBX 4 5 0 0
BITMAP
67
A7
DA
DD
EA
ENDCHAR
STARTCHAR uacute.end
ENCODING -1
SWIDTH 459 0
DWIDTH 4 0
BBX 4 7 0 0
BITMAP
05
04
67
A7
DA
DD
EA
ENDCHAR
STARTCHAR x.end
ENCODING -1
SWIDTH 500 0
DWIDTH 5 0
BBX 5 6 0 0
BITMAP
0140
2940
4E00
4D00
1D00
5700
ENDCHAR
STARTCHAR y.end
ENCODING -1
SWIDTH 460 0
DWIDTH 4 0
BBX 4 7 0 -2
BITMAP
67
A7
DA
DD
FD
6C
74
ENDCHAR
STARTCHAR k.salt
ENCODING -1
SWIDTH 518 0
DWIDTH 5 0
BBX 6 7 -1 0
BITMAP
0900
1C00
19C0
2E40
3A80
3690
72D0
ENDCHAR
STARTCHAR p.salt
ENCODING -1
SWIDTH 482 0
DWIDTH 4 0
BBX 6 9 -1 -3
BITMAP
1400
2F80
29C0
35D0
3A80
7A00
7000
A000
4000
ENDCHAR
STARTCHAR E_x
ENCODING -1
SWIDTH 797 0
DWIDTH 7 0
BBX 8 7 0 0
BITMAP
0A40
2540
240C
2894
B0B0
E0B1
BA78
ENDCHAR
STARTCHAR F_i
ENCODING -1
SWIDTH 726 0
DWIDTH 7 0
BBX 7 7 0 0
BITMAP
6FF4
8D50
4E70
1CA0
28A0
28D4
34B4
ENDCHAR
STARTCHAR T_h
ENCODING -1
SWIDTH 971 0
DWIDTH 9 0
BBX 9 7 0 0
BITMAP
2FA400
973400
8A3A00
0D7700
0DA700
1C9A40
18D740
ENDCHAR
STARTCHAR T_i
ENCODING -1
SWIDTH 744 0
DWIDTH 7 0
BBX 7 7 0 0
BITMAP
2BF8
8750
8A70
0D70
0DA0
1CA4
18B4
ENDCHAR
STARTCHAR a_x
ENCODING -1
SWIDTH 899 0
DWIDTH 8 0
BBX 9 6 0 0
BITMAP
000100
2B7600
A72900
D72C00
DA2840
B79E00
ENDCHAR
STARTCHAR a_z
ENCODING -1
SWIDTH 906 0
DWIDTH 8 0
BBX 8 5 0 0
BITMAP
2B6B
A71D
D71C
DA35
BB79
ENDCHAR
STARTCHAR b_s
ENCODING -1
SWIDTH 799 0
DWIDTH 7 0
BBX 7 7 0 0
BITMAP
2400
7000
7D74
A674
D628
D9A8
B8B4
ENDCHAR
STARTCHAR b_s_x
ENCODING -1
SWIDTH 1144 0
DWIDTH 10 0
BBX 11 7 0 0
BITMAP
100000
700000
7D3660
A676A0
9629D0
D9AAC4
B8B4E0
ENDCHAR
STARTCHAR b_s_z
ENCODING -1
SWIDTH 1158 0
DWIDTH 10 0
BBX 11 7 0 0
BITMAP
240000
700000
7976B4
A675A0
D628C0
D9AA80
B8B7A0
ENDCHAR
STARTCHAR c_x
ENCODING -1
SWIDTH 755 0
DWIDTH 7 0
BBX 7 6 0 0
BITMAP
0004
29D8
A4D4
D0E0
D1E4
B974
ENDCHAR
STARTCHAR c_z
ENCODING -1
SWIDTH 769 0
DWIDTH 7 0
BBX 7 5 0 0
BITMAP
29B8
A570
D0A0
D1D4
B6E4
ENDCHAR
STARTCHAR e_x
ENCODING -1
SWIDTH 762 0
DWIDTH 7 0
BBX 7 6 0 0
BITMAP
0004
29D8
A9E4
E4E0
D1E4
B974
ENDCHAR
STARTCHAR e_z
ENCODING -1
SWIDTH 788 0
DWIDTH 7 0
BBX 7 5 0 0
BITMAP
29B8
A874
E460
D0D4
B6E4
ENDCHAR
STARTCHAR eacute_x
ENCODING -1
SWIDTH 760 0
DWIDTH 7 0
BBX 7 7 0 0
BITMAP
0500
0404
29D8
A8E4
E4E0
D1E4
B974
ENDCHAR
STARTCHAR f_f_t
ENCODING -1
SWIDTH 780 0
DWIDTH 7 0
BBX 10 9 -2 -2
BITMAP
02AA40
077280
07B780
0AA340
0D9700
0DD710
1DC780
A9C000
BB4000
ENDCHAR
STARTCHAR f_i_x
ENCODING -1
SWIDTH 898 0
DWIDTH 8 0
BBX 11 9 -2 -2
BITMAP
02A400
031010
077760
0A7290
0D6280
0DA284
1C79E0
680000
B40000
ENDCHAR
STARTCHAR f_i_z
ENCODING -1
SWIDTH 904 0
DWIDTH 8 0
BBX 10 9 -2 -2
BITMAP
02A400
031000
0776B0
0A71D0
0D6180
0DA350
1C7B90
680000
B40000
ENDCHAR
STARTCHAR f_l_x
ENCODING -1
SWIDTH 912 0
DWIDTH 8 0
BBX 11 9 -2 -2
BITMAP
02A400
072810
077760
0A36A0
0D72C0
0D62C4
1C78E0
680000
B40000
ENDCHAR
STARTCHAR f_l_z
ENCODING -1
SWIDTH 938 0
DWIDTH 8 0
BBX 11 9 -2 -2
BITMAP
02A400
072800
0776B4
0A35A0
0D70C0
0D6290
1C77A0
680000
B40000
ENDCHAR
STARTCHAR f_t
ENCODING -1
SWIDTH 548 0
DWIDTH 5 0
BBX 7 9 -2 -2
BITMAP
02A4
0728
0778
0A30
0D70
0DA4
1C78
6800
B400
ENDCHAR
STARTCHAR f_u
ENCODING -1
SWIDTH 772 0
DWIDTH 7 0
BBX 9 9 -2 -2
BITMAP
02D000
070000
077740
0A7340
0D6700
0DAB40
1C7B80
680000
B40000
ENDCHAR
STARTCHAR f_x
ENCODING -1
SWIDTH 663 0
DWIDTH 6 0
BBX 8 9 -2 -2
BITMAP
02D0
0701
0776
0A39
0D38
0D69
1CDE
6800
B400
ENDCHAR
STARTCHAR g_p
ENCODING -1
SWIDTH 975 0
DWIDTH 9 0
BBX 9 8 0 -2
BITMAP
001400
2B7B40
A73680
D67240
DA6340
BEFE00
2DD000
78C000
ENDCHAR
STARTCHAR g_x
ENCODING -1
SWIDTH 892 0
DWIDTH 8 0
BBX 9 8 0 -2
BITMAP
000100
2B7600
A73500
D72800
DA2840
BE5E00
1D0000
780000
ENDCHAR
STARTCHAR g_z
ENCODING -1
SWIDTH 907 0
DWIDTH 8 0
BBX 8 7 0 -2
BITMAP
2B6B
A71D
D61C
DA35
BD7A
5D00
7800
ENDCHAR
STARTCHAR i_x
ENCODING -1
SWIDTH 631 0
DWIDTH 6 0
BBX 6 7 0 0
BITMAP
3000
1000
6750
A750
D380
D750
F6D0
ENDCHAR
STARTCHAR i_z
ENCODING -1
SWIDTH 637 0
DWIDTH 6 0
BBX 6 7 0 0
BITMAP
3000
1000
66D0
A5C0
D240
D740
EF80
ENDCHAR
STARTCHAR iacute_x
ENCODING -1
SWIDTH 631 0
DWIDTH 6 0
BBX 6 7 0 0
BITMAP
1400
2000
6750
A750
D380
D750
F6D0
ENDCHAR
STARTCHAR iacute_z
ENCODING -1
SWIDTH 637 0
DWIDTH 6 0
BBX 6 7 0 0
BITMAP
1400
1000
66D0
A5C0
D240
D740
EF80
ENDCHAR
STARTCHAR j_x
ENCODING -1
SWIDTH 624 0
DWIDTH 6 0
BBX 8 10 -2 -2
BITMAP
0100
0300
0009
0675
0A78
0D34
0D75
1D2D
6800
B400
ENDCHAR
STARTCHAR j_z
ENCODING -1
SWIDTH 618 0
DWIDTH 6 0
BBX 8 10 -2 -2
BITMAP
0100
0300
0000
07AD
0A68
0D34
0DA4
1CF8
A800
B400
ENDCHAR
STARTCHAR l_x
ENCODING -1
SWIDTH 631 0
DWIDTH 6 0
BBX 6 7 0 0
BITMAP
1000
7000
7750
A750
9380
D750
F6D0
ENDCHAR
STARTCHAR l_z
ENCODING -1
SWIDTH 635 0
DWIDTH 6 0
BBX 6 7 0 0
BITMAP
3400
7000
A6D0
A5C0
D340
D740
EF80
ENDCHAR
STARTCHAR m_x
ENCODING -1
SWIDTH 1124 0
DWIDTH 10 0
BBX 12 5 -1 0
BITMAP
1EACD8
29DCA8
369CB0
3768B1
735E38
ENDCHAR
STARTCHAR m_z
ENCODING -1
SWIDTH 1125 0
DWIDTH 10 0
BBX 11 5 -1 0
BITMAP
1FACAC
29DC74
369C60
3768D4
735EE4
ENDCHAR
STARTCHAR n_z
ENCODING -1
SWIDTH 882 0
DWIDTH 8 0
BBX 9 5 -1 0
BITMAP
1F9B80
298740
368A00
364D40
72AE40
ENDCHAR
STARTCHAR o_ae
ENCODING -1
SWIDTH 1089 0
DWIDTH 10 0
BBX 10 5 0 0
BITMAP
296A90
A64B50
D56E40
D9DE10
B4E780
ENDCHAR
STARTCHAR o_s
ENCODING -1
SWIDTH 786 0
DWIDTH 7 0
BBX 7 5 0 0
BITMAP
2974
A674
D534
D9B8
B5B4
ENDCHAR
STARTCHAR o_s_x
ENCODING -1
SWIDTH 1132 0
DWIDTH 10 0
BBX 11 6 0 0
BITMAP
000010
297760
A676A0
D536D0
D9BAC4
B5B4E0
ENDCHAR
STARTCHAR o_s_z
ENCODING -1
SWIDTH 1139 0
DWIDTH 10 0
BBX 10 5 0 0
BITMAP
2976B0
A67590
D535C0
D9B640
B5B7A0
ENDCHAR
STARTCHAR o_x
ENCODING -1
SWIDTH 851 0
DWIDTH 8 0
BBX 8 6 0 0
BITMAP
0004
29B5
A6B4
D574
D9B5
A56D
ENDCHAR
STARTCHAR oacute_s
ENCODING -1
SWIDTH 787 0
DWIDTH 7 0
BBX 7 7 0 0
BITMAP
0500
0400
2974
A674
D534
D9B8
B5B4
ENDCHAR
STARTCHAR oacute_s_x
ENCODING -1
SWIDTH 1141 0
DWIDTH 10 0
BBX 10 7 0 0
BITMAP
050000
040000
2976B0
A67590
D535C0
D9B640
B5B7A0
ENDCHAR
STARTCHAR oacute_s_z
ENCODING -1
SWIDTH 1140 0
DWIDTH 10 0
BBX 10 7 0 0
BITMAP
050000
040000
2976B0
A67590
D535C0
D9B640
B5B7A0
ENDCHAR
STARTCHAR oacute_x
ENCODING -1
SWIDTH 852 0
DWIDTH 8 0
BBX 8 7 0 0
BITMAP
0500
0404
29B5
A6B4
D574
D9B5
A56D
ENDCHAR
STARTCHAR r_x
ENCODING -1
SWIDTH 784 0
DWIDTH 7 0
BBX 9 6 -1 0
BITMAP
000200
1E7200
293900
342800
346840
70DE00
ENDCHAR
STARTCHAR r_z
ENCODING -1
SWIDTH 654 0
DWIDTH 6 0
BBX 7 5 -1 0
BITMAP
1EB8
2970
34A0
35D4
72E4
ENDCHAR
STARTCHAR s_x
ENCODING -1
SWIDTH 727 0
DWIDTH 7 0
BBX 8 5 -1 0
BITMAP
0AA9
1E75
1A74
6B75
2D2D
ENDCHAR
STARTCHAR s_z
ENCODING -1
SWIDTH 744 0
DWIDTH 7 0
BBX 8 5 -1 0
BITMAP
0E6D
1A5C
1A34
6A74
2DF8
ENDCHAR
STARTCHAR t_x
ENCODING -1
SWIDTH 631 0
DWIDTH 6 0
BBX 6 7 0 0
BITMAP
1000
7040
BB50
A740
D340
D750
F6D0
ENDCHAR
STARTCHAR t_z
ENCODING -1
SWIDTH 704 0
DWIDTH 6 0
BBX 6 7 0 0
BITMAP
1000
7000
B6B0
A1A0
D1C0
D290
A7A0
ENDCHAR
STARTCHAR u_v
ENCODING -1
SWIDTH 923 0
DWIDTH 8 0
BBX 8 5 0 0
BITMAP
6736
A735
DA72
DD65
ED78
ENDCHAR
STARTCHAR u_x
ENCODING -1
SWIDTH 878 0
DWIDTH 8 0
BBX 8 5 0 0
BITMAP
6776
A735
DA38
DE39
EB9E
ENDCHAR
STARTCHAR y_p
ENCODING -1
SWIDTH 954 0
DWIDTH 9 0
BBX 9 8 0 -2
BITMAP
001000
673B00
A77340
DA6340
DDA700
EEFD00
6DD000
798000
ENDCHAR
STARTCHAR y_x
ENCODING -1
SWIDTH 871 0
DWIDTH 8 0
BBX 8 8 0 -2
BITMAP
0006
6772
A738
DA38
DD79
ED5D
6C00
7800
ENDCHAR
STARTCHAR y_z
ENCODING -1
SWIDTH 888 0
DWIDTH 8 0
BBX 8 7 0 -2
BITMAP
676E
A71D
DA28
DD35
FDB9
6C00
7400
ENDCHAR
STARTCHAR a_x.end
ENCODING -1
SWIDTH 884 0
DWIDTH 8 0
BBX 8 6 0 0
BITMAP
0001
2B76
A729
D72C
DA28
B79D
ENDCHAR
STARTCHAR b_s.end
ENCODING -1
SWIDTH 731 0
DWIDTH 7 0
BBX 7 7 0 0
BITMAP
2400
7000
7D74
A674
D628
D9A8
B8B4
ENDCHAR
STARTCHAR e_x.end
ENCODING -1
SWIDTH 747 0
DWIDTH 7 0
BBX 7 6 0 0
BITMAP
0004
29D8
A9E4
E4E0
D1E0
B974
ENDCHAR
STARTCHAR f_u.end
ENCODING -1
SWIDTH 724 0
DWIDTH 7 0
BBX 9 9 -2 -2
BITMAP
02D000
070000
077740
0A7340
0D6700
0DAB00
1C7B40
680000
B40000
ENDCHAR
STARTCHAR fi.end
ENCODING -1
SWIDTH 479 0
DWIDTH 4 0
BBX 7 9 -2 -2
BITMAP
02A4
0310
0774
0A70
0D60
0DA0
1C70
6800
B400
ENDCHAR
STARTCHAR fl.end
ENCODING -1
SWIDTH 490 0
DWIDTH 4 0
BBX 7 9 -2 -2
BITMAP
02A4
0728
0774
0A34
0D70
0D60
1C70
6800
B400
ENDCHAR
STARTCHAR i_x.end
ENCODING -1
SWIDTH 616 0
DWIDTH 6 0
BBX 6 7 0 0
BITMAP
3000
1000
6750
A750
D380
D740
F6C0
ENDCHAR
STARTCHAR o_s.end
ENCODING -1
SWIDTH 718 0
DWIDTH 6 0
BBX 7 5 0 0
BITMAP
2974
A674
D534
D9B4
B5B0
ENDCHAR
STARTCHAR oacute_s.end
ENCODING -1
SWIDTH 719 0
DWIDTH 6 0
BBX 7 7 0 0
BITMAP
0500
0400
2974
A674
D534
D9B4
B5B0
ENDCHAR
STARTCHAR u_x.end
ENCODING -1
SWIDTH 863 0
DWIDTH 8 0
BBX 8 5 0 0
BITMAP
6776
A735
DA38
DE38
EB9D
ENDCHAR
STARTCHAR uni0424.loclBGR
ENCODING -1
SWIDTH 840 0
DWIDTH 8 0
BBX 8 9 0 -1
BITMAP
0580
15C0
0AE4
728D
A289
934D
A728
2B90
0600
ENDCHAR
STARTCHAR uni0492.loclBSH
ENCODING -1
SWIDTH 459 0
DWIDTH 4 0
BBX 6 7 0 0
BITMAP
6FD0
8D00
5E00
1800
2800
3400
3400
ENDCHAR
STARTCHAR uni04AA.loclCHU
ENCODING -1
SWIDTH 497 0
DWIDTH 4 0
BBX 5 9 0 -2
BITMAP
1A40
3480
7000
A000
A000
A040
7E00
0800
1400
ENDCHAR
STARTCHAR uni0418.loclSRB
ENCODING -1
SWIDTH 705 0
DWIDTH 6 0
BBX 7 7 0 0
BITMAP
1A28
9D74
9DF0
5EB0
2DA0
2890
34D0
ENDCHAR
STARTCHAR uni0419.loclSRB
ENCODING -1
SWIDTH 705 0
DWIDTH 6 0
BBX 7 10 0 0
BITMAP
0210
0190
0000
1A28
9D74
9DF0
5EB0
2DA0
2890
34D0
ENDCHAR
STARTCHAR uni0430.end
ENCODING -1
SWIDTH 467 0
DWIDTH 4 0
BBX 5 5 0 0
BITMAP
2B40
A700
D700
DA00
BB00
ENDCHAR
STARTCHAR uni0432.end
ENCODING -1
SWIDTH 406 0
DWIDTH 4 0
BBX 4 7 0 0
BITMAP
19
36
65
AD
D5
D9
B8
ENDCHAR
STARTCHAR uni0434.end
ENCODING -1
SWIDTH 480 0
DWIDTH 4 0
BBX 5 7 0 -2
BITMAP
2B40
A700
D600
DA00
BD00
5D00
7800
ENDCHAR
STARTCHAR uni0435.end
ENCODING -1
SWIDTH 366 0
DWIDTH 3 0
BBX 3 5 0 0
BITMAP
28
A8
E4
D0
B4
ENDCHAR
STARTCHAR uni0451.end
ENCODING -1
SWIDTH 366 0
DWIDTH 3 0
BBX 4 7 0 0
BITMAP
26
00
28
A8
E4
D0
B4
ENDCHAR
STARTCHAR uni0436.end
ENCODING -1
SWIDTH 848 0
DWIDTH 8 0
BBX 8 5 0 0
BITMAP
659A
5AA5
1FB0
6770
A729
ENDCHAR
STARTCHAR uni0437.end
ENCODING -1
SWIDTH 426 0
DWIDTH 4 0
BBX 4 7 0 -2
BITMAP
2D
4A
49
28
1C
5C
78
ENDCHAR
STARTCHAR uni0438.end
ENCODING -1
SWIDTH 459 0
DWIDTH 4 0
BBX 4 5 0 0
BITMAP
67
A7
DA
DD
EA
ENDCHAR
STARTCHAR uni0439.end
ENCODING -1
SWIDTH 459 0
DWIDTH 4 0
BBX 4 7 0 0
BITMAP
25
19
67
A7
DA
DD
EA
ENDCHAR
STARTCHAR uni043A.end
ENCODING -1
SWIDTH 501 0
DWIDTH 5 0
BBX 6 5 -1 0
BITMAP
1990
2A00
3B40
3640
7280
ENDCHAR
STARTCHAR uni043B.end
ENCODING -1
SWIDTH 511 0
DWIDTH 5 0
BBX 6 5 -1 0
BITMAP
02D0
05D0
05C0
59C0
24D0
ENDCHAR
STARTCHAR uni043C.end
ENCODING -1
SWIDTH 780 0
DWIDTH 7 0
BBX 8 5 -1 0
BITMAP
028B
068E
05AA
55ED
25CA
ENDCHAR
STARTCHAR uni043D.end
ENCODING -1
SWIDTH 460 0
DWIDTH 4 0
BBX 5 5 -1 0
BITMAP
18C0
29C0
3A80
3640
7280
ENDCHAR
STARTCHAR uni043E.end
ENCODING -1
SWIDTH 439 0
DWIDTH 4 0
BBX 4 5 0 0
BITMAP
29
A5
D5
D8
B4
ENDCHAR
STARTCHAR uni043F.end
ENCODING -1
SWIDTH 454 0
DWIDTH 4 0
BBX 5 5 -1 0
BITMAP
1F80
2980
3680
3640
7280
ENDCHAR
STARTCHAR uni0441.end
ENCODING -1
SWIDTH 341 0
DWIDTH 3 0
BBX 3 5 0 0
BITMAP
28
A4
D0
D0
B4
ENDCHAR
STARTCHAR uni0442.end
ENCODING -1
SWIDTH 701 0
DWIDTH 6 0
BBX 7 5 -1 0
BITMAP
1FAC
29DC
369C
3768
735C
ENDCHAR
STARTCHAR uni0443.end
ENCODING -1
SWIDTH 460 0
DWIDTH 4 0
BBX 4 7 0 -2
BITMAP
67
A7
DA
DD
FD
6C
74
ENDCHAR
STARTCHAR uni0445.end
ENCODING -1
SWIDTH 500 0
DWIDTH 5 0
BBX 5 6 0 0
BITMAP
0140
2940
4E00
4D00
1D00
5700
ENDCHAR
STARTCHAR uni0447.end
ENCODING -1
SWIDTH 459 0
DWIDTH 4 0
BBX 4 5 0 0
BITMAP
67
A7
AE
59
0A
ENDCHAR
STARTCHAR uni0448.end
ENCODING -1
SWIDTH 706 0
DWIDTH 6 0
BBX 7 5 0 0
BITMAP
6734
A770
DA70
DDA0
EBB0
ENDCHAR
STARTCHAR uni044B.end
ENCODING -1
SWIDTH 608 0
DWIDTH 5 0
BBX 6 5 0 0
BITMAP
6190
ADD0
D9C0
D980
B5D0
ENDCHAR
STARTCHAR uni0455.end
ENCODING -1
SWIDTH 316 0
DWIDTH 3 0
BBX 4 6 -1 0
BITMAP
05
0E
1A
1A
5A
2D
ENDCHAR
STARTCHAR uni0456.end
ENCODING -1
SWIDTH 209 0
DWIDTH 2 0
BBX 2 7 0 0
BITMAP
30
10
60
A0
D0
D0
E0
ENDCHAR
STARTCHAR uni0458.end
ENCODING -1
SWIDTH 213 0
DWIDTH 2 0
BBX 4 10 -2 -2
BITMAP
01
03
00
06
0A
0D
0D
1C
68
B4
ENDCHAR
STARTCHAR uni044E.end
ENCODING -1
SWIDTH 675 0
DWIDTH 6 0
BBX 7 5 -1 0
BITMAP
18A4
2988
3B58
3764
72E0
ENDCHAR
STARTCHAR uni044F.end
ENCODING -1
SWIDTH 480 0
DWIDTH 4 0
BBX 6 5 -1 0
BITMAP
0AD0
19C0
0A80
6A80
25C0
ENDCHAR
STARTCHAR uni0437.init
ENCODING -1
SWIDTH 455 0
DWIDTH 4 0
BBX 5 7 0 -2
BITMAP
6C00
4D00
0C00
7440
2900
6800
B400
ENDCHAR
STARTCHAR uni0445.init
ENCODING -1
SWIDTH 390 0
DWIDTH 4 0
BBX 5 6 -1 0
BITMAP
0240
2940
1E00
1C00
5D40
5B40
ENDCHAR
STARTCHAR uni0436.loclBGR
ENCODING -1
SWIDTH 882 0
DWIDTH 8 0
BBX 8 7 0 0
BITMAP
00D0
01C0
65DA
5AA5
1FB0
6771
A729
ENDCHAR
STARTCHAR uni043A.loclBGR
ENCODING -1
SWIDTH 518 0
DWIDTH 5 0
BBX 6 7 -1 0
BITMAP
0D00
1C00
1980
2F40
3A80
3690
72D0
ENDCHAR
STARTCHAR uni044E.loclBGR
ENCODING -1
SWIDTH 675 0
DWIDTH 6 0
BBX 8 7 -1 0
BITMAP
0D00
1C00
1CA4
2999
3B58
3764
72E0
ENDCHAR
STARTCHAR uni0493.loclBSH
ENCODING -1
SWIDTH 398 0
DWIDTH 4 0
BBX 5 5 -1 0
BITMAP
2F80
3400
3900
7000
7800
ENDCHAR
STARTCHAR uni04AB.loclCHU
ENCODING -1
SWIDTH 384 0
DWIDTH 3 0
BBX 4 7 0 -2
BITMAP
28
A4
D0
D1
B8
24
14
ENDCHAR
STARTCHAR uni0453.loclMKD
ENCODING -1
SWIDTH 267 0
DWIDTH 2 0
BBX 3 9 0 0
BITMAP
08
14
A4
00
60
A0
D0
D4
E0
ENDCHAR
STARTCHAR uni0433.loclSRB
ENCODING -1
SWIDTH 267 0
DWIDTH 2 0
BBX 3 7 0 0
BITMAP
A4
00
60
A0
D0
D4
E0
ENDCHAR
STARTCHAR uni043F.loclSRB
ENCODING -1
SWIDTH 505 0
DWIDTH 5 0
BBX 5 7 0 0
BITMAP
2A00
0000
6700
A700
DA00
DD40
EB40
ENDCHAR
STARTCHAR uni0442.loclSRB
ENCODING -1
SWIDTH 752 0
DWIDTH 7 0
BBX 7 7 0 0
BITMAP
2AA0
0000
6734
A770
DA70
DDA4
EBB4
ENDCHAR
STARTCHAR uni04150437
ENCODING -1
SWIDTH 940 0
DWIDTH 8 0
BBX 9 9 0 -2
BITMAP
1A4000
254000
282D00
744A00
A04900
E12840
791D00
006C00
007800
ENDCHAR
STARTCHAR uni04150445
ENCODING -1
SWIDTH 797 0
DWIDTH 7 0
BBX 8 7 0 0
BITMAP
0A40
2540
240C
2894
B0B0
E0B1
BA78
ENDCHAR
STARTCHAR uni04010437
ENCODING -1
SWIDTH 940 0
DWIDTH 8 0
BBX 9 12 0 -2
BITMAP
098000
000000
000000
1A4000
254000
282D00
744A00
A04900
E12840
791D00
006C00
007800
ENDCHAR
STARTCHAR uni04010445
ENCODING -1
SWIDTH 797 0
DWIDTH 7 0
BBX 8 9 0 0
BITMAP
0980
0000
0A40
2540
240C
2894
B0B0
E0B1
BA78
ENDCHAR
STARTCHAR uni04210437
ENCODING -1
SWIDTH 973 0
DWIDTH 9 0
BBX 9 9 0 -2
BITMAP
1A4000
348000
701E00
A01700
A04600
B15C40
7D0E40
001D00
002800
ENDCHAR
STARTCHAR uni04210445
ENCODING -1
SWIDTH 814 0
DWIDTH 7 0
BBX 8 7 0 0
BITMAP
1A40
3480
7048
A0A4
A074
A0B1
7A38
ENDCHAR
STARTCHAR uni04040437
ENCODING -1
SWIDTH 973 0
DWIDTH 9 0
BBX 9 9 0 -2
BITMAP
194000
348000
791E00
A01700
A04600
B15C40
7D0E40
001D00
002800
ENDCHAR
STARTCHAR uni04040445
ENCODING -1
SWIDTH 814 0
DWIDTH 7 0
BBX 8 7 0 0
BITMAP
1940
3480
79A4
A0A8
A070
B0B1
7A38
ENDCHAR
STARTCHAR uni04300445
ENCODING -1
SWIDTH 899 0
DWIDTH 8 0
BBX 9 6 0 0
BITMAP
000100
2B7600
A72900
D72C00
DA2840
B79E00
ENDCHAR
STARTCHAR uni04300447
ENCODING -1
SWIDTH 993 0
DWIDTH 9 0
BBX 9 5 0 0
BITMAP
2B7740
A77340
D77B00
DA1B40
BB0780
ENDCHAR
STARTCHAR uni04310433
ENCODING -1
SWIDTH 816 0
DWIDTH 7 0
BBX 8 7 0 0
BITMAP
1FC0
1900
1978
A66C
D674
D9D1
B4B8
ENDCHAR
STARTCHAR uni04310453
ENCODING -1
SWIDTH 816 0
DWIDTH 7 0
BBX 8 7 0 0
BITMAP
1FC8
1910
1978
A66C
D674
D9D1
B4B8
ENDCHAR
STARTCHAR uni04310451
ENCODING -1
SWIDTH 814 0
DWIDTH 7 0
BBX 8 8 0 0
BITMAP
0100
2FA6
0800
2928
A598
D5E4
D9C1
B4A4
ENDCHAR
STARTCHAR uni04310436
ENCODING -1
SWIDTH 1261 0
DWIDTH 11 0
BBX 12 7 0 0
BITMAP
1FC000
190000
29B299
A62771
D62BA0
D93761
B59678
ENDCHAR
STARTCHAR uni04310439
ENCODING -1
SWIDTH 935 0
DWIDTH 8 0
BBX 9 7 0 0
BITMAP
1FB100
191900
29A700
A59A00
D5DA00
D9DD40
B4EA00
ENDCHAR
STARTCHAR uni0431045E
ENCODING -1
SWIDTH 916 0
DWIDTH 8 0
BBX 9 9 0 -2
BITMAP
1E6900
180000
29A700
A59A00
D5DA00
D9DD40
B4ED00
006C00
00B400
ENDCHAR
STARTCHAR uni0431044D
ENCODING -1
SWIDTH 860 0
DWIDTH 8 0
BBX 8 7 0 0
BITMAP
1FC0
1900
287C
A64D
D62D
D95C
B5A4
ENDCHAR
STARTCHAR uni04310456
ENCODING -1
SWIDTH 697 0
DWIDTH 6 0
BBX 7 7 0 0
BITMAP
1FB0
1910
28A0
A590
D5D0
D9D4
B4E0
ENDCHAR
STARTCHAR uni04310457
ENCODING -1
SWIDTH 697 0
DWIDTH 6 0
BBX 7 7 0 0
BITMAP
2F98
0800
29A0
A590
D5D0
D9D4
B4E0
ENDCHAR
STARTCHAR uni04310458
ENCODING -1
SWIDTH 669 0
DWIDTH 6 0
BBX 7 10 0 -2
BITMAP
1A10
2EA0
0800
29A0
A590
D5D0
D9D4
B6D0
0B80
0B40
ENDCHAR
STARTCHAR uni04320433
ENCODING -1
SWIDTH 837 0
DWIDTH 8 0
BBX 8 7 0 0
BITMAP
1900
3600
6578
AE1C
D574
D9D1
B8B8
ENDCHAR
STARTCHAR uni04320453
ENCODING -1
SWIDTH 837 0
DWIDTH 8 0
BBX 8 7 0 0
BITMAP
1908
3614
6578
AE1C
D574
D9D1
B8B8
ENDCHAR
STARTCHAR uni04320436
ENCODING -1
SWIDTH 1279 0
DWIDTH 12 0
BBX 12 7 0 0
BITMAP
190000
360000
65B699
AE1A71
D52BB0
D96771
B9A738
ENDCHAR
STARTCHAR uni04320437
ENCODING -1
SWIDTH 824 0
DWIDTH 7 0
BBX 8 9 0 -2
BITMAP
1900
3600
65B4
AE28
D524
D9A1
B874
01B0
01E0
ENDCHAR
STARTCHAR uni04320445
ENCODING -1
SWIDTH 851 0
DWIDTH 8 0
BBX 8 7 0 0
BITMAP
1900
3605
6561
AD38
D534
D9B5
B95D
ENDCHAR
STARTCHAR uni04330437
ENCODING -1
SWIDTH 840 0
DWIDTH 8 0
BBX 8 7 0 -2
BITMAP
7878
5D6C
7528
D5A1
F435
0074
01E0
ENDCHAR
STARTCHAR uni04330445
ENCODING -1
SWIDTH 740 0
DWIDTH 7 0
BBX 7 5 0 0
BITMAP
7A94
5DD4
74D0
D2D4
F874
ENDCHAR
STARTCHAR uni04330447
ENCODING -1
SWIDTH 880 0
DWIDTH 8 0
BBX 8 5 0 0
BITMAP
78DD
5DCD
76EC
D56D
E41E
ENDCHAR
STARTCHAR uni04530437
ENCODING -1
SWIDTH 840 0
DWIDTH 8 0
BBX 8 9 0 -2
BITMAP
0900
0400
7878
5D6C
7528
D5A1
F435
0074
01E0
ENDCHAR
STARTCHAR uni04530445
ENCODING -1
SWIDTH 740 0
DWIDTH 7 0
BBX 7 7 0 0
BITMAP
0900
0800
7A94
5DD4
74D0
D2D4
F874
ENDCHAR
STARTCHAR uni04530447
ENCODING -1
SWIDTH 880 0
DWIDTH 8 0
BBX 8 7 0 0
BITMAP
0900
0400
78DD
5DCD
76EC
D56D
E41E
ENDCHAR
STARTCHAR uni04340447
ENCODING -1
SWIDTH 1010 0
DWIDTH 9 0
BBX 10 7 0 -2
BITMAP
2B7680
A73740
D67B40
DA5710
BE0380
2D0000
780000
ENDCHAR
STARTCHAR uni04340458
ENCODING -1
SWIDTH 746 0
DWIDTH 7 0
BBX 7 10 0 -2
BITMAP
0014
0028
0000
2B74
A734
D670
DAA4
BDA4
1DD0
7B80
ENDCHAR
STARTCHAR uni04350437
ENCODING -1
SWIDTH 876 0
DWIDTH 8 0
BBX 8 7 0 -2
BITMAP
2878
A95D
E51C
D175
B829
0078
00B0
ENDCHAR
STARTCHAR uni04350445
ENCODING -1
SWIDTH 762 0
DWIDTH 7 0
BBX 7 6 0 0
BITMAP
0004
29D8
A9E4
E4E0
D1E4
B974
ENDCHAR
STARTCHAR uni04350447
ENCODING -1
SWIDTH 889 0
DWIDTH 8 0
BBX 9 5 0 0
BITMAP
29D900
A9CD00
E5FC00
D56D40
B41E00
ENDCHAR
STARTCHAR uni04510437
ENCODING -1
SWIDTH 876 0
DWIDTH 8 0
BBX 8 9 0 -2
BITMAP
2600
0000
2878
A95D
E51C
D175
B829
0078
00B0
ENDCHAR
STARTCHAR uni04510445
ENCODING -1
SWIDTH 762 0
DWIDTH 7 0
BBX 7 7 0 0
BITMAP
2600
0004
29D8
A9E4
E4E0
D1E4
B974
ENDCHAR
STARTCHAR uni04510447
ENCODING -1
SWIDTH 889 0
DWIDTH 8 0
BBX 9 7 0 0
BITMAP
260000
000000
29D900
A9CD00
E5FC00
D56D40
B41E00
ENDCHAR
STARTCHAR uni04360447
ENCODING -1
SWIDTH 1392 0
DWIDTH 13 0
BBX 13 5 0 0
BITMAP
659AA700
5AA5A600
1FB0EE00
67715D40
A7290B40
ENDCHAR
STARTCHAR uni04370437
ENCODING -1
SWIDTH 921 0
DWIDTH 8 0
BBX 9 7 0 -2
BITMAP
2D2D00
4A4A00
4A4D00
297840
1D1D00
6C6C00
787400
ENDCHAR
STARTCHAR uni04380447
ENCODING -1
SWIDTH 1010 0
DWIDTH 9 0
BBX 10 5 0 0
BITMAP
673680
A73740
DA7B40
DD5710
EB4380
ENDCHAR
STARTCHAR uni04390447
ENCODING -1
SWIDTH 1010 0
DWIDTH 9 0
BBX 10 7 0 0
BITMAP
250000
190000
673680
A73740
DA7B40
DD5710
EB4380
ENDCHAR
STARTCHAR uni043A0447
ENCODING -1
SWIDTH 1016 0
DWIDTH 9 0
BBX 11 5 -1 0
BITMAP
1999A0
2A0DA0
3B5ED0
3655D4
72D0E0
ENDCHAR
STARTCHAR uni045C0447
ENCODING -1
SWIDTH 1016 0
DWIDTH 9 0
BBX 11 7 -1 0
BITMAP
014000
010000
1999A0
2A0DA0
3B5ED0
3655D4
72D0E0
ENDCHAR
STARTCHAR uni043B0447
ENCODING -1
SWIDTH 1061 0
DWIDTH 10 0
BBX 11 5 -1 0
BITMAP
02D670
05DA70
05CEE0
69D594
25E0B4
ENDCHAR
STARTCHAR uni043C0447
ENCODING -1
SWIDTH 1276 0
DWIDTH 11 0
BBX 13 5 -1 0
BITMAP
034DA700
075DAA00
076CEE00
66ED5D40
269E0B00
ENDCHAR
STARTCHAR uni043D0447
ENCODING -1
SWIDTH 1011 0
DWIDTH 9 0
BBX 11 5 -1 0
BITMAP
18CDA0
29CDD0
3A9DD0
3695C4
72D0E0
ENDCHAR
STARTCHAR uni043E0433
ENCODING -1
SWIDTH 804 0
DWIDTH 7 0
BBX 8 5 0 0
BITMAP
2978
A65C
D574
D9D1
B4E4
ENDCHAR
STARTCHAR uni043E0453
ENCODING -1
SWIDTH 804 0
DWIDTH 7 0
BBX 8 7 0 0
BITMAP
0008
0004
2978
A65C
D574
D9D1
B4E4
ENDCHAR
STARTCHAR uni043E0436
ENCODING -1
SWIDTH 1271 0
DWIDTH 11 0
BBX 12 5 0 0
BITMAP
29B699
A62A71
D52BA0
D92761
B5A638
ENDCHAR
STARTCHAR uni043E0437
ENCODING -1
SWIDTH 837 0
DWIDTH 8 0
BBX 8 7 0 -2
BITMAP
29B8
A62C
D528
D8A1
B435
0074
01E0
ENDCHAR
STARTCHAR uni043E043B
ENCODING -1
SWIDTH 992 0
DWIDTH 9 0
BBX 9 5 0 0
BITMAP
290B40
A51740
D52700
D96740
B99780
ENDCHAR
STARTCHAR uni043E043C
ENCODING -1
SWIDTH 1207 0
DWIDTH 11 0
BBX 11 5 0 0
BITMAP
290D34
A51DB0
D51DB0
D95EA4
B99A74
ENDCHAR
STARTCHAR uni043E0445
ENCODING -1
SWIDTH 850 0
DWIDTH 8 0
BBX 8 6 0 0
BITMAP
0004
29B5
A6B4
D574
D9B5
A56D
ENDCHAR
STARTCHAR uni043E0459
ENCODING -1
SWIDTH 1179 0
DWIDTH 11 0
BBX 11 5 0 0
BITMAP
290B40
A51790
D52774
D96730
B993D0
ENDCHAR
STARTCHAR uni043E044D
ENCODING -1
SWIDTH 867 0
DWIDTH 8 0
BBX 8 5 0 0
BITMAP
296C
A64D
D52D
D95C
B5A4
ENDCHAR
STARTCHAR uni043F0447
ENCODING -1
SWIDTH 1010 0
DWIDTH 9 0
BBX 11 5 -1 0
BITMAP
1F8DA0
298DD0
369ED0
3655C4
72D0E0
ENDCHAR
STARTCHAR uni04400437
ENCODING -1
SWIDTH 890 0
DWIDTH 8 0
BBX 10 8 -1 -2
BITMAP
140000
2E9B00
29D340
35C700
369D50
7E0A40
A01A00
902D00
ENDCHAR
STARTCHAR uni04410437
ENCODING -1
SWIDTH 876 0
DWIDTH 8 0
BBX 8 7 0 -2
BITMAP
2878
A45D
D11C
D175
B829
0078
00B0
ENDCHAR
STARTCHAR uni04410445
ENCODING -1
SWIDTH 755 0
DWIDTH 7 0
BBX 7 6 0 0
BITMAP
0004
29D8
A4D4
D0E0
D1E4
B974
ENDCHAR
STARTCHAR uni04410447
ENCODING -1
SWIDTH 889 0
DWIDTH 8 0
BBX 8 5 0 0
BITMAP
29D9
A5CD
D2EC
D56C
B41E
ENDCHAR
STARTCHAR uni0441044A
ENCODING -1
SWIDTH 841 0
DWIDTH 8 0
BBX 8 5 0 0
BITMAP
29B0
A5A8
D0D9
D2CD
B8F4
ENDCHAR
STARTCHAR uni04420447
ENCODING -1
SWIDTH 1257 0
DWIDTH 11 0
BBX 13 5 -1 0
BITMAP
1FACA600
29DCDA00
369CED00
37695D40
735D0E00
ENDCHAR
STARTCHAR uni04430447
ENCODING -1
SWIDTH 989 0
DWIDTH 9 0
BBX 9 7 0 -2
BITMAP
673340
A77340
DABB00
DD5B40
FD0740
6C0000
740000
ENDCHAR
STARTCHAR uni04430458
ENCODING -1
SWIDTH 725 0
DWIDTH 7 0
BBX 7 10 0 -2
BITMAP
0010
0024
0000
6734
A770
DAA0
DDA4
EDE0
6DC0
7B80
ENDCHAR
STARTCHAR uni045E0447
ENCODING -1
SWIDTH 989 0
DWIDTH 9 0
BBX 9 10 0 -2
BITMAP
250000
190000
000000
673340
A77340
DABB00
DD5B40
FD0740
6C0000
740000
ENDCHAR
STARTCHAR uni045E0458
ENCODING -1
SWIDTH 725 0
DWIDTH 7 0
BBX 7 10 0 -2
BITMAP
2524
1924
0000
6734
A770
DAA0
DDA4
EDE0
6DC0
7B80
ENDCHAR
STARTCHAR uni04440437
ENCODING -1
SWIDTH 1148 0
DWIDTH 10 0
BBX 11 9 0 -2
BITMAP
024000
034000
2BB2D0
A738A0
D634D0
DA7284
BFD1D0
0C06C0
180740
ENDCHAR
STARTCHAR uni04450447
ENCODING -1
SWIDTH 1027 0
DWIDTH 9 0
BBX 10 6 0 0
BITMAP
014000
296A80
4E3680
4D7B40
1D5750
574380
ENDCHAR
STARTCHAR uni0445044A
ENCODING -1
SWIDTH 1006 0
DWIDTH 9 0
BBX 9 6 0 0
BITMAP
010000
296900
4E1E40
4D2680
2D7640
576E00
ENDCHAR
STARTCHAR uni04470447
ENCODING -1
SWIDTH 1010 0
DWIDTH 9 0
BBX 10 5 0 0
BITMAP
673680
A73740
AE7B40
595710
0B4380
ENDCHAR
STARTCHAR uni04480447
ENCODING -1
SWIDTH 1257 0
DWIDTH 11 0
BBX 12 5 0 0
BITMAP
673698
A77368
DA73B4
DDA575
EBB438
ENDCHAR
STARTCHAR uni045F0447
ENCODING -1
SWIDTH 1010 0
DWIDTH 9 0
BBX 10 7 0 -2
BITMAP
673680
A73740
DA7B40
DD5710
FB4380
240000
140000
ENDCHAR
STARTCHAR uni044B0447
ENCODING -1
SWIDTH 1157 0
DWIDTH 10 0
BBX 11 5 0 0
BITMAP
619A70
ADD9A0
D9CFE0
D9D5D4
B5D0A0
ENDCHAR
STARTCHAR uni04550437
ENCODING -1
SWIDTH 840 0
DWIDTH 8 0
BBX 9 7 -1 -2
BITMAP
0E2E00
1A5B00
1A4A00
5B6840
2D0D40
001D00
007800
ENDCHAR
STARTCHAR uni04550445
ENCODING -1
SWIDTH 727 0
DWIDTH 7 0
BBX 8 5 -1 0
BITMAP
0AA9
1E75
1A74
6B75
2D2D
ENDCHAR
STARTCHAR uni04550447
ENCODING -1
SWIDTH 909 0
DWIDTH 8 0
BBX 10 5 -1 0
BITMAP
0E3680
1A3740
1A7B40
6B5750
2D0380
ENDCHAR
STARTCHAR uni04540437
ENCODING -1
SWIDTH 876 0
DWIDTH 8 0
BBX 8 7 0 -2
BITMAP
2878
A45D
D11C
D175
B829
0078
00B0
ENDCHAR
STARTCHAR uni04540445
ENCODING -1
SWIDTH 755 0
DWIDTH 7 0
BBX 7 6 0 0
BITMAP
0004
29D8
A5D4
E4E0
D1E4
B974
ENDCHAR
STARTCHAR uni04540447
ENCODING -1
SWIDTH 889 0
DWIDTH 8 0
BBX 8 5 0 0
BITMAP
29D9
A5CD
E6EC
D56C
B41E
ENDCHAR
STARTCHAR uni044D0437
ENCODING -1
SWIDTH 837 0
DWIDTH 8 0
BBX 9 7 -1 -2
BITMAP
1F6E00
0BCB00
034A00
572840
290D00
002D00
007800
ENDCHAR
STARTCHAR uni04560447
ENCODING -1
SWIDTH 763 0
DWIDTH 7 0
BBX 7 7 0 0
BITMAP
3000
1000
6334
A734
DBB0
D5A4
A074
ENDCHAR
STARTCHAR uni04570447
ENCODING -1
SWIDTH 763 0
DWIDTH 7 0
BBX 7 7 0 0
BITMAP
9800
0000
6334
A734
DBB0
D5A4
A074
ENDCHAR
STARTCHAR uni04570457
ENCODING -1
SWIDTH 543 0
DWIDTH 5 0
BBX 5 7 0 0
BITMAP
AA80
0000
6340
A700
D600
DA40
EB40
ENDCHAR
STARTCHAR uni04580447
ENCODING -1
SWIDTH 743 0
DWIDTH 7 0
BBX 9 10 -2 -2
BITMAP
010000
030000
000000
067340
0AA700
0DBA00
0D5A40
1D0740
680000
B40000
ENDCHAR
STARTCHAR uni04580458
ENCODING -1
SWIDTH 480 0
DWIDTH 4 0
BBX 7 10 -2 -2
BITMAP
0110
0334
0000
0670
0AA0
0DA0
0DD4
1DD0
69C0
BB40
ENDCHAR
STARTCHAR uni045B0447
ENCODING -1
SWIDTH 990 0
DWIDTH 9 0
BBX 10 9 -1 -2
BITMAP
0C0000
2E0000
2F5CD0
2A9DC0
36AFC0
375690
7741D0
1B0000
1D0000
ENDCHAR
STARTCHAR uni045B0458
ENCODING -1
SWIDTH 722 0
DWIDTH 7 0
BBX 8 10 -1 -2
BITMAP
0404
0C09
2E00
2F4C
2A9C
36A8
3769
7774
1B70
1EE0
ENDCHAR
STARTCHAR uni044E0433
ENCODING -1
SWIDTH 1050 0
DWIDTH 9 0
BBX 11 5 -1 0
BITMAP
18A5A0
299970
3B55D0
376744
72E2E0
ENDCHAR
STARTCHAR uni044E0453
ENCODING -1
SWIDTH 1050 0
DWIDTH 9 0
BBX 11 7 -1 0
BITMAP
000024
000010
18A5A0
299970
3B55D0
376744
72E2E0
ENDCHAR
STARTCHAR uni044E0436
ENCODING -1
SWIDTH 1507 0
DWIDTH 14 0
BBX 15 5 -1 0
BITMAP
18A59668
29986A84
3B547EC0
37659DC4
72E69CE4
ENDCHAR
STARTCHAR uni044E0437
ENCODING -1
SWIDTH 1073 0
DWIDTH 10 0
BBX 11 7 -1 -2
BITMAP
19A6E0
2B9D70
3754A0
3366C4
72E0E4
0001D0
000780
ENDCHAR
STARTCHAR uni044E043B
ENCODING -1
SWIDTH 1228 0
DWIDTH 11 0
BBX 13 5 -1 0
BITMAP
18A42E00
29885D00
3B545C00
37659C40
72E64E00
ENDCHAR
STARTCHAR uni044E043C
ENCODING -1
SWIDTH 1443 0
DWIDTH 13 0
BBX 14 5 -1 0
BITMAP
18A434D0
298875D0
3B5476C0
37656AC0
72E66DE0
ENDCHAR
STARTCHAR uni044E0445
ENCODING -1
SWIDTH 1088 0
DWIDTH 10 0
BBX 11 6 -1 0
BITMAP
000014
18A5D8
2999D4
3B54E0
376694
72E674
ENDCHAR
STARTCHAR uni044E0459
ENCODING -1
SWIDTH 1415 0
DWIDTH 13 0
BBX 14 5 -1 0
BITMAP
18A42E00
29885E40
3B545DD0
37659CD0
72E64F40
ENDCHAR
STARTCHAR uni044E044D
ENCODING -1
SWIDTH 1103 0
DWIDTH 10 0
BBX 11 5 -1 0
BITMAP
18A5B4
299928
3B54B4
376530
72E290
ENDCHAR
STARTCHAR uni044F0447
ENCODING -1
SWIDTH 1030 0
DWIDTH 9 0
BBX 11 5 -1 0
BITMAP
0ADAA0
19CDA0
0A8ED0
6A95D4
25D0E0
ENDCHAR
STARTCHAR uni04300445.liga
ENCODING -1
SWIDTH 884 0
DWIDTH 8 0
BBX 8 6 0 0
BITMAP
0001
2B76
A729
D72C
DA2C
B79D
ENDCHAR
STARTCHAR uni04300447.liga
ENCODING -1
SWIDTH 947 0
DWIDTH 9 0
BBX 9 5 0 0
BITMAP
2B7740
A77340
D77B00
DA1B00
BB0740
ENDCHAR
STARTCHAR uni04310451.liga
ENCODING -1
SWIDTH 746 0
DWIDTH 7 0
BBX 8 8 0 0
BITMAP
0100
2FA6
0800
2928
A598
D5E4
D9C0
B4B4
ENDCHAR
STARTCHAR uni04310436.liga
ENCODING -1
SWIDTH 1258 0
DWIDTH 11 0
BBX 12 7 0 0
BITMAP
1FC000
190000
29B299
A62771
D62BA0
D93760
B59678
ENDCHAR
STARTCHAR uni04310439.liga
ENCODING -1
SWIDTH 901 0
DWIDTH 8 0
BBX 8 7 0 0
BITMAP
1FB1
1919
29A7
A59A
D5DA
D9DD
B4EA
ENDCHAR
STARTCHAR uni0431045E.liga
ENCODING -1
SWIDTH 890 0
DWIDTH 8 0
BBX 8 9 0 -2
BITMAP
1E69
1800
29A7
A59A
D5DA
D9DD
B4FC
006C
00B4
ENDCHAR
STARTCHAR uni04310456.liga
ENCODING -1
SWIDTH 639 0
DWIDTH 6 0
BBX 6 7 0 0
BITMAP
1FB0
1910
28A0
A590
D5D0
D9C0
B4D0
ENDCHAR
STARTCHAR uni04310457.liga
ENCODING -1
SWIDTH 638 0
DWIDTH 6 0
BBX 7 7 0 0
BITMAP
2F98
0800
29A0
A590
D5D0
D9C0
B4D0
ENDCHAR
STARTCHAR uni04310458.liga
ENCODING -1
SWIDTH 638 0
DWIDTH 6 0
BBX 6 10 0 -2
BITMAP
1A10
2EA0
0800
29A0
A590
D5D0
D9C0
B6C0
0A80
0B40
ENDCHAR
STARTCHAR uni04320436.liga
ENCODING -1
SWIDTH 1275 0
DWIDTH 11 0
BBX 12 7 0 0
BITMAP
190000
360000
65B699
AE1A71
D52BB0
D96770
B9A738
ENDCHAR
STARTCHAR uni04320437.liga
ENCODING -1
SWIDTH 752 0
DWIDTH 7 0
BBX 7 9 0 -2
BITMAP
1900
3600
65B4
AE28
D524
D9A0
B870
0170
01D0
ENDCHAR
STARTCHAR uni04320445.liga
ENCODING -1
SWIDTH 842 0
DWIDTH 8 0
BBX 8 7 0 0
BITMAP
1900
3605
6561
AD38
D534
D9B4
B95C
ENDCHAR
STARTCHAR uni04330437.liga
ENCODING -1
SWIDTH 768 0
DWIDTH 7 0
BBX 7 7 0 -2
BITMAP
7878
5D6C
7528
D5A0
F434
0174
01E0
ENDCHAR
STARTCHAR uni04330445.liga
ENCODING -1
SWIDTH 725 0
DWIDTH 7 0
BBX 7 5 0 0
BITMAP
7A94
5DD4
74D0
D2D0
F8A0
ENDCHAR
STARTCHAR uni04330447.liga
ENCODING -1
SWIDTH 834 0
DWIDTH 8 0
BBX 8 5 0 0
BITMAP
78DD
5DCD
76EC
D56C
E41D
ENDCHAR
STARTCHAR uni04530437.liga
ENCODING -1
SWIDTH 768 0
DWIDTH 7 0
BBX 7 9 0 -2
BITMAP
0900
0400
7878
5D6C
7528
D5A0
F434
0174
01E0
ENDCHAR
STARTCHAR uni04530445.liga
ENCODING -1
SWIDTH 725 0
DWIDTH 7 0
BBX 7 7 0 0
BITMAP
0900
0800
7A94
5DD4
74D0
D2D0
F8A0
ENDCHAR
STARTCHAR uni04530447.liga
ENCODING -1
SWIDTH 834 0
DWIDTH 8 0
BBX 8 7 0 0
BITMAP
0900
0400
78DD
5DCD
76EC
D56C
E41D
ENDCHAR
STARTCHAR uni04340447.liga
ENCODING -1
SWIDTH 965 0
DWIDTH 9 0
BBX 9 7 0 -2
BITMAP
2B7680
A73740
D67B40
DA5700
BE0340
2D0000
780000
ENDCHAR
STARTCHAR uni04340458.liga
ENCODING -1
SWIDTH 715 0
DWIDTH 6 0
BBX 7 10 0 -2
BITMAP
0014
0028
0000
2B74
A730
D670
DAA0
BDA0
1DD0
7B80
ENDCHAR
STARTCHAR uni04350437.liga
ENCODING -1
SWIDTH 804 0
DWIDTH 7 0
BBX 8 7 0 -2
BITMAP
2878
A95D
E51C
D174
B828
0074
00B0
ENDCHAR
STARTCHAR uni04350445.liga
ENCODING -1
SWIDTH 747 0
DWIDTH 7 0
BBX 7 6 0 0
BITMAP
0004
29D8
A9E4
E4E0
D1E0
B974
ENDCHAR
STARTCHAR uni04350447.liga
ENCODING -1
SWIDTH 844 0
DWIDTH 8 0
BBX 8 5 0 0
BITMAP
29D9
A9CD
E5FC
D56C
B41D
ENDCHAR
STARTCHAR uni04510437.liga
ENCODING -1
SWIDTH 804 0
DWIDTH 7 0
BBX 8 9 0 -2
BITMAP
2600
0000
2878
A95D
E51C
D174
B828
0074
00B0
ENDCHAR
STARTCHAR uni04510445.liga
ENCODING -1
SWIDTH 747 0
DWIDTH 7 0
BBX 7 7 0 0
BITMAP
2600
0004
29D8
A9E4
E4E0
D1E0
B974
ENDCHAR
STARTCHAR uni04510447.liga
ENCODING -1
SWIDTH 844 0
DWIDTH 8 0
BBX 8 7 0 0
BITMAP
2600
0000
29D9
A9CD
E5FC
D56C
B41D
ENDCHAR
STARTCHAR uni04360447.liga
ENCODING -1
SWIDTH 1341 0
DWIDTH 12 0
BBX 12 5 0 0
BITMAP
659AA7
5AA5A6
1FB0EE
67715D
A7290A
ENDCHAR
STARTCHAR uni04370437.liga
ENCODING -1
SWIDTH 849 0
DWIDTH 8 0
BBX 8 7 0 -2
BITMAP
2D2D
4A4A
4A4D
2978
1D1C
6C6C
78B4
ENDCHAR
STARTCHAR uni04380447.liga
ENCODING -1
SWIDTH 964 0
DWIDTH 9 0
BBX 9 5 0 0
BITMAP
673680
A73740
DA7B40
DD5700
EB4340
ENDCHAR
STARTCHAR uni04390447.liga
ENCODING -1
SWIDTH 964 0
DWIDTH 9 0
BBX 9 7 0 0
BITMAP
250000
190000
673680
A73740
DA7B40
DD5700
EB4340
ENDCHAR
STARTCHAR uni043A0447.liga
ENCODING -1
SWIDTH 978 0
DWIDTH 9 0
BBX 10 5 -1 0
BITMAP
1999A0
2A0DA0
3B5ED0
3655C0
72D0D0
ENDCHAR
STARTCHAR uni045C0447.liga
ENCODING -1
SWIDTH 978 0
DWIDTH 9 0
BBX 10 7 -1 0
BITMAP
014000
010000
1999A0
2A0DA0
3B5ED0
3655C0
72D0D0
ENDCHAR
STARTCHAR uni043B0447.liga
ENCODING -1
SWIDTH 1015 0
DWIDTH 9 0
BBX 10 5 -1 0
BITMAP
02D670
05DA70
05CEE0
69D590
25E0A0
ENDCHAR
STARTCHAR uni043C0447.liga
ENCODING -1
SWIDTH 1231 0
DWIDTH 11 0
BBX 12 5 -1 0
BITMAP
034DA7
075DAA
076CEE
66ED5D
269E0A
ENDCHAR
STARTCHAR uni043D0447.liga
ENCODING -1
SWIDTH 965 0
DWIDTH 9 0
BBX 10 5 -1 0
BITMAP
18CDA0
29CDD0
3A9DD0
3695C0
72D0D0
ENDCHAR
STARTCHAR uni043E0436.liga
ENCODING -1
SWIDTH 1268 0
DWIDTH 11 0
BBX 12 5 0 0
BITMAP
29B699
A62A71
D52BA0
D92760
B5A638
ENDCHAR
STARTCHAR uni043E0437.liga
ENCODING -1
SWIDTH 765 0
DWIDTH 7 0
BBX 7 7 0 -2
BITMAP
29B8
A62C
D528
D8A0
B434
0170
01E0
ENDCHAR
STARTCHAR uni043E043B.liga
ENCODING -1
SWIDTH 945 0
DWIDTH 9 0
BBX 9 5 0 0
BITMAP
290B40
A51740
D52700
D96700
B99740
ENDCHAR
STARTCHAR uni043E043C.liga
ENCODING -1
SWIDTH 1161 0
DWIDTH 10 0
BBX 11 5 0 0
BITMAP
290D34
A51DB0
D51DB0
D95EA0
B99A70
ENDCHAR
STARTCHAR uni043E0445.liga
ENCODING -1
SWIDTH 835 0
DWIDTH 8 0
BBX 8 6 0 0
BITMAP
0004
29B5
A6B4
D574
D9B4
A56C
ENDCHAR
STARTCHAR uni043F0447.liga
ENCODING -1
SWIDTH 965 0
DWIDTH 9 0
BBX 10 5 -1 0
BITMAP
1F8DA0
298DD0
369ED0
3655C0
72D0D0
ENDCHAR
STARTCHAR uni04400437.liga
ENCODING -1
SWIDTH 818 0
DWIDTH 7 0
BBX 9 8 -1 -2
BITMAP
140000
2E9B00
29D340
35C700
369D00
7E0A00
A01A00
902C00
ENDCHAR
STARTCHAR uni04410437.liga
ENCODING -1
SWIDTH 804 0
DWIDTH 7 0
BBX 8 7 0 -2
BITMAP
2878
A45D
D11C
D174
B828
0074
00B0
ENDCHAR
STARTCHAR uni04410445.liga
ENCODING -1
SWIDTH 740 0
DWIDTH 7 0
BBX 7 6 0 0
BITMAP
0004
29D8
A4D4
D0E0
D1E0
B970
ENDCHAR
STARTCHAR uni04410447.liga
ENCODING -1
SWIDTH 843 0
DWIDTH 8 0
BBX 8 5 0 0
BITMAP
29D9
A5CD
D2EC
D56C
B41D
ENDCHAR
STARTCHAR uni04420447.liga
ENCODING -1
SWIDTH 1211 0
DWIDTH 11 0
BBX 12 5 -1 0
BITMAP
1FACA6
29DCDA
369CED
37695D
735D0E
ENDCHAR
STARTCHAR uni04430447.liga
ENCODING -1
SWIDTH 943 0
DWIDTH 8 0
BBX 9 7 0 -2
BITMAP
673340
A77340
DABB00
DD5B00
FD0740
6C0000
740000
ENDCHAR
STARTCHAR uni04430458.liga
ENCODING -1
SWIDTH 694 0
DWIDTH 6 0
BBX 7 10 0 -2
BITMAP
0010
0024
0000
6734
A770
DAA0
DDA0
EDD0
6DC0
7B80
ENDCHAR
STARTCHAR uni045E0447.liga
ENCODING -1
SWIDTH 943 0
DWIDTH 8 0
BBX 9 10 0 -2
BITMAP
250000
190000
000000
673340
A77340
DABB00
DD5B00
FD0740
6C0000
740000
ENDCHAR
STARTCHAR uni045E0458.liga
ENCODING -1
SWIDTH 694 0
DWIDTH 6 0
BBX 7 10 0 -2
BITMAP
2524
1924
0000
6734
A770
DAA0
DDA0
EDD0
6DC0
7B80
ENDCHAR
STARTCHAR uni04440437.liga
ENCODING -1
SWIDTH 1076 0
DWIDTH 10 0
BBX 10 9 0 -2
BITMAP
024000
034000
2BB2D0
A738A0
D634D0
DA7280
BFD1C0
0C06C0
180740
ENDCHAR
STARTCHAR uni04450447.liga
ENCODING -1
SWIDTH 981 0
DWIDTH 9 0
BBX 9 6 0 0
BITMAP
014000
296A80
4E3680
4D7B40
1D5740
574340
ENDCHAR
STARTCHAR uni04470447.liga
ENCODING -1
SWIDTH 964 0
DWIDTH 9 0
BBX 9 5 0 0
BITMAP
673680
A73740
AE7B40
595700
0B4340
ENDCHAR
STARTCHAR uni04480447.liga
ENCODING -1
SWIDTH 1211 0
DWIDTH 11 0
BBX 11 5 0 0
BITMAP
673698
A77368
DA73B4
DDA574
EBB438
ENDCHAR
STARTCHAR uni045F0447.liga
ENCODING -1
SWIDTH 964 0
DWIDTH 9 0
BBX 9 7 0 -2
BITMAP
673680
A73740
DA7B40
DD5700
FB4340
240000
140000
ENDCHAR
STARTCHAR uni044B0447.liga
ENCODING -1
SWIDTH 1112 0
DWIDTH 10 0
BBX 10 5 0 0
BITMAP
619A70
ADD9A0
D9CFE0
D9D5D0
B5D0A0
ENDCHAR
STARTCHAR uni04550437.liga
ENCODING -1
SWIDTH 768 0
DWIDTH 7 0
BBX 8 7 -1 -2
BITMAP
0E2E
1A5B
1A4A
5B68
2D0D
005D
0078
ENDCHAR
STARTCHAR uni04550445.liga
ENCODING -1
SWIDTH 712 0
DWIDTH 6 0
BBX 8 5 -1 0
BITMAP
0AA9
1E75
1A74
6B74
2D28
ENDCHAR
STARTCHAR uni04550447.liga
ENCODING -1
SWIDTH 864 0
DWIDTH 8 0
BBX 9 5 -1 0
BITMAP
0E3680
1A3740
1A7B40
6B5700
2D0340
ENDCHAR
STARTCHAR uni04540437.liga
ENCODING -1
SWIDTH 804 0
DWIDTH 7 0
BBX 8 7 0 -2
BITMAP
2878
A45D
D11C
D174
B828
0074
00B0
ENDCHAR
STARTCHAR uni04540445.liga
ENCODING -1
SWIDTH 740 0
DWIDTH 7 0
BBX 7 6 0 0
BITMAP
0004
29D8
A5D4
E4E0
D1E0
B970
ENDCHAR
STARTCHAR uni04540447.liga
ENCODING -1
SWIDTH 844 0
DWIDTH 8 0
BBX 8 5 0 0
BITMAP
29D9
A5CD
E6EC
D56C
B41D
ENDCHAR
STARTCHAR uni044D0437.liga
ENCODING -1
SWIDTH 765 0
DWIDTH 7 0
BBX 8 7 -1 -2
BITMAP
1F6E
0BCB
034A
5728
290D
005C
0078
ENDCHAR
STARTCHAR uni04560447.liga
ENCODING -1
SWIDTH 717 0
DWIDTH 6 0
BBX 7 7 0 0
BITMAP
3000
1000
6334
A734
DBB0
D5A0
A074
ENDCHAR
STARTCHAR uni04570447.liga
ENCODING -1
SWIDTH 718 0
DWIDTH 6 0
BBX 7 7 0 0
BITMAP
9800
0000
6334
A734
DBB0
D5A0
A074
ENDCHAR
STARTCHAR uni04570457.liga
ENCODING -1
SWIDTH 476 0
DWIDTH 4 0
BBX 5 7 0 0
BITMAP
AA80
0000
6340
A700
D600
DA00
EB00
ENDCHAR
STARTCHAR uni04580447.liga
ENCODING -1
SWIDTH 697 0
DWIDTH 6 0
BBX 9 10 -2 -2
BITMAP
010000
030000
000000
067340
0AA700
0DBA00
0D5A00
1D0700
680000
B40000
ENDCHAR
STARTCHAR uni04580458.liga
ENCODING -1
SWIDTH 449 0
DWIDTH 4 0
BBX 7 10 -2 -2
BITMAP
0110
0334
0000
0670
0AA0
0DA0
0DD0
1DC0
69C0
BB40
ENDCHAR
STARTCHAR uni045B0447.liga
ENCODING -1
SWIDTH 937 0
DWIDTH 8 0
BBX 10 9 -1 -2
BITMAP
0C0000
2E0000
2F5CD0
2A9DC0
36AFC0
375680
7741D0
1B0000
1D0000
ENDCHAR
STARTCHAR uni045B0458.liga
ENCODING -1
SWIDTH 691 0
DWIDTH 6 0
BBX 8 10 -1 -2
BITMAP
0404
0C09
2E00
2F4C
2A9C
36A8
3768
7774
1B70
1EE0
ENDCHAR
STARTCHAR uni044E0436.liga
ENCODING -1
SWIDTH 1503 0
DWIDTH 14 0
BBX 15 5 -1 0
BITMAP
18A59668
29986A84
3B547EC0
37659DC0
72E69CE4
ENDCHAR
STARTCHAR uni044E0437.liga
ENCODING -1
SWIDTH 1001 0
DWIDTH 9 0
BBX 10 7 -1 -2
BITMAP
19A6E0
2B9D70
3754A0
3366C0
72E0D0
0001D0
000780
ENDCHAR
STARTCHAR uni044E043B.liga
ENCODING -1
SWIDTH 1181 0
DWIDTH 11 0
BBX 12 5 -1 0
BITMAP
18A42E
29885D
3B545C
37659C
72E64D
ENDCHAR
STARTCHAR uni044E043C.liga
ENCODING -1
SWIDTH 1396 0
DWIDTH 13 0
BBX 14 5 -1 0
BITMAP
18A434D0
298875D0
3B5476C0
37656AC0
72E66DD0
ENDCHAR
STARTCHAR uni044E0445.liga
ENCODING -1
SWIDTH 1072 0
DWIDTH 10 0
BBX 11 6 -1 0
BITMAP
000014
18A5D8
2999D4
3B54E0
3766E0
72E670
ENDCHAR
STARTCHAR uni044F0447.liga
ENCODING -1
SWIDTH 984 0
DWIDTH 9 0
BBX 10 5 -1 0
BITMAP
0ADAA0
19CDA0
0A8ED0
6A95D0
25D0E0
ENDCHAR
STARTCHAR brevecombcy
ENCODING -1
SWIDTH 0 0
DWIDTH 0 0
BBX 4 2 -3 5
BITMAP
51
64
ENDCHAR
STARTCHAR brevecombcy.case
ENCODING -1
SWIDTH 0 0
DWIDTH 0 0
BBX 3 2 -2 8
BITMAP
84
A0
ENDCHAR
ENDFONT
